<svg width="324" height="242" viewBox="0 0 324 242" fill="none" xmlns="http://www.w3.org/2000/svg">
<path d="M255.753 236.695L253.022 238.986L250.299 241.501L242.548 241.931L245.933 239.536L249.533 235.059C249.533 235.059 245.587 227.13 243.328 222.699C242.555 221.179 241.979 220.067 241.829 219.83C242.451 220.263 250.405 219.346 250.405 219.346L251.569 224.905L253.351 233.421L255.425 235.385L255.753 236.695Z" fill="#F4BBA4"/>
<path d="M251.569 224.905L243.328 222.698C242.555 221.181 241.979 220.067 241.829 219.832C242.451 220.264 250.403 219.347 250.403 219.347L251.569 224.905Z" fill="#E28B6B"/>
<path d="M192.026 194.009L208.995 209.584L206.998 215.954L193.755 217.437L171.852 205.377L172.196 194.181L174.177 193.189L192.026 194.009Z" fill="#7D7672"/>
<path d="M124.148 191.191L105.375 200.289L107.343 205.919L114.113 206.455L142.492 200.756L141.859 190.769L140.062 189.941L124.148 191.191Z" fill="#7D7672"/>
<path d="M119.551 158.355L122.518 178.462L140.756 181.011L143.921 161.354L124.096 154.622L119.551 158.355Z" fill="#473C39"/>
<path d="M118.712 181.011L122.517 178.462L140.755 181.011L139.905 187.807L121.414 186.013L118.712 181.011Z" fill="#BFB6AE"/>
<path d="M123.276 186.194L124.148 191.19H140.063L139.905 187.807L123.276 186.194Z" fill="#AEA69E"/>
<path d="M123.607 188.09L139.958 188.944L139.904 187.807L123.275 186.194L123.607 188.09Z" fill="#978F8A"/>
<path d="M195.977 157.107L193.389 179.71L173.077 183.224L168.823 161.348L190.755 153.096L195.977 157.107Z" fill="#473C39"/>
<path d="M197.738 182.424L193.389 179.709L173.077 183.224L174.275 190.796L194.898 188.117L197.738 182.424Z" fill="#BFB6AE"/>
<path d="M192.82 188.388L192.026 194.01L174.223 194.587L174.275 190.797L192.82 188.388Z" fill="#AEA69E"/>
<path d="M274.519 165.759L274.113 185.445L276.826 183.852L287.56 192.342L292.626 193.291L296.638 190.34L303.359 193.049L324 186.803L316.175 166.883L313.62 160.388L312.147 149.273L303.714 85.7385L300.884 69.8177L275.29 67.4534L269.871 90.5712L275.177 141.283L274.971 148.982L274.519 165.759Z" fill="#CB5849"/>
<path d="M192.519 190.52L174.257 192.07L174.275 190.796L192.821 188.387L192.519 190.52Z" fill="#978F8A"/>
<path d="M274.519 165.758L285.903 172.297L298.174 173.357C298.174 173.357 311.653 168.448 316.175 166.883L313.621 160.388L312.148 149.273L298.053 153.312L285.197 152.959L274.971 148.982L274.519 165.758Z" fill="#E9AC5A"/>
<path d="M282.486 179.136L289.326 155.079L291.969 193.168L287.56 192.343L276.956 183.955L282.486 179.136Z" fill="#A63F32"/>
<path d="M300.884 69.8176L303.714 85.7384L312.147 149.273L313.62 160.388L316.175 166.883L324 186.803L320.654 187.814L307.015 161.446L294.752 107.199L286.732 90.4528L274.467 84.5562L269.871 90.5712L275.29 67.4533L300.884 69.8176Z" fill="#A63F32"/>
<path d="M296.884 204.074L296.557 205.384L293.068 203.204L287.941 200.363C287.941 200.363 275.065 211.93 274.738 212.147C274.509 212.303 273.604 212.394 273.068 212.441C272.826 212.461 272.663 212.473 272.663 212.473L266.115 210.732L270.698 204.186L273.493 202.463L273.54 202.438L285.428 196.874L286.632 194.798L288.047 194.143L292.196 197.089L295.47 199.708L296.884 204.074Z" fill="#F4BBA4"/>
<path d="M273.494 202.463C273.39 204.519 273.141 209.6 273.069 212.441C272.827 212.459 272.663 212.473 272.663 212.473L266.116 210.732L270.699 204.186L273.494 202.463Z" fill="#E28B6B"/>
<path d="M276.047 196.33L268.191 211.164L256.192 220.768L237.751 221.965L233.822 204.944L240.479 189.456L230.222 177.777L225.64 169.05L228.67 164.763L230.111 162.721L239.276 159.774L242.103 159.677L245.606 159.559L246.916 164.469L249.422 167.088L260.991 180.397L262.738 183.453L261.757 193.711L266.993 196.545L276.047 196.33Z" fill="#AB9475"/>
<path d="M247.788 201.674L248.443 186.071L241.445 173.56L246.697 169.814L244.623 165.123L244.003 159.612L242.103 159.677L239.276 159.774L230.111 162.721L228.67 164.763L226.835 167.359L231.203 175.815L234.913 178.215L238.946 175.341L245.606 187.708L242.551 202.983L247.831 221.31L256.19 220.768L256.386 220.612L247.788 201.674Z" fill="#473C39"/>
<path d="M255.316 199.819L247.68 205.82L233.822 204.944L237.75 221.965L256.192 220.768L260.086 217.65L254.443 204.184L269.314 209.045L276.046 196.33L266.993 196.545L261.756 193.711L262.738 183.453L260.99 180.395L249.421 167.088L246.915 164.469L257.39 182.363L255.316 199.819Z" fill="#8F7B54"/>
<path d="M249.147 204.666L247.68 205.82L243.288 205.542L247.832 221.31L256.192 220.767L256.387 220.61L249.147 204.666Z" fill="#2B2523"/>
<path d="M272.233 196.421L266.336 209.857L255.535 218.803L237.092 219.111L237.75 221.966L256.192 220.767L268.191 211.165L276.046 196.329L272.233 196.421Z" fill="#473C39"/>
<path d="M259.272 215.708L255.535 218.803L237.092 219.111L237.75 221.966L256.192 220.767L260.086 217.651L259.272 215.708Z" fill="#2B2523"/>
<path d="M296.756 189.868L292.626 193.291L292.156 195.883L298.29 199.656L303.359 193.051L296.756 189.868Z" fill="#57342C"/>
<path d="M45.7153 158.945L35.0237 182.621L36.3314 191.24L39.7147 192.986L44.1887 194.076L50.5157 190.259L57.0616 174.22L62.7357 189.385L69.8288 193.641L73.5385 192.986L76.92 190.804L80.0844 181.639C80.0844 181.639 69.6099 157.09 69.2816 156.981C68.9551 156.871 57.8258 159.381 57.8258 159.381L45.7153 158.945Z" fill="#473C39"/>
<path d="M87.2851 208.152L81.8317 209.573L75.0634 207.712L70.8728 196.447L69.8252 193.639L73.5386 192.984L76.9218 190.803L77.112 191.544L80.5222 204.663L87.2851 208.152Z" fill="#F4BBA4"/>
<path d="M269.314 209.045L276.046 196.33L272.232 196.421L267.021 208.295L269.314 209.045Z" fill="#2B2523"/>
<path d="M42.2459 196.951L37.0938 204.552L37.971 207.712L33.7159 209.022L24.4397 208.367L31.9687 204.223L36.0211 192.172L36.335 191.243L39.7129 192.985L44.1904 194.077L42.2459 196.951Z" fill="#F4BBA4"/>
<path d="M39.7147 192.986L44.1887 194.077L50.5157 190.258L57.0634 174.22L62.7357 189.386L69.8288 193.641L73.5385 192.986L76.92 190.805L79.8118 182.427L75.9388 186.003L71.3554 188.405L63.6093 187.75L59.2448 174.001L62.5187 167.127L57.3899 171.711L50.2987 168.765L55.535 173.13L49.861 189.386L41.0242 189.605L37.9693 187.095L35.0237 182.621L36.3332 191.241L39.7147 192.986Z" fill="#2B2523"/>
<path d="M44.1901 194.077L42.2456 196.951L36.0208 192.172L36.3347 191.243L39.7126 192.985L44.1901 194.077Z" fill="#E28B6B"/>
<path d="M77.112 191.544C75.4562 192.787 72.5429 195.112 70.8728 196.446L69.8252 193.639L73.5386 192.984L76.9218 190.804L77.112 191.544Z" fill="#E28B6B"/>
<path d="M276.826 183.851C276.826 183.851 266.92 189.278 267.273 189.278H283.784L276.826 183.851Z" fill="#57342C"/>
<path d="M290.548 172.698L285.904 172.296L284.637 171.57L289.327 155.079L290.548 172.698Z" fill="#DA9C49"/>
<path d="M307.016 161.447L304.743 151.394L312.148 149.271L313.619 160.388L316.173 166.884C314.918 167.318 312.969 168.01 310.811 168.785L307.016 161.447Z" fill="#DA9C49"/>
<path d="M116.879 136.129L115.017 147.24L147.088 154.147L192.448 144.017L193.507 129.041L142.542 136.188L116.879 136.129Z" fill="#AEA69E"/>
<path d="M116.879 137.84L154.332 145.218L193.032 135.763L193.507 129.041L192.171 126.664L151.31 140.151L116.879 134.733V137.84Z" fill="#978F8A"/>
<path d="M91.2461 106.493L107.544 78.7685L116.12 71.105L128.233 69.3577L172.866 66.6561L192.822 73.5806L221.375 102.41L193.509 116.499L191.794 129.532L150.601 141.343L113.734 135.642L108.932 113.217L91.2461 106.493Z" fill="#BFB6AE"/>
<path d="M110.922 157.453L112.316 150.608L115.016 147.239L147.089 154.147L192.447 144.017L194.688 145.217L198.412 159.294L145.503 167.052L110.922 157.453Z" fill="#BFB6AE"/>
<path d="M69.2828 156.979L64.8124 157.915L57.827 159.381L52.5046 159.19L45.7165 158.943L45.3882 154.033L49.4603 153.541L65.826 151.552L68.7393 151.199L69.2828 156.979Z" fill="#CB5849"/>
<path d="M49.4603 153.542L52.5046 159.191L45.7165 158.943L45.3882 154.033L49.4603 153.542Z" fill="#A63F32"/>
<path d="M69.2824 156.978L64.812 157.915L65.8256 151.552L68.7388 151.198L69.2824 156.978Z" fill="#A63F32"/>
<path d="M71.9008 151.964L57.9372 155.564L42.881 155.342L42.5527 142.688L45.5449 124.358L46.0419 121.301L59.679 119.233L61.0926 121.163L66.8797 129.053L71.9008 151.964Z" fill="#DDC6B0"/>
<path d="M71.9008 151.964L66.8797 129.053L61.0926 121.163L59.6826 119.236L63.1717 142.907L52.6972 140.724L61.5357 148.362L51.9348 146.615L45.8804 122.295L45.5449 124.358L42.5527 142.688L42.881 155.342L57.9372 155.564L71.9008 151.964Z" fill="#C7AC92"/>
<path d="M50.4096 151.198C50.4096 151.198 39.0579 153.051 39.0579 152.723C39.0579 152.396 39.2803 135.376 39.2803 135.376L40.8069 129.811L39.0579 123.918L41.0939 123.152L46.0433 121.301L48.2892 136.658L50.4096 151.198Z" fill="#7A4C41"/>
<path d="M48.5524 158.29L42.9878 170.401L45.9334 171.274L48.8789 159.709L48.6619 174.984L52.3716 174.656L49.7526 158.509L48.5524 158.29Z" fill="#A63F32"/>
<path d="M243.97 169.378L234.589 174.943L233.169 173.962L228.671 164.763L229.045 164.239L230.112 162.721L239.277 159.774L241.247 159.709L242.104 159.677L242.877 166.433L243.97 169.378Z" fill="#DDC6B0"/>
<path d="M241.246 159.709L236.551 165.123L231.532 165.667L229.044 164.239L230.111 162.721L239.276 159.774L241.246 159.709Z" fill="#A63F32"/>
<path d="M281.518 149.59L270.031 151.608L258.649 157.053L246.669 157.799L237.671 154.206L236.268 153.323L223.543 145.315C223.6 144.881 223.403 136.272 223.403 136.272L230.478 129.274L238.337 129.753L242.398 132.378L246.253 132.326L251.533 139.071L256.084 146.379C256.084 146.379 262.391 148.781 262.915 148.613C262.922 148.607 262.936 148.602 262.944 148.596C263.2 148.299 269.69 147.497 269.69 147.497L271.915 147.893L281.518 149.59Z" fill="#CB5849"/>
<path d="M230.222 177.777L222.804 184.219L209.928 184.978L208.279 182.235L207.309 180.619L207.637 177.234L209.49 176.337L211.455 175.381L220.291 178L225.639 169.05L230.222 177.777Z" fill="#DDC6B0"/>
<path d="M264.152 162.943L263.393 177.018L258.56 179.173L257.278 179.741L253.573 178.654L253.161 175.761L252.807 173.307L255.536 167.414L249.422 167.087L246.914 164.468L245.605 159.558L262.953 161.962L264.152 162.943Z" fill="#DDC6B0"/>
<path d="M260.553 174.943L260.335 169.378L257.717 175.378L255.098 175.488L252.807 173.307L253.161 175.761L253.573 178.654L257.278 179.741L258.56 179.171L263.393 177.018L264.152 162.943L262.954 161.962L263.282 163.487L260.553 174.943Z" fill="#C7AC92"/>
<path d="M257.278 179.741L256.408 181.162L255.098 182.254L253.154 182.131L246.588 181.705L245.605 181.377L250.077 180.292L245.822 176.467H251.281L253.574 178.654L257.278 179.741Z" fill="#F4BBA4"/>
<path d="M258.561 179.171L257.278 179.742L253.572 178.655L253.159 175.761L258.561 179.171Z" fill="#A63F32"/>
<path d="M257.278 179.741L256.408 181.162L255.099 182.254L253.154 182.131L254.444 181.817L255.21 180.945L253.574 178.654L257.278 179.741Z" fill="#E28B6B"/>
<path d="M207.637 177.234L207.422 180.179L205.816 179.742L203.819 179.198L199.015 177.777L193.779 172.213H198.145L203.708 173.96L202.512 170.577L202.942 169.816L206.439 173.745L207.343 176.369L207.637 177.234Z" fill="#F4BBA4"/>
<path d="M230.222 177.777L222.804 184.219L209.928 184.978L208.279 182.235L207.309 180.619L207.637 177.234L209.49 176.337L211.455 175.381L211.126 181.162L217.346 181.489L210.8 183.997L222.367 183.125L226.294 178.217L225.639 169.05L230.222 177.777Z" fill="#C7AC92"/>
<path d="M209.49 176.337L208.279 182.235L207.31 180.619L207.637 177.234L209.49 176.337Z" fill="#A63F32"/>
<path d="M207.637 177.234L207.422 180.179L205.816 179.742L207.343 176.369L207.637 177.234Z" fill="#E28B6B"/>
<path d="M203.818 174.288L204.145 177.343L202.618 176.143L203.818 174.288Z" fill="#E28B6B"/>
<path d="M281.517 149.59L270.031 151.608L258.649 157.053L246.669 157.799L237.671 154.206L236.268 153.323L235.213 141.889L245.187 148.918L258.627 150.448L256.083 146.379C256.083 146.379 262.391 148.781 262.914 148.613C262.378 148.925 260.05 150.528 260.05 150.528L264.089 151.605L271.914 147.893L281.517 149.59Z" fill="#A63F32"/>
<path d="M255.537 167.414L257.935 164.14L248.297 165.911L249.423 167.088L255.537 167.414Z" fill="#C7AC92"/>
<path d="M228.378 156.291L230.672 162.313L232.679 163.786L236.307 163.82L240.14 160.579L238.59 152.233L228.378 156.291Z" fill="#E28B6B"/>
<path d="M231.784 132.749L226.299 135.994L222.345 146.04L222.899 153.594L226.925 157.311L234.574 156.88L238.37 153.086L241.55 153.17L244.476 150.142L243.334 146.251L239.227 147.365L235.137 140.778L231.784 132.749Z" fill="#F4BBA4"/>
<path d="M225.321 151.05L227.743 151.036L233.139 151.852L228.703 153.802L226.986 153.468L225.321 151.05Z" fill="white"/>
<path d="M39.8283 133.375L39.2794 135.378C39.2794 135.378 39.0605 152.399 39.0605 152.725C39.0605 152.933 43.5901 152.268 46.9268 151.751L39.8283 133.375Z" fill="#57342C"/>
<path d="M242.364 147.775L239.349 149.802L240.204 151.673L241.507 150.965L241.164 149.379L242.364 147.775Z" fill="#E28B6B"/>
<path d="M228.374 149.578L225.73 147.914L225.684 149.117L228.374 149.578Z" fill="#E28B6B"/>
<path d="M42.331 129.052L39.2796 135.375L32.1848 137.89L18.8884 137.713L15.2755 137.666L14.2925 130.576L15.4908 125.451L18.9799 125.772L30.9864 126.865L39.0572 123.919L42.331 129.052Z" fill="#DDC6B0"/>
<path d="M17.7823 130.793L18.8892 137.712L15.2745 137.667L14.2932 130.578L15.4915 125.451L18.9807 125.772L17.7823 130.793Z" fill="#998468"/>
<path d="M39.0598 124.249L39.6052 130.795L31.9686 136.797L14.2952 130.601L15.2746 137.667L18.8875 137.712L32.1839 137.889L39.2805 135.376L42.2476 129.225L39.0598 124.249Z" fill="#C7AC92"/>
<path d="M14.2957 130.6L15.2751 137.666L18.888 137.713L17.9552 131.883L14.2957 130.6Z" fill="#6B5A3F"/>
<path d="M16.0382 126.213L8.94691 125.122L7.30908 130.358L16.257 133.413L16.0382 126.213Z" fill="#E28B6B"/>
<path d="M6.00057 119.23L0 138.979L2.07194 140.834L5.45522 140.179L8.83671 120.321L6.00057 119.23Z" fill="#57342C"/>
<path d="M1.41846 124.467C1.74495 124.248 3.92811 121.302 3.92811 121.302L10.3646 123.486L9.70983 127.412L6.98311 132.977L1.9638 131.886L1.41846 124.467Z" fill="#F4BBA4"/>
<path d="M61.0928 121.163L58.2639 126.322L50.5142 127.087L45.5452 124.358L46.0421 121.301L59.6792 119.231L61.0928 121.163Z" fill="#998468"/>
<path d="M91.2461 106.493L109.876 117.619L108.932 113.217L91.2461 106.493Z" fill="#978F8A"/>
<path d="M264.325 70.5227L272.58 66.6318L269.986 51.4178L265.504 49.8858L264.325 70.5227Z" fill="#BCB3AB"/>
<path d="M263.146 44.5781C263.027 45.0499 261.967 55.1926 261.967 55.1926L264.324 70.5232L266.33 58.4934L267.155 50.8281L263.146 44.5781Z" fill="#2B2523"/>
<path d="M282.012 28.6574L285.317 37.2681L285.607 38.4287L289.916 55.6662L293.85 61.6794L295.931 64.8635L303.715 62.388L306.777 53.6571L308.788 43.7494L310.203 35.7325L314.207 29.5992L314.328 19.6915L308.454 7.96128L308.433 7.90387L308.193 7.43029L301.944 0.233192L295.696 1.06197L291.565 -1.52588e-05L285.72 3.39044L285.67 3.41735L282.133 17.5694L282.012 28.6574Z" fill="#DDA27F"/>
<path d="M282.012 28.6574L285.317 37.2681L285.607 38.4287L291.099 37.6233L293.807 8.01687L291.918 4.47931L286.852 6.60148L285.72 3.39042L285.67 3.41733L282.133 17.5693L282.012 28.6574Z" fill="#CF875B"/>
<path d="M292.866 55.1916L293.85 61.6801L295.93 64.8643L303.714 62.3869L306.778 53.656L308.787 43.7502L310.203 35.7332L314.207 29.5981L314.327 19.6923L308.454 7.96022L313.5 19.5793L311.971 28.4231L303.594 33.2559L300.41 28.1828L300.056 22.1678L297.819 29.4851L296.992 35.6131L302.885 34.6713L306.069 37.1486L306.778 42.1016L300.65 45.5189L295.102 41.9814L295.222 50.3588L299.468 51.7742L301.71 50.3588L303.241 54.2498L299.235 60.2647L292.866 55.1916Z" fill="#CF875B"/>
<path d="M303.36 73.9428L306.544 84.5572L304.775 92.3391L307.016 99.5344L305.247 106.138L306.307 110.972L304.185 118.284L301.945 109.794L302.888 105.429L300.294 98.8258L301.591 91.3955L298.407 85.9708L298.879 78.8957L303.36 73.9428Z" fill="#DDA27F"/>
<path d="M298.415 85.8512L298.88 78.8963L303.361 73.9434L306.545 84.556L304.776 92.3397L307.017 99.5332L305.246 106.138L306.308 110.973L304.588 116.9L305.13 111.267L304.068 106.845L302.79 105.887L302.889 105.43L300.293 98.8264L300.336 98.5843L305.305 99.239L304.245 94.6395L301.273 93.2241L301.572 91.5038L303.714 91.2795L304.776 84.3802L302.83 82.4339L298.415 85.8512Z" fill="#CF875B"/>
<path d="M96.6657 88.1368L92.9613 91.9542L87.6963 98.283L87.612 98.3889L84.2089 104.653L83.5739 105.812L79.4282 102.866L80.3915 101.026L82.9191 96.2093L82.7882 95.6711L80.7378 87.1555L81.832 88.2408L83.9004 91.8412L89.248 82.1344L90.014 82.3497L88.0515 88.8956L93.3919 82.678L94.5974 83.9857L91.7558 90.5334L96.1222 87.482L96.6657 88.1368Z" fill="#F4BBA4"/>
<path d="M88.3785 105.046L85.9299 108.515L71.9016 128.397L66.5522 124.574L67.3182 117.811L77.6295 98.7224L79.8683 94.5713L84.5557 98.6112L88.3785 105.046Z" fill="#DDC6B0"/>
<path d="M99.0796 153.082L96.717 151.462L94.4872 149.932L92.6628 148.675L90.0724 146.899L89.6849 146.63L86.1761 144.22L83.9804 142.71L79.6445 139.734L81.2895 137.418L81.7972 136.708L86.4183 138.902L87.7045 139.511L90.7469 140.954L92.1193 141.609L96.5735 143.72L97.9853 144.394L102.75 146.653L99.0796 153.082Z" fill="#473C39"/>
<path d="M96.717 151.462C97.5225 149.693 98.5898 147.268 98.5898 147.268L81.2896 137.418L81.7972 136.707L102.75 146.652L99.0796 153.082L96.717 151.462Z" fill="#2B2523"/>
<path d="M71.9011 128.397L85.9293 108.515L88.378 105.046L87.7573 104L70.1556 122.721L68.9555 121.847L67.3177 117.811L66.5535 124.574L71.9011 128.397Z" fill="#C7AC92"/>
<path d="M78.4476 144.213L67.1031 148.797L63.6588 135.095L59.6799 119.232L64.118 118.408L67.3183 117.811L67.8619 123.592L71.9017 128.396L78.4476 144.213Z" fill="#7A4C41"/>
<path d="M231.954 145.01C231.686 145.905 231.846 146.743 232.307 146.879C232.77 147.017 233.36 146.404 233.627 145.508C233.893 144.613 233.735 143.776 233.274 143.637C232.811 143.501 232.221 144.115 231.954 145.01Z" fill="#2B2523"/>
<path d="M69.9709 126.1L72.2313 146.726L78.4471 144.216L71.9012 128.394L69.9709 126.1Z" fill="#57342C"/>
<path d="M248.303 138.538C248.628 138.581 256.371 138.273 256.371 138.273L263.239 134.549L273.502 135.998L264.292 137.437L258.396 143.818L253.701 146.065L248.303 138.538Z" fill="#A63F32"/>
<path d="M225.049 143.117C224.781 144.012 224.941 144.85 225.402 144.986C225.865 145.125 226.455 144.511 226.722 143.616C226.988 142.721 226.83 141.883 226.369 141.745C225.906 141.609 225.316 142.222 225.049 143.117Z" fill="#2B2523"/>
<path d="M235.728 143.827L231.236 141.149L232.248 139.301L235.728 143.827Z" fill="#CB5849"/>
<path d="M225.15 140.574L228.033 140.4L228.533 138.266L225.15 140.574Z" fill="#CB5849"/>
<path d="M184.004 123.163L183.234 111.09L177.84 106.747L176.983 98.7754L168.899 90.5019L169.669 84.5229L174.622 88.5663L181.902 99.8194L190.424 119.891" fill="#978F8A"/>
<path d="M169.122 135.444L170.445 123.419L165.88 118.21L166.411 110.211L151.147 90.3938L158.911 89.3893L165.846 99.7472L171.075 112.087L176.01 133.327" fill="#978F8A"/>
<path d="M134.213 137.603L140.855 127.493L139.153 120.779L143.261 113.892L138.665 89.3047L145.2 84.8792L147.511 104.316L146.564 117.684L141.311 138.848" fill="#978F8A"/>
<path d="M119.046 131.072L125.689 120.962L123.986 114.247L128.094 107.361L124.689 74.9018L131.829 73.438L132.344 97.7847L131.397 111.153L126.144 132.317" fill="#978F8A"/>
<path d="M171.841 50.5148L172.517 68.9883L159.147 77.1936L135.5 71.0836L134.905 49.8744L171.841 50.5148Z" fill="#F7BEA7"/>
<path d="M172.897 66.8691L181.525 95.191L178.786 97.6128L170.455 87.0127L170.559 105.944L167.558 107.149L157.277 91.4167L149.54 109.528L147.226 108.893L143.626 88.9465L134.368 103.003L131.28 102.72L134.855 66.4134L138.535 60.4792L146.704 69.4182L156.294 70.4335L159.401 68.3203L163.579 70.7224L165.271 68.2235L168.543 69.1599L172.897 66.8691Z" fill="#D49770"/>
<path d="M181.85 98.2122L187.283 102.918L188.127 110.76L195.315 120.731L188.449 124.306L186.254 111.788L181.179 105.081L180.553 99.258L181.85 98.2122Z" fill="#D49770"/>
<path d="M170.391 108.639L174.854 114.273L174.223 122.136L179.429 133.271L172.018 135.504L172.191 122.796L168.454 115.262L168.922 109.424L170.391 108.639Z" fill="#D49770"/>
<path d="M147.217 111.054L143.213 117.024L144.463 124.811L140.154 136.323L147.719 137.964L146.54 125.31L149.672 117.503L148.743 111.721L147.217 111.054Z" fill="#D49770"/>
<path d="M131.31 104.986L127.306 110.956L128.556 118.743L124.248 130.255L131.812 131.896L130.634 119.242L133.766 111.435L132.837 105.653L131.31 104.986Z" fill="#D49770"/>
<path d="M167.326 67.9245L159.401 68.3192L163.579 70.7212L167.326 67.9245Z" fill="#F7BEA7"/>
<path d="M172.074 56.8749L175.972 65.8264L173.466 77.8042L169.356 72.8172L172.379 66.6731L172.074 56.8749Z" fill="#D49770"/>
<path d="M135.117 57.4316L129.94 62.9658L131.28 102.72L138.741 80.0382L135.551 66.0836L135.117 57.4316Z" fill="#D49770"/>
<path d="M165.016 58.1482C165.154 59.4327 165.824 60.4139 166.511 60.3404C167.2 60.2668 167.644 59.1654 167.506 57.8809C167.368 56.5965 166.699 55.6152 166.012 55.6888C165.323 55.7623 164.878 56.8638 165.016 58.1482Z" fill="#2B2523"/>
<path d="M151.421 58.4417C151.661 59.7118 152.408 60.6357 153.087 60.5065C153.765 60.3773 154.122 59.2454 153.882 57.9753C153.64 56.7052 152.895 55.7814 152.216 55.9106C151.536 56.0397 151.18 57.1717 151.421 58.4417Z" fill="#2B2523"/>
<path d="M171.034 55.8879L163.677 56.4709L163.72 53.7389L170.971 53.5774L171.034 55.8879Z" fill="#D49770"/>
<path d="M149.45 57.0156L156.827 56.795L156.486 54.0826L149.26 54.7123L149.45 57.0156Z" fill="#D49770"/>
<path d="M167.14 72.1296L160.359 73.3745L149.199 72.2677L160.179 75.5613L167.14 72.1296Z" fill="#B88361"/>
<path d="M135.117 57.4317L131.578 66.0603L132.681 98.4598L137.343 88.2185L137.77 92.1955L145.992 83.2655L150.243 104.297L147.226 108.893L143.627 88.9468L134.367 103.004L131.28 102.72L129.94 62.9659L135.117 57.4317Z" fill="#B88361"/>
<path d="M155.477 95.6329L156.336 84.6901L162.729 96.3576L163.018 88.9273L170.56 105.944L167.558 107.15L158.09 92.9869L155.477 95.6329Z" fill="#B88361"/>
<path d="M170.455 87.0127L169.666 78.2119L173.279 85.2439L174.775 82.1064L178.786 97.6128L170.455 87.0127Z" fill="#B88361"/>
<path d="M163.579 70.7217L159.401 68.3197L166.903 66.4827L167.231 68.7843L163.579 70.7217Z" fill="#E58E6B"/>
<path d="M147.217 111.054L145.177 117.49L145.773 123.023L145.279 137.435L140.154 136.323L144.585 123.862L143.213 117.024L147.217 111.054Z" fill="#B88361"/>
<path d="M132.237 105.391L129.146 111.593L129.71 119.292L126.92 130.834L124.249 130.255L128.409 117.581L127.308 110.956L131.312 104.986L132.237 105.391Z" fill="#B88361"/>
<path d="M169.676 109.021L170.135 115.648L172.338 117.535L175.553 134.439L172.019 135.505L172.191 122.797L168.453 115.262L168.923 109.425L169.676 109.021Z" fill="#B88361"/>
<path d="M181.164 98.7658L185.376 104.793L185.071 108.544L187.543 111.002L190.769 123.098L188.451 124.305L185.252 110.607L181.18 105.08L180.554 99.2591L181.164 98.7658Z" fill="#B88361"/>
<path d="M180.989 93.4311L182.763 99.0029L180.629 99.9573L177.932 96.5274L180.989 93.4311Z" fill="#2B2523"/>
<path d="M170.55 103.856L171.182 109.636L168.859 110.221L166.76 105.993L170.55 103.856Z" fill="#2B2523"/>
<path d="M174.356 120.482L175.116 124.045L172.119 124.441L171.437 121.404L174.356 120.482Z" fill="#2B2523"/>
<path d="M135.222 101.596L132.964 106.522L130.725 105.67L131.062 100.697L135.222 101.596Z" fill="#2B2523"/>
<path d="M150.634 106.969L148.894 113.118L146.7 112.076L146.962 107.363L150.634 106.969Z" fill="#2B2523"/>
<path d="M187.9 108.647L184.745 109.763L185.755 112.762L188.682 111.53L187.9 108.647Z" fill="#2B2523"/>
<path d="M147.392 123.187L144.163 122.938L143.715 126.309L146.714 127.171V124.918L147.392 123.187Z" fill="#2B2523"/>
<path d="M131.262 117.679L128.168 116.544L128.41 117.581L127.576 120.117L130.806 121.073L130.636 119.242L131.262 117.679Z" fill="#2B2523"/>
<path d="M171.03 41.7252L135.477 46.958L135.943 43.9891L136.889 38.0316L141.972 29.9483L154.157 22.8015L163.453 26.5238L171.03 41.7252Z" fill="#BFB6AE"/>
<path d="M171.03 41.7252L135.477 46.958L135.943 43.9891L156.589 36.3184L154.157 22.8015L163.453 26.5238L171.03 41.7252Z" fill="#978F8A"/>
<path d="M132.385 58.3376L127.855 49.0345L133.795 46.7904L153.65 39.274L153.98 39.1448L166.496 40.2893L175.455 41.1073L176.42 49.0686L132.385 58.3376Z" fill="#AEA69E"/>
<path d="M138.454 56.4233L133.796 46.7901L153.649 39.2737L154.517 51.6049L138.454 56.4233Z" fill="#BFB6AE"/>
<path d="M167.681 49.0815L167.582 48.233L166.66 40.2502L175.62 41.07L176.586 49.0295L167.681 49.0815Z" fill="#978F8A"/>
<path d="M163.256 50.3469L163.07 60.0985L161.416 61.4368L159.45 59.9012L157.602 50.7775L163.256 50.3469Z" fill="#AEA69E"/>
<path d="M157.843 51.9715L159.451 59.9023L161.415 61.436L158.9 60.7257L156.475 54.0434L132.385 58.338L154.516 51.6055L157.843 51.9715Z" fill="#978F8A"/>
<path d="M162.995 50.7887L163.237 51.8435L176.42 49.0684L167.582 48.2342L162.995 50.7887Z" fill="#978F8A"/>
<path d="M104.12 146.095L163.305 183.223L167.349 189.436L159.759 188.862L99.0303 154.604L104.12 146.095Z" fill="#ABA39B"/>
<path d="M152.049 176.163L140.978 169.217L141.896 178.785L153.981 185.604L152.049 176.163Z" fill="#BCB3AB"/>
<path d="M137.743 176.443L137.323 166.924L132.469 163.878L133.629 174.123L137.743 176.443Z" fill="#BCB3AB"/>
<mask id="mask0_57_577" style="mask-type:luminance" maskUnits="userSpaceOnUse" x="100" y="149" width="64" height="39">
<path d="M100.878 149.518H163.944V187.046H100.878V149.518Z" fill="white"/>
</mask>
<g mask="url(#mask0_57_577)">
<path d="M102.068 149.524L163.943 187.054L100.877 151.227L102.068 149.524Z" fill="#C7BEB4"/>
</g>
<path d="M112.718 162.326L123.948 168.662L122.218 157.448L112.589 151.408L112.718 162.326Z" fill="#BCB3AB"/>
<path d="M93.8881 162.91L91.513 156.409L91.47 156.291L91.5561 156.285L96.3404 155.93L104.549 143.073L103.374 139.267L108.322 137.918L109.9 141.064L110.918 143.091L106.198 144.06C105.97 144.442 98.1432 157.525 98.1432 157.525L98.8626 161.229L97.2409 161.776L93.8881 162.91Z" fill="#7D7672"/>
<path d="M93.8878 162.91L91.5127 156.409L91.5557 156.285L96.3401 155.93L104.549 143.073L103.374 139.267L108.321 137.918L109.9 141.064C108.194 141.803 105.968 142.716 105.968 142.716L96.6504 158.007L97.2406 161.776L93.8878 162.91Z" fill="#615B58"/>
<path d="M94.4867 149.932L92.6624 148.674L96.573 143.719L97.9848 144.394L94.4867 149.932Z" fill="#2B2523"/>
<path d="M92.1189 141.609L90.0721 146.897L89.6846 146.63L90.7466 140.954L92.1189 141.609Z" fill="#2B2523"/>
<path d="M87.7039 139.511L86.1755 144.22L83.9797 142.709L86.4176 138.903L87.7039 139.511Z" fill="#2B2523"/>
<path d="M78.3283 143.085L75.3271 138.01L75.5012 134.839L78.8216 133.034L83.6203 134.523L81.2039 138.432L79.184 141.699L78.3283 143.085Z" fill="#7D7672"/>
<path d="M78.3283 143.085L75.3271 138.01L75.5012 134.839L78.8216 133.034L83.6203 134.523L81.2039 138.432L77.13 137.02L79.184 141.699L78.3283 143.085Z" fill="#615B58"/>
<path d="M108.556 118.099L108.501 114.724L97.637 107.751L91.9773 105.507L83.5908 138.477L96.4943 142.569L108.556 118.099Z" fill="#AEA69E"/>
<path d="M90.7551 130.015L98.6715 108.162L91.9767 105.507L83.6064 135.289L97.8607 139.797L98.9532 136.841L90.7551 130.015Z" fill="#7D7672"/>
<path d="M87.4312 136.112L80.4028 130.439L69.7219 137.102L72.4486 140.842L80.0242 135.552L81.0486 138.128L87.4312 136.112Z" fill="#F7BEA7"/>
<path d="M89.5984 135.726L81.1026 131.372L69.9966 142.55L72.8453 147.162L80.8765 139.798L83.101 140.02L89.5984 135.726Z" fill="#F7BEA7"/>
<path d="M92.8491 136.047L81.9386 134.06L74.0796 148.606L81.9817 152.108L82.2956 143.483L86.2458 143.72L92.8491 136.047Z" fill="#F7BEA7"/>
<path d="M98.4649 137.714L86.7131 134.225L83.3765 152.548L91.8454 153.375L94.5076 150.526L89.5492 145.572L89.4021 141.155L96.9652 143.801L98.4649 137.714Z" fill="#F7BEA7"/>
<path d="M102.457 142.832L98.3326 137.88L89.7147 135.116L86.9629 146.283L94.4685 142.284L99.8359 145.422L102.457 142.832Z" fill="#F7BEA7"/>
<path d="M0.763428 116.939L7.19991 120.758L15.2742 121.084L8.40002 118.029L0.763428 116.939Z" fill="#99594A"/>
<path d="M6.10962 118.357L9.27404 119.121L20.8393 91.9528L18.1108 80.8235L10.2553 88.5714L6.10962 118.357Z" fill="#B56957"/>
<path d="M44.7337 114.865L41.571 117.7L37.9707 116.718L36.6611 113.773L33.1666 112.686L32.1836 109.518C32.1836 109.511 32.1836 109.503 32.1908 109.503L34.4762 103.521L41.571 98.9374L42.3442 101.969L44.5166 110.499L44.7337 114.865Z" fill="#D19470"/>
<path d="M44.7337 114.865L41.571 117.7L37.9707 116.718L36.6611 113.773L33.1666 112.686L32.1836 109.518C32.1836 109.511 32.1836 109.503 32.1908 109.503C32.2948 109.503 33.4931 111.705 33.4931 111.705L36.2234 111.809L39.3861 109.301L41.1333 100.529L42.3442 101.969L44.5166 110.499L44.7337 114.865Z" fill="#B58061"/>
<path d="M65.3549 107.992L64.5889 110.611L62.0811 111.807L59.7903 111.703L55.0113 96.6275L54.8804 96.2077H59.9015L64.7001 100.025L65.2437 102.971L63.8301 105.701L65.3549 107.992Z" fill="#D19470"/>
<path d="M65.3546 107.992L64.5886 110.611L62.0807 111.807L59.7899 111.703L55.011 96.6275L55.0576 96.2077L55.0971 95.77L55.5025 96.2077L60.2294 101.335L63.175 102.212L64.6998 100.025L65.2433 102.971L63.8298 105.701L65.3546 107.992Z" fill="#B58061"/>
<path d="M44.2969 112.574C44.4063 112.901 46.0423 121.303 46.0423 121.303C46.0423 121.303 51.2805 124.904 51.7164 124.794C52.1523 124.685 56.4074 124.139 56.4074 124.139L59.6813 119.23L57.3905 112.029L44.2969 112.574Z" fill="#E28B6B"/>
<path d="M59.7903 103.953V111.704L56.5165 115.848L53.3556 116.94L47.025 116.063L41.3491 109.955L40.8253 101.852L40.6943 99.8088L47.3515 96.6461L55.5352 95.4424L56.5631 97.4911L59.7903 103.953Z" fill="#F4BBA4"/>
<path d="M42.3308 133.634L44.6216 129.483L41.093 123.152L46.0424 121.301L48.2883 136.659L42.3308 133.634Z" fill="#57342C"/>
<path d="M67.7571 125.883L63.6598 135.095L59.6792 119.231L64.1173 118.408L63.7172 124.358L67.7571 125.883Z" fill="#57342C"/>
<path d="M242.398 132.377L235.694 133.152L238.336 129.754L242.398 132.377Z" fill="#A63F32"/>
<path d="M206.421 115.021L205.162 111.889L212.459 101.244L216.802 96.9745L237.344 124.093L227.047 132.877L206.421 115.021Z" fill="#AEA69E"/>
<path d="M227.455 119.08L211.667 102.024L216.803 96.9737L236.093 121.161L224.712 130.855L222.556 128.555L227.455 119.08Z" fill="#7D7672"/>
<path d="M231.869 127.355L236.141 119.398L248.571 121.384L247.512 125.89L238.476 123.961L238.534 126.733L231.869 127.355Z" fill="#F7BEA7"/>
<path d="M230.882 128.309L237.019 120.995L251.594 126.976L250.762 132.332L240.501 128.669L238.538 129.738L230.882 128.309Z" fill="#F7BEA7"/>
<path d="M227.87 127.84L237.15 121.768L250.046 132.115L244.127 138.414L240.485 130.587L236.937 132.343L227.87 127.84Z" fill="#F7BEA7"/>
<path d="M223.344 129.171L232.816 121.387L243.012 136.973V140.308L237.9 140.575L234.612 132.946L233.033 128.818L227.092 134.196L223.344 129.171Z" fill="#F7BEA7"/>
<path d="M221.656 135.437L223.53 129.271L230.396 123.377L237.273 132.594L228.803 131.828L225.077 136.804L221.656 135.437Z" fill="#F7BEA7"/>
<path d="M7.30981 118.684L16.3654 86.9341L8.29107 118.903L7.30981 118.684Z" fill="#57342C"/>
<path d="M87.6971 98.2837L87.6128 98.3877L84.208 104.654L80.3906 101.027L82.9182 96.2082L82.7873 95.6718L87.6971 98.2837Z" fill="#E28B6B"/>
<path d="M88.3786 105.046L85.93 108.515L82.3763 101.989L77.6296 98.7223L79.8684 94.5712L84.5559 98.6111L88.3786 105.046Z" fill="#998468"/>
<path d="M87.7576 104L85.0435 106.887L85.9314 108.515L88.3783 105.046L87.7576 104Z" fill="#6B5A3F"/>
<path d="M38.2981 87.5867L35.679 95.121L35.5678 95.4421L35.4117 95.3973L29.0219 93.589L25.9651 88.0262L28.2559 76.5686L30.9862 86.6054L33.6627 86.9642L38.2981 87.5867Z" fill="#ABA39C"/>
<path d="M38.2981 87.5869L35.679 95.1212L35.4117 95.3975L29.0219 93.5892L25.9651 88.0264L30.1144 92.1685L33.8205 92.2797L33.6627 86.9644L38.2981 87.5869Z" fill="#948C87"/>
<path d="M83.9028 91.8438L87.1767 95.1177L86.5219 92.608L83.9028 91.8438Z" fill="#E28B6B"/>
<path d="M93.7223 83.4428L89.5767 89.4434L90.3409 90.0981L93.7223 83.4428Z" fill="#E28B6B"/>
<path d="M59.0243 84.6407L54.9917 88.7917L47.895 85.4067L49.2638 83.9267L53.4597 79.4043L50.9518 70.0223L58.4808 78.5325L59.0243 84.6407Z" fill="#ABA39C"/>
<path d="M57.2831 92.2805L34.698 100.136L33.8208 94.6826L37.4211 86.9329L37.4929 86.906L46.8086 83.9856L54.9331 87.0962L55.0964 87.1554L57.2831 92.2805Z" fill="#A16758"/>
<path d="M57.2831 92.2805L34.698 100.136L33.8208 94.6826L37.4211 86.9329L37.4929 86.906L39.3855 89.6615L49.2052 90.7557L53.132 89.9897L54.9331 87.0962L55.0964 87.1554L57.2831 92.2805Z" fill="#7A4C41"/>
<path d="M52.3733 97.8448L49.7542 98.6108L52.2621 106.899L49.9713 107.665L44.8443 100.464L40.826 101.851L40.6951 99.8091L47.3522 96.6465L55.5359 95.4428L56.5638 97.4914L52.3733 97.8448Z" fill="#E28B6B"/>
<path d="M45.6062 98.0629L50.0802 106.792L52.5898 105.918L50.2972 96.208L45.6062 98.0629Z" fill="#ABA39B"/>
<path d="M59.9012 96.2086L55.1743 96.4633L51.8233 96.6463L43.2072 99.5937L41.1335 100.528L34.4746 103.521L33.165 99.8089C33.3947 99.8879 37.1726 97.5433 39.4042 96.1368C40.3532 95.5413 41.0223 95.1161 41.0223 95.1161C41.0223 95.1161 49.7549 91.6252 50.1873 91.6252C50.3756 91.6252 52.209 91.5857 54.2002 91.5409C56.7529 91.4745 59.5747 91.4099 59.5747 91.4099L59.9012 96.2086Z" fill="#ABA39B"/>
<path d="M47.8433 111.51L51.0346 110.61L53.8994 109.465L56.9257 107.419L55.6987 111.347L51.9351 113.146L47.8433 111.51Z" fill="white"/>
<path d="M45.5591 104.854C45.8354 105.715 45.6416 106.546 45.1268 106.713C44.6102 106.88 43.9661 106.316 43.6899 105.457C43.4118 104.596 43.6074 103.764 44.1222 103.597C44.6389 103.432 45.2829 103.993 45.5591 104.854Z" fill="#2B2523"/>
<path d="M41.7872 103.628L45.8234 101.009L44.9516 99.5914L41.6777 102.537L41.7872 103.628Z" fill="#B58061"/>
<path d="M55.6094 101.732C55.848 102.603 55.6166 103.427 55.0946 103.569C54.5708 103.712 53.9537 103.122 53.7151 102.25C53.4765 101.378 53.7079 100.555 54.2299 100.413C54.7538 100.27 55.3709 100.86 55.6094 101.732Z" fill="#2B2523"/>
<path d="M41.1332 100.529L34.476 103.521L33.1665 99.8092C33.3943 99.8863 37.1723 97.5435 39.4057 96.1353C39.9743 97.5112 40.708 99.3374 41.1332 100.529Z" fill="#948C87"/>
<path d="M59.0243 84.6407L54.9917 88.7917L47.895 85.4067L49.2638 83.9267L54.6652 84.7519L57.06 82.8988L58.4808 78.5325L59.0243 84.6407Z" fill="#948C87"/>
<path d="M59.9014 96.2084L55.1745 96.4631L54.2004 91.5407C56.7531 91.4743 59.5749 91.4097 59.5749 91.4097L59.9014 96.2084Z" fill="#948C87"/>
<path d="M51.3887 97.4085L52.0434 98.9351L56.3524 98.6086L56.1353 97.7349L51.3887 97.4085Z" fill="#B58061"/>
<path d="M297.463 35.2617L295.694 42.3368L296.166 50.2389L294.042 56.017L295.929 64.8627L295.694 70.4041L283.193 69.4605L275.292 67.4567L278.24 54.6017L275.999 50.7107L282.486 36.0869L289.089 35.0267L297.463 35.2617Z" fill="#A63F32"/>
<path d="M277.059 66.1591L278.361 67.2283L279.068 67.8077L280.695 67.9279L285.316 68.2813V69.9299L284.807 74.8416L284.61 76.7736L283.427 78.5424L283.194 80.4313L284.446 81.4915L285.55 82.4333L287.318 85.8507L289.796 86.3243L292.158 86.6794L289.209 79.129L289.548 77.466L292.513 63.0951L291.331 61.4394L284.134 58.7288L278.962 64.1571L277.845 65.3303L277.251 65.9618L277.059 66.1591Z" fill="#473C39"/>
<path d="M271.752 77.7142L272.934 79.6031L274.115 80.4319L275.765 83.3757L280.363 83.9695L277.654 77.2478L278.375 75.0251L280.697 67.9285L281.658 64.9776L277.25 65.9606L274.23 66.6333L273.982 72.2948L273.874 74.6502L272.346 76.1858L271.752 77.7142Z" fill="#2B2523"/>
<path d="M264.563 47.6418L266.63 56.7763L266.791 57.5064L267.041 58.6096L274.582 59.3164L280.131 56.1322L280.258 54.7169L281.071 45.873L274.349 35.1455L269.396 36.0873L265.491 38.301L265.03 38.5629L264.876 41.6053L264.563 47.6418Z" fill="#7A4C41"/>
<path d="M277.71 64.8287L277.845 65.331L278.361 67.2272L279.068 67.8084L285.316 68.282V69.9306L284.609 76.7725L283.427 78.5412L283.194 80.4302L284.446 81.4922L286.109 76.8568L289.031 67.6595L282.663 62.1827L278.962 64.156L277.71 64.8287Z" fill="#2B2523"/>
<path d="M287.914 67.4542L290.999 75.5357L291.564 77.0067L296.051 84.324L312.558 65.6854L309.198 46.1428L308.788 43.7497L303.241 49.5314L304.895 54.131L303.241 58.9637L303.714 62.3883L287.914 67.4542Z" fill="#DDD3C9"/>
<path d="M290.999 75.535L291.566 77.006L296.05 84.3232L312.56 65.6847L296.519 78.5415L301.712 70.2842L290.999 75.535Z" fill="#BCB3AB"/>
<path d="M294.161 75.2399L290.896 66.4983L292.762 65.8991L296.402 74.5314L300.42 79.391L299.197 80.7705L294.161 75.2399Z" fill="#E9AC5A"/>
<path d="M283.194 80.4311L284.446 81.4931L285.552 82.4331L287.32 85.8504L289.796 86.3258L292.16 86.6792L291.771 85.6818L289.209 79.1287L289.548 77.4658L286.28 75.6557L284.807 74.8413L284.61 76.7733L283.428 78.5421L283.194 80.4311Z" fill="#F4BBA4"/>
<path d="M283.194 80.4311L284.446 81.4931L285.552 82.4331L287.32 85.8504L289.796 86.3258L292.16 86.6792L291.771 85.6818L288.325 84.7328L287.616 81.3729L285.586 78.8955L286.28 75.6557L284.807 74.8413L284.61 76.7733L283.428 78.5421L283.194 80.4311Z" fill="#E28B6B"/>
<path d="M271.752 77.7142L272.934 79.6031L274.115 80.4319L275.765 83.3757L280.363 83.9695L279.988 83.042L277.654 77.2478L278.375 75.0251L276.032 73.5685L273.982 72.2948L273.874 74.6502L272.346 76.1858L271.752 77.7142Z" fill="#F4BBA4"/>
<path d="M271.752 77.7142L272.934 79.6031L274.115 80.4319L275.765 83.3757L280.363 83.9695L279.988 83.042L277.179 82.703L276.294 80.0427L274.619 77.8344L275.496 75.888L276.032 73.5685L273.982 72.2948L273.874 74.6502L272.346 76.1858L271.752 77.7142Z" fill="#E28B6B"/>
<path d="M300.42 79.3905L299.198 80.77L296.895 78.2406L298.443 76.9993L300.42 79.3905Z" fill="#DA9C49"/>
<path d="M293.765 74.179L295.826 73.1691L296.402 74.5324L297.9 76.3442L296.784 78.1184L294.162 75.2392L293.765 74.179Z" fill="#DA9C49"/>
<path d="M300.056 22.1686L297.463 35.2622L291.567 37.7378L289.09 35.0254L289.917 30.4259L300.056 22.1686Z" fill="#E28B6B"/>
<path d="M259.724 22.6428L260.786 27.1222L266.799 32.9021L269.983 32.0751L273.72 27.646L273.763 27.5958L273.784 27.4971L275.411 18.5169L278.007 16.7481L273.522 14.8591L275.058 12.2634L267.748 13.677L267.628 9.78601L261.733 15.9211L261.699 16.2243L261.259 19.6919L259.724 22.6428Z" fill="#CB5849"/>
<path d="M259.724 22.6428L260.786 27.1222L266.799 32.9021L269.983 32.0751L273.72 27.646L273.784 27.4971L275.411 18.5169L278.007 16.7481L268.865 20.0812L270.634 15.652L264.621 19.8121V15.3901L262.675 19.1053L261.699 16.2243L261.259 19.6919L259.724 22.6428Z" fill="#A63F32"/>
<path d="M266.799 32.903L267.039 36.7939L274.349 35.7338L274.229 32.4294L275.885 31.7208L277.257 29.7691L278.029 28.6712L278.12 28.5367L277.413 21.5817L275.41 18.5178L272.346 20.3996L272.814 25.3525L269.63 22.7639L268.101 25.3525L270.812 28.4236L269.983 32.0742L266.799 32.903Z" fill="#F4BBA4"/>
<path d="M266.799 32.903L267.039 36.7939L274.349 35.7338L274.229 32.4294L272.05 30.8651L270.812 28.4236L269.983 32.0742L266.799 32.903Z" fill="#E28B6B"/>
<path d="M285.197 19.3385L286.499 26.5356L289.916 30.4265L296.051 28.5375L300.055 22.1692L296.773 14.7389L296.107 13.2321L295.859 12.6742L295.181 11.1314L293.807 8.01722H289.916L288.741 10.8336L288.126 12.3046L287.744 13.2321L287.114 14.7389L285.197 19.3385Z" fill="#F4BBA4"/>
<path d="M272.227 38.9172L273.167 42.6879L282.606 48.5898L290.743 48.1163L290.822 47.4005L291.452 41.6277L283.548 41.2726L274.349 35.1464L272.227 38.9172Z" fill="#DDD3C9"/>
<path d="M272.227 38.9172L273.167 42.6879L282.606 48.5898L290.743 48.1163L290.822 47.4005L282.841 46.7009L273.464 39.7101L274.349 35.1464L272.227 38.9172Z" fill="#BCB3AB"/>
<path d="M266.629 56.7767L267.04 58.6101L273.161 59.1824L274.582 59.3169L280.13 56.1327L280.258 54.7174L274.582 57.5481L272.82 57.3777L266.629 56.7767Z" fill="#E9AC5A"/>
<path d="M266.629 56.7768L267.04 58.6101L273.161 59.1824L272.82 57.3777L266.629 56.7768Z" fill="#CA8934"/>
<path d="M264.563 47.6419L266.63 56.7764L266.791 57.5065L271.787 58.199L277.887 56.8751L280.258 54.717L275.058 56.3387L272.665 55.9853L267.627 48.4707L267.358 40.9561L269.396 36.0875L265.505 38.2096L265.491 38.3011L264.876 41.6055L264.563 47.6419Z" fill="#57342C"/>
<path d="M279.069 67.808L283.315 71.699L283.731 71.6936L289.561 71.586L287.914 67.4546C287.878 67.4331 287.758 67.4187 287.566 67.4116C285.903 67.3344 279.069 67.808 279.069 67.808Z" fill="#F4BBA4"/>
<path d="M283.732 71.6926L289.562 71.5868L287.913 67.4537C287.877 67.4321 287.757 67.4196 287.567 67.4124L287.206 69.6978L283.732 71.6926Z" fill="#E28B6B"/>
<path d="M280.13 56.1328L285.316 58.612L282.604 64.9803L274.704 69.4614L267.98 66.7491L267.04 58.6102L274.582 59.317L280.13 56.1328Z" fill="#7A4C41"/>
<path d="M276.737 63.0639L282.684 64.795L282.605 64.9798L279.051 66.9961L275.499 64.8327L276.708 68.3236L274.703 69.4609L267.981 66.7486L267.039 58.6097L274.583 59.3165L280.129 56.1323L276.384 59.5264L276.737 63.0639Z" fill="#57342C"/>
<path d="M304.895 54.1304L303.24 58.9632L303.713 62.3877L308.901 61.6809L305.604 61.2055L306.19 50.0045L309.197 46.1422L308.786 43.751L303.24 49.5309L304.895 54.1304Z" fill="#BCB3AB"/>
<path d="M261.733 42.6888L263.615 48.2355L264.797 48.3503L266.446 40.5666L269.397 36.0873L263.149 36.9143L261.733 42.6888Z" fill="#F4BBA4"/>
<path d="M261.733 42.6888L263.615 48.2355L264.797 48.3503L266.446 40.5666L269.397 36.0873L265.682 40.3334L264.09 44.4002L261.733 42.6888Z" fill="#E28B6B"/>
<path d="M290.857 47.0547L292.619 45.781L294.281 44.5773L294.394 38.3292L291.451 41.6282L290.857 47.0547Z" fill="#F4BBA4"/>
<path d="M290.857 47.0547L292.619 45.781L291.451 41.6282L290.857 47.0547Z" fill="#E28B6B"/>
<path d="M275.248 28.0419L277.257 29.7676L278.028 28.6715C276.947 28.7146 275.433 28.1118 275.248 28.0419Z" fill="white"/>
<path d="M270.457 23.9697L271.961 26.0039L272.05 27.7727L270.369 26.0918L270.635 24.9419L270.457 23.9697Z" fill="#E28B6B"/>
<path d="M294.114 25.6316L290.058 24.5767L288.892 25.3194L290.501 26.6846L294.114 25.6316Z" fill="#CB5849"/>
<path d="M275.504 24.0377C275.588 24.6925 275.891 25.1912 276.182 25.1535C276.474 25.1158 276.641 24.5562 276.557 23.9014C276.472 23.2484 276.167 22.7479 275.877 22.7856C275.586 22.8233 275.419 23.3829 275.504 24.0377Z" fill="#2B2523"/>
<path d="M293.011 22.9969L290.005 22.378L290.8 23.4399L293.011 22.9969Z" fill="#E28B6B"/>
<path d="M276.649 21.5814L273.996 22.9968L275.852 20.6971L276.649 21.5814Z" fill="#CB5849"/>
<path d="M294.159 19.0718C294.141 19.9024 294.442 20.5822 294.832 20.5912C295.223 20.6002 295.555 19.9347 295.574 19.1041C295.592 18.2735 295.291 17.5936 294.9 17.5847C294.511 17.5757 294.179 18.2412 294.159 19.0718Z" fill="#2B2523"/>
<path d="M287.884 18.7525C287.866 19.583 288.168 20.2629 288.557 20.2719C288.948 20.2809 289.28 19.6153 289.3 18.7847C289.318 17.9542 289.016 17.2743 288.625 17.2653C288.236 17.2564 287.904 17.9219 287.884 18.7525Z" fill="#2B2523"/>
<path d="M296.992 16.9822L292.482 16.4512L292.658 15.3013L296.992 16.9822Z" fill="#DDA27F"/>
<path d="M289.827 15.3905L289.739 16.3628L286.643 16.718L289.827 15.3905Z" fill="#DDA27F"/>
<path d="M287.744 13.2322H296.107L295.859 12.6725L295.181 11.1297L288.741 10.8337L288.126 12.3047L287.744 13.2322Z" fill="#7F6E54"/>
</svg>
