<svg width="148" height="168" viewBox="0 0 148 168" fill="none" xmlns="http://www.w3.org/2000/svg">
<g id="vikingfest-symbol-armor 1" clip-path="url(#clip0_551_1479)">
<g id="c">
<path id="Vector" d="M30.0145 9.19842L9.18311 30.0298L30.0145 50.8611L50.8458 30.0298L30.0145 9.19842Z" stroke="currentColor" stroke-width="13" stroke-miterlimit="10"/>
<path id="Vector_2" d="M59.0972 9.19598L38.2659 30.0273L59.0972 50.8587L79.9286 30.0273L59.0972 9.19598Z" stroke="currentColor" stroke-width="13" stroke-miterlimit="10"/>
<path id="Vector_3" d="M88.18 9.19304L67.3486 30.0244L88.18 50.8558L109.011 30.0244L88.18 9.19304Z" stroke="currentColor" stroke-width="13" stroke-miterlimit="10"/>
<path id="Vector_4" d="M117.253 9.1906L96.4211 30.022L117.253 50.8533L138.084 30.022L117.253 9.1906Z" stroke="currentColor" stroke-width="13" stroke-miterlimit="10"/>
<path id="Vector_5" d="M30.0135 63.0773L9.18213 83.9087L30.0135 104.74L50.8449 83.9087L30.0135 63.0773Z" stroke="currentColor" stroke-width="13" stroke-miterlimit="10"/>
<path id="Vector_6" d="M59.0963 63.0749L38.2649 83.9062L59.0963 104.738L79.9276 83.9062L59.0963 63.0749Z" stroke="currentColor" stroke-width="13" stroke-miterlimit="10"/>
<path id="Vector_7" d="M88.1788 63.072L67.3474 83.9033L88.1788 104.735L109.01 83.9033L88.1788 63.072Z" stroke="currentColor" stroke-width="13" stroke-miterlimit="10"/>
<path id="Vector_8" d="M117.262 63.0695L96.4302 83.9009L117.262 104.732L138.093 83.9009L117.262 63.0695Z" stroke="currentColor" stroke-width="13" stroke-miterlimit="10"/>
<path id="Vector_9" d="M30.0225 116.956L9.19116 137.788L30.0225 158.619L50.8539 137.788L30.0225 116.956Z" stroke="currentColor" stroke-width="13" stroke-miterlimit="10"/>
<path id="Vector_10" d="M59.095 116.954L38.2637 137.785L59.095 158.617L79.9264 137.785L59.095 116.954Z" stroke="currentColor" stroke-width="13" stroke-miterlimit="10"/>
<path id="Vector_11" d="M88.1778 116.951L67.3464 137.782L88.1778 158.614L109.009 137.782L88.1778 116.951Z" stroke="currentColor" stroke-width="13" stroke-miterlimit="10"/>
<path id="Vector_12" d="M117.26 116.948L96.429 137.78L117.26 158.611L138.092 137.78L117.26 116.948Z" stroke="currentColor" stroke-width="13" stroke-miterlimit="10"/>
</g>
</g>
<defs>
<clipPath id="clip0_551_1479">
<rect width="147.29" height="167.81" fill="white"/>
</clipPath>
</defs>
</svg>
