<svg width="164" height="163" viewBox="0 0 164 163" fill="none" xmlns="http://www.w3.org/2000/svg">
<g clip-path="url(#clip0_4_44)">
<path d="M136.12 50.11C127.43 50.38 118.55 50.25 109.9 49.96C110.34 41.53 110.41 32.75 110.45 24.32C125.22 17.71 142.42 9.84 156.99 2.84L151.27 16.16C146.44 27.5 141.32 38.86 136.1 50.11H136.12ZM129.05 39.2C132.98 29.96 137.02 20.86 141.34 11.71L148.54 18.91C139.58 22.68 126.72 28.38 117.7 32.38L120.75 27.67L120.78 31.92C120.81 36.17 120.89 40.42 121.05 44.66L115.59 39.2C120.15 38.99 124.56 39.02 129.04 39.2H129.05Z" fill="currentColor"/>
<path d="M115.6 44.66L25.25 136.52" stroke="currentColor" stroke-width="8" stroke-miterlimit="10"/>
<path d="M29.24 153.64L26.58 135.31L8.23 132.63L40.55 98.7L59.43 101.91L61.56 119.71L29.24 153.64Z" stroke="currentColor" stroke-width="8" stroke-miterlimit="10"/>
<path d="M24.67 0C27.49 3 33.08 8.9 35.92 11.86L33.55 10.39C39.28 12.46 45.01 14.52 50.77 16.5L68.02 22.52L69.32 22.97L70.15 23.83C92.94 47.26 116.1 70.32 139.59 93.05L140.49 93.92L140.95 95.24C143.88 103.83 149.94 121.18 152.93 129.76L151.46 127.39L157.37 133.03L163.32 138.64L154.13 147.83C150.79 144.25 145.17 138.37 141.81 134.85L141.41 133.6L135.88 116.19L130.29 98.8L131.65 100.99C108.92 77.5 85.86 54.34 62.43 31.55L64.56 32.87C54.38 29.7 39.8 24.92 29.7 21.9L28.46 21.52L27.32 20.43C24.41 17.63 18.41 11.95 15.46 9.18C15.47 9.19 24.67 0 24.67 0Z" fill="currentColor"/>
<path d="M18.86 5.57001C62.74 50.67 112.64 100.61 157.76 144.47L153.16 149.07C121.9 116.79 81.41 76.3 49.35 44.54C40.67 35.95 23.03 18.68 14.26 10.18L18.86 5.58001V5.57001Z" fill="currentColor"/>
</g>
<defs>
<clipPath id="clip0_4_44">
<rect width="163.32" height="162.35" fill="white"/>
</clipPath>
</defs>
</svg>
