<svg width="55" height="54" viewBox="0 0 55 54" fill="none" xmlns="http://www.w3.org/2000/svg">
<g clip-path="url(#clip0_18_177)">
<path d="M40.78 53.69H28.87L24.45 51.75L13.23 52.74L4.3 49.37L-0.0100002 44.31V35.03L2.06 30.48L0.96 27.58L4.81 17.41L9.24 12.73L4.76 6.16L13.52 0L18.07 3.01L22.46 0.11L30.51 4.36V9.55L28.03 12.45L30.49 14.61L32.18 13.12L36.21 14.3L41.49 13.14L46.8 19.37L44.86 22.78L46.61 23.8L51.81 29.52L53.01 36.91L54.2 40.06V48.46L49.52 52.58L40.79 53.68L40.78 53.69ZM29.83 49.14H40.49L47.55 48.25L49.64 46.41V40.91L48.58 38.11L47.52 31.6L43.69 27.39L38.67 24.44L41.25 19.9L39.79 18.18L36.04 19L33.3 18.2L30.48 20.68L21.65 12.91L25.94 7.87V7.1L22.7 5.39L18.06 8.45L13.59 5.5L11.05 7.29L13.01 10.16L15.7 12.52L8.75 19.86L5.83 27.56L6.99 30.62L4.55 36V42.61L7.01 45.5L13.87 48.09L25.22 47.09L29.83 49.12V49.14Z" fill="currentColor"/>
<path d="M27.31 52.8301L22.84 47.2401V33.1001L25.25 27.0701L29.48 24.2501L26.48 21.2401L27.92 16.9301L32.24 18.3701L31.69 20.0101L36.63 24.9501L28.95 30.0701L27.39 33.9801V45.6501L30.87 49.9901L27.31 52.8301Z" fill="currentColor"/>
<path d="M11.34 28.7601L9.1 28.3901L10.14 22.1201L15.3 15.9301L17.05 17.3901L12.29 23.1101L11.34 28.7601Z" fill="currentColor"/>
<path d="M22.4018 16.2112L20.3062 17.1094L23.2844 24.058L25.38 23.1599L22.4018 16.2112Z" fill="currentColor"/>
<path d="M32.9497 29.293L30.9642 37.2386L33.1762 37.7914L35.1617 29.8457L32.9497 29.293Z" fill="currentColor"/>
<path d="M45.12 37.51H42.84V33.85L40.03 29.16L41.98 27.99L45.12 33.22V37.51Z" fill="currentColor"/>
</g>
<defs>
<clipPath id="clip0_18_177">
<rect width="54.2" height="53.69" fill="white"/>
</clipPath>
</defs>
</svg>
