<svg width="73" height="61" viewBox="0 0 73 61" fill="none" xmlns="http://www.w3.org/2000/svg">
<g clip-path="url(#clip0_18_141)">
<path d="M26.32 37.69C23.36 39.68 20.52 41.84 17.73 44.06L17.44 44.16L14.02 45.35L10.61 46.57L11.83 44.79C11.99 48.15 12.17 51.8 12.42 55.15L12.31 54.56C12.84 55.91 13.36 57.26 13.92 58.6L9.60999 60.07C9.20999 58.54 8.75999 57.03 8.31999 55.51C8.31999 52.94 8.28999 50.1 8.23999 47.51C8.21999 46.63 8.16999 44.42 8.14999 43.57C10.42 42.78 13.96 41.55 16.23 40.73L15.69 41.03C18.35 38.82 20.98 36.56 23.46 34.15L26.32 37.69Z" fill="currentColor"/>
<path d="M27.42 43.12C25.84 42.48 24.2 42.05 22.54 41.68L24.7 40.16C24.39 42.14 23.99 45.03 23.72 47.05C23.46 49.08 23.09 51.95 22.88 53.96L22.73 52.88C23.39 54.22 24.06 55.55 24.78 56.86L20.61 58.68C20.08 57.06 19.47 55.45 18.86 53.86L18.95 53.39C19.74 48.97 20.49 44.09 21.1 39.64L21.37 37.74C23.62 38.21 26.01 38.64 28.31 38.66L27.42 43.13V43.12Z" fill="currentColor"/>
<path d="M46.87 42.99C44.48 41.79 42.05 40.69 39.61 39.61L40.7 39.71C39.51 39.91 38.31 40.12 37.13 40.35C33.56 41.05 30.01 41.84 26.55 42.95L25.65 38.49C26.86 38.39 28.07 38.24 29.27 38.07C33.03 37.52 36.76 36.77 40.46 35.88C41.9 36.43 43.35 36.97 44.8 37.48C46.06 37.92 47.32 38.36 48.6 38.76L46.88 42.98L46.87 42.99Z" fill="currentColor"/>
<path d="M64.63 17.4C63.32 18.57 62.02 19.75 60.74 20.94L61.36 19.3C61.54 23.38 61.77 27.47 62.05 31.55C60.01 33.64 58.01 35.77 56 37.88L56.49 36.68L56.38 41.57C56.3 46.31 56.24 51.53 56.29 56.25L56.07 55.26C56.58 56.19 57.11 57.11 57.65 58.02L53.58 60.06C53.17 59.08 52.75 58.11 52.32 57.14L52.07 56.59L52.1 56.15C52.38 51.45 52.58 46.22 52.74 41.49C52.75 41.07 52.89 36.15 52.9 35.91L53.37 35.4C55.18 33.46 57 31.53 58.8 29.58L58.3 30.99C58.14 29.09 57.97 27.2 57.79 25.3C57.58 23.11 57.36 20.91 57.13 18.72L57.84 17.98C59.06 16.72 60.26 15.44 61.46 14.15L64.65 17.4H64.63Z" fill="currentColor"/>
<path d="M49.01 39.84C48.58 44.89 48.68 50.02 49.01 55.07L48.93 54.55C49.44 56 49.98 57.44 50.59 58.85L46.23 60.17C45.93 58.54 45.55 56.94 45.13 55.34C45.21 52.74 45.17 50.14 45.08 47.54C44.97 45.07 44.81 42.38 44.46 39.94L49.01 39.84Z" fill="currentColor"/>
<path d="M64.46 2.80002C66.83 6.64002 69.4 10.34 72.03 13.99L72.94 15.26C71.78 16.39 70.47 17.71 69.34 18.86C67.73 18.86 66.07 18.92 64.47 19.02C63.01 18.73 61.55 18.46 60.08 18.25L61.18 13.83C62.47 14.3 63.77 14.71 65.08 15.11L64.6 15.05C65.9 15.13 67.27 15.18 68.57 15.2L67.28 15.73L68.28 14.75C68.62 14.42 68.94 14.09 69.27 13.75L69.09 16.1C67.76 14.28 66.41 12.48 65.02 10.71C63.64 8.93002 62.23 7.17002 60.77 5.45002L64.45 2.77002L64.46 2.80002Z" fill="currentColor"/>
<path d="M64.61 6.42C61.3 6.31 57.99 6.22 54.68 6.16L55.96 5.7C52.92 8.04999 47.41 12.46 44.44 14.88C40.36 15.03 34.88 15.22 30.85 15.42L17.87 15.99L19.07 15.49C14.78 19.5 8.72 25.32 4.39 29.41L4.22 26.39C5.42 27.26 7.06 28.45 8.24 29.3L8.83 29.72L9.01 30.52C10.07 35.14 11.11 39.76 12.2 44.38L7.75 45.33C6.85 40.68 5.91 36.03 4.98 31.38L5.76 32.6C3.97 31.21 1.78 29.5 -0.0200043 28.11C5.02 23.44 11.52 17.42 16.5 12.77L17.01 12.29L17.7 12.26C25.21 11.99 36.25 11.59 43.66 11.25L42.57 11.66L48 7.16C48.05 7.12 53.99 2.06 53.9 2.14C55.8 2.13 57.72 2.07 59.62 2.02C61.27 1.98 62.93 1.94 64.58 1.87V6.42H64.61Z" fill="currentColor"/>
<path d="M53.4761 34.6972L46.5411 38.9403L48.9158 42.8215L55.8507 38.5784L53.4761 34.6972Z" fill="currentColor"/>
<path d="M48.9753 0.000635135L47.5361 4.31702L53.4936 6.30345L54.9329 1.98707L48.9753 0.000635135Z" fill="currentColor"/>
</g>
<defs>
<clipPath id="clip0_18_141">
<rect width="72.95" height="60.17" fill="white"/>
</clipPath>
</defs>
</svg>
