<svg width="52" height="52" viewBox="0 0 52 52" fill="none" xmlns="http://www.w3.org/2000/svg">
<g clip-path="url(#clip0_18_169)">
<path d="M29.66 30.18H22.99L17.84 26.98L13.05 21.03L6.69 0H44.68L40.74 16.3L36.09 25.92L29.66 30.18ZM24.29 25.63H28.29L32.54 22.82L36.43 14.77L38.9 4.56H12.83L17.15 18.87L20.9 23.52L24.29 25.62V25.63Z" fill="currentColor"/>
<path d="M38.07 51.53H13.48L15.21 41.18L23.5 38.07V27.9H28.05V38.07L36.34 41.18L38.07 51.53ZM18.85 46.98H32.69L32.28 44.52L25.77 42.08L19.26 44.52L18.85 46.98Z" fill="currentColor"/>
<path d="M43.75 25.17L35.19 23.95L35.58 21.18L41.97 22.09L46.98 9.55998L39.96 11.12L39.35 8.37998L51.55 5.66998L43.75 25.17Z" fill="currentColor"/>
<path d="M7.8 25.17L0 5.66998L12.2 8.37998L11.59 11.12L4.57 9.55998L9.58 22.09L15.97 21.18L16.36 23.95L7.8 25.17Z" fill="currentColor"/>
<path d="M30.1 19.24L26.35 17.27L22.6 19.24L23.32 15.06L20.28 12.1L24.48 11.49L26.36 7.69L28.24 11.49L32.44 12.1L29.4 15.06L30.12 19.24H30.1ZM26.29 14.06L26.32 14.09V14.13L26.35 14.11L26.38 14.13V14.09L26.4 14.06H26.36L26.34 14.02L26.32 14.05H26.28L26.29 14.06Z" fill="currentColor"/>
</g>
<defs>
<clipPath id="clip0_18_169">
<rect width="51.55" height="51.53" fill="white"/>
</clipPath>
</defs>
</svg>
