<svg width="64" height="57" viewBox="0 0 64 57" fill="none" xmlns="http://www.w3.org/2000/svg">
<g clip-path="url(#clip0_472_78)">
<path d="M12.5356 4.82115C12.5272 5.00529 12.4268 13.1549 12.424 13.0321L12.0445 13.4227L7.54147 18.0346L7.84558 16.994L12.4575 46.1189L10.3064 46.4704L5.36805 17.3957L5.27319 16.8377C5.32062 16.7791 9.6005 11.6009 9.77627 11.3832L9.38567 12.4379L8.90857 4.90764L12.5356 4.81836V4.82115Z" fill="currentColor"/>
<path d="M21.4412 23.6619L23.7764 15.5346L24.0778 17.2505L19.3264 11.1766L18.8521 10.5712L18.9637 9.85138C19.3989 7.04742 19.823 4.24067 20.2415 1.43113L21.882 3.32276C17.7333 3.29765 9.38838 3.23627 5.24243 3.23069L6.79088 1.44508L7.96547 9.87928L8.05754 10.5433L7.64462 11.0567C6.43655 12.5549 4.01482 15.5653 2.82349 17.0747L3.13597 15.8471C5.11409 26.7839 7.427 38.3513 9.25446 49.3105L7.6502 47.9713C11.7599 48.0047 16.2741 48.1108 20.3587 48.2558C21.7704 48.3144 23.1822 48.3591 24.5939 48.4372V50.7669C18.5815 51.0765 12.3374 51.1686 6.30542 51.2495C4.08736 39.8775 2.15947 27.8051 0.12276 16.3912L0 15.702L0.432451 15.1636C1.6461 13.6737 4.05388 10.6437 5.24801 9.13993L4.92715 10.3145L3.69118 1.8887L3.43171 0.108671C9.27399 0.0919306 17.9398 0.0417104 23.782 -0.00292969L23.5226 1.90265C23.1375 4.71497 22.7581 7.5273 22.3926 10.3424L22.0299 9.01717C22.4093 9.47194 27.3867 15.5737 27.5709 15.7941L27.2109 16.7036L24.1085 24.5687L21.4412 23.6619Z" fill="currentColor"/>
<path d="M60.3757 33.8596C58.3697 29.7611 54.4107 21.472 52.4605 17.3483L53.4091 18.1798L39.2833 13.434L40.5611 13.2833C37.9189 14.8959 35.2796 16.5169 32.6458 18.1463L24.7389 23.0232L25.3109 22.3648L19.5244 35.4248V34.267L25.841 48.6355L25.0542 47.8655C29.309 49.5646 35.2294 52.0756 39.4255 53.7412L38.41 53.691L54.7566 48.6522L53.7327 49.5701C55.6439 45.0029 58.3781 38.4631 60.3785 33.8624L60.3757 33.8596ZM64.0027 33.7731C61.8377 38.7923 58.9082 45.9208 56.718 50.834L56.4111 51.5399L55.6941 51.7519L39.2888 56.5898L38.7615 56.746L38.2733 56.5396C33.8957 54.7289 27.8191 52.1732 23.383 50.3513L23.1486 49.8101L16.8934 35.4164L16.6423 34.8389L16.8962 34.2614L22.6241 21.1762L22.8055 20.7605L23.1961 20.5178L31.0834 15.613C33.9125 13.858 36.7388 12.0948 39.5539 10.3203L40.2402 10.5407L54.4246 15.1135L55.0691 15.32C57.3988 20.063 61.7344 28.9994 64.0083 33.7731H64.0027Z" fill="currentColor"/>
<path d="M26.1814 34.063C27.1886 36.7108 29.1444 42.0676 30.0958 44.7348L29.1806 43.8002L40.3993 48.3339L39.2191 48.3618C41.2223 47.483 43.2228 46.5874 45.2204 45.6918L51.2161 43.0106L50.4266 43.8755L54.7399 31.3484L54.818 32.4671L49.81 22.6937L50.7725 23.4554C47.405 22.6686 42.7066 21.4717 39.3837 20.7101L40.3993 20.604L30.4892 25.4782L31.2173 24.789C29.5768 27.9278 27.8861 30.9968 26.1842 34.063H26.1814ZM22.5627 33.8036C24.5548 30.0901 26.5552 26.3877 28.6199 22.7495L29.0774 22.5347L39.088 17.867L39.593 17.6299L40.1035 17.761C43.3929 18.5757 48.1304 19.7782 51.4728 20.5901L52.134 20.7547L52.4354 21.3545L57.3848 31.1586L57.6583 31.7027L57.463 32.2774L53.211 44.8241L53.0073 45.4239C49.2436 47.1119 44.1769 49.4304 40.4662 51.1239L39.8943 51.389L39.2833 51.1518L27.9977 46.7855L27.342 46.5316L27.0826 45.8508C25.9359 42.8543 23.6592 36.814 22.5627 33.8008V33.8036Z" fill="currentColor"/>
</g>
<defs>
<clipPath id="clip0_472_78">
<rect width="64" height="56.7488" fill="white"/>
</clipPath>
</defs>
</svg>
