<svg width="62" height="64" viewBox="0 0 62 64" fill="none" xmlns="http://www.w3.org/2000/svg">
<g clip-path="url(#clip0_14_54)">
<path d="M29.02 39.55L19.19 39.04L8.09 35.84L4.57 27.04L11.13 24.39L17.02 22.06L29.72 21.44L43.63 22.17L54.16 25.51L57.8 33.08L53.13 36.92L41.33 38.96L29 39.56L29.02 39.55ZM19.95 34.52L29.02 34.99L40.98 34.4L51.18 32.62L52.16 31.81L50.92 29.23L42.81 26.66L29.72 25.98L18 26.56L12.82 28.61L10.48 29.56L11.49 32.08L19.95 34.52Z" fill="currentColor"/>
<path d="M39.46 63.41L21.84 62.24L9.56 58.55L5.26 52.82V28.3H9.81V51.3L12.3 54.62L22.65 57.73L38.97 58.82L46.31 56.72L51.72 54.02L52.72 32.34L57.27 32.55L56.14 56.9L47.97 60.98L39.46 63.41Z" fill="currentColor"/>
<path d="M45.91 61.43L40.17 41.91L32.38 60.83L25.64 42.86L18.86 60.94L8.73 34.36L10.86 33.55L18.84 54.5L25.64 36.37L32.48 54.61L40.53 35.06L46.1 54L52.85 34.71L55 35.46L45.91 61.43Z" fill="currentColor"/>
<path d="M1.49 25.77L0 24.04L20.15 6.71L19.38 5.88L22.11 0H26.83L28.33 4.83L25.44 7.94H22.21L1.49 25.77ZM22.28 5.66H24.44L25.76 4.24L25.15 2.28H23.56L22.08 5.45L22.27 5.66H22.28Z" fill="currentColor"/>
<path d="M59.98 25.77L39.25 7.94H36.02L33.13 4.83L34.63 0H39.35L42.08 5.88L41.31 6.71L61.46 24.04L59.97 25.77H59.98ZM37.01 5.66H39.17L39.36 5.45L37.88 2.28H36.29L35.68 4.24L37 5.66H37.01Z" fill="currentColor"/>
</g>
<defs>
<clipPath id="clip0_14_54">
<rect width="61.46" height="63.41" fill="white"/>
</clipPath>
</defs>
</svg>
