<svg width="57" height="57" viewBox="0 0 57 57" fill="none" xmlns="http://www.w3.org/2000/svg">
<g clip-path="url(#clip0_18_153)">
<path d="M51.68 50.29H3.44V37.79H6.88L9.53 26.32L14.15 18.23L21.31 16.44V12.96H33.81V16.39L41.95 18.2L46.59 26.32L49.24 37.79H51.69V50.29H51.68ZM7.99 45.74H47.13V42.35H45.61L42.3 28L38.99 22.21L29.25 20.05V17.52H25.86V20L17.13 22.18L13.81 28L10.5 42.35H7.99V45.74Z" fill="currentColor"/>
<path d="M29.83 13.26H25.28V56.95H29.83V13.26Z" fill="currentColor"/>
<path d="M47.42 37.79H8.69V42.34H47.42V37.79Z" fill="currentColor"/>
<path d="M12.08 43.05H9.28V48.01H12.08V43.05Z" fill="currentColor"/>
<path d="M18.04 43.05H15.24V48.01H18.04V43.05Z" fill="currentColor"/>
<path d="M23.99 43.05H21.19V48.01H23.99V43.05Z" fill="currentColor"/>
<path d="M33.92 43.05H31.12V48.01H33.92V43.05Z" fill="currentColor"/>
<path d="M39.88 43.05H37.08V48.01H39.88V43.05Z" fill="currentColor"/>
<path d="M45.84 43.05H43.04V48.01H45.84V43.05Z" fill="currentColor"/>
<path d="M9.64 28.1L0 17.39L10.7 0L12.03 14.61L16.64 19.22L14.65 21.2L9.33 15.88L8.67 8.64L3.49 17.07L11.72 26.22L9.64 28.1Z" fill="currentColor"/>
<path d="M46.48 28.1L44.39 26.22L52.63 17.07L47.44 8.64L46.78 15.88L41.46 21.2L39.48 19.22L44.08 14.61L45.41 0L56.11 17.39L46.48 28.1Z" fill="currentColor"/>
<path d="M19.03 39.2L16.23 38.95L17.26 27.71L20.4 22.47L22.8 23.91L19.99 28.6L19.03 39.2Z" fill="currentColor"/>
<path d="M36.09 39.2L35.13 28.6L32.32 23.91L34.72 22.47L37.86 27.71L38.89 38.95L36.09 39.2Z" fill="currentColor"/>
</g>
<defs>
<clipPath id="clip0_18_153">
<rect width="56.11" height="56.95" fill="white"/>
</clipPath>
</defs>
</svg>
