<svg width="206" height="204" viewBox="0 0 206 204" fill="none" xmlns="http://www.w3.org/2000/svg">
<g clip-path="url(#clip0_4_19)">
<path d="M70.06 98.08C60.89 115.7 52.25 133.6 43.84 151.6C37.74 152.9 27.67 155.09 21.57 156.48L25.66 151.21C26.19 163.05 26.81 175.95 27.58 187.74L27.33 186.25C28.83 190.58 30.33 194.92 31.94 199.22L19.5 203C18.45 198.53 17.29 194.09 16.13 189.65L15.88 188.71V188.15C15.84 182.05 15.77 175.96 15.66 169.86C15.55 163.34 15.29 153.7 15.13 147.2C21.93 145.75 32.28 143.53 39.09 141.98L35.48 144.87C41.4 131.91 47.19 118.89 52.77 105.78C54.64 101.41 56.46 97.02 58.25 92.62L70.05 98.08H70.06Z" fill="currentColor"/>
<path d="M88.11 120.14C86.1 129.42 84.49 138.79 82.93 148.16L80.67 149.29C77.7 150.81 74.74 152.35 71.82 153.95L74.43 150.25C73.92 153.29 73.37 156.33 72.9 159.38C71.54 167.88 69.95 178.38 68.88 186.87L68.57 183.9C70.45 188.2 72.38 192.48 74.44 196.7L62.32 201.41C60.99 196.9 59.52 192.44 58 188L57.42 186.31L57.69 185.02C58.76 179.8 60.17 172.15 61.13 166.82C62.26 160.46 63.57 152.4 64.57 146.08C68.21 144.08 71.87 141.95 75.43 139.82L72.7 143.78C73.7 135.3 74.63 126.81 75.23 118.28L88.1 120.12L88.11 120.14Z" fill="currentColor"/>
<path d="M147.82 114.77C136.06 119.17 124.44 123.9 112.84 128.69C94.02 125.81 75.11 123.39 56.07 122.5L57.72 109.61C75.92 113.45 94.37 115.83 112.85 117.76L110.02 118.16C120.96 113.19 131.88 108.16 142.66 102.83L147.83 114.76L147.82 114.77Z" fill="currentColor"/>
<path d="M176.92 66.09C173.18 69.87 169.47 73.67 165.79 77.51L167.32 73.11C167.82 86.01 168.47 98.9 169.23 111.78C164.09 117.73 157.32 125.73 152.18 131.8L153.39 128.59L153.08 144.24C152.85 159.39 152.67 176.12 152.81 191.19L152.29 188.62C153.76 191.6 155.28 194.56 156.82 197.5L144.95 202.8C143.61 199.21 142.22 195.61 140.78 192.05C141.62 176.61 142.21 159.54 142.67 144C142.69 142.91 143.09 127.15 143.11 126.54L144.28 125.15C148.87 119.69 155.31 111.98 159.78 106.55L158.55 110.31C158.1 104.24 157.6 98.17 157.09 92.1C156.51 85.25 155.9 78.39 155.23 71.55L156.99 69.51C160.46 65.48 163.9 61.43 167.3 57.35L176.92 66.1V66.09Z" fill="currentColor"/>
<path d="M135.4 119.45C133.07 142.07 132.24 165.07 132.06 187.79L131.87 186.16C132.6 188.48 133.36 190.79 134.14 193.1C134.93 195.4 135.74 197.7 136.62 199.98L124.07 203.38C123.22 198.24 122.15 193.14 120.97 188.07C121.75 176.47 122.2 164.86 122.5 153.24C122.72 142.15 122.84 130.06 122.4 119.01L135.39 119.46L135.4 119.45Z" fill="currentColor"/>
<path d="M-2.13645e-06 113.51C1.76 97.39 1.9 80.98 1.32 64.79C10.67 55.86 20.71 46.24 29.82 37.12L38.63 46.68C33.91 50.69 29.23 54.75 24.57 58.83C21.09 61.89 14.12 68.05 10.66 71.14L12.44 67.13C11.91 76.74 11.82 86.56 12.01 96.19C12.17 101.82 12.41 108.04 12.99 113.64L-0.0100021 113.52L-2.13645e-06 113.51Z" fill="currentColor"/>
<path d="M205.78 31.98C204.66 45.33 203.98 58.71 203.43 72.09C203.17 78.12 202.99 84.48 202.79 90.53C198.81 90.49 194.16 90.49 190.22 90.5C187.94 90.5 181.53 90.54 179.34 90.55C178.44 88.58 173.5 77.91 172.49 75.71L166.95 64.02L166.5 63.08L166.45 61.72C166.25 55.54 166 49.37 165.59 43.2H178.59C178.18 49.37 177.93 55.54 177.73 61.72L177.24 59.41C179.72 65.36 184.82 77.3 187.41 83.2L182.66 80.12L190.21 80.16C192.73 80.18 195.25 80.16 197.76 80.16L192.58 85.19C192.81 76.27 192.96 67.34 193 58.41C193.05 49.48 193.02 40.55 192.76 31.62L205.76 31.98H205.78Z" fill="currentColor"/>
<path d="M195.81 4.53999C194.65 7.75999 189 21.69 187.96 24.51L183.93 24.55C178.06 24.6 172.19 24.58 166.33 24.7L170.09 23.14C158.45 33.73 135.27 55.22 123.81 65.99L122.11 67.58C121.44 67.52 101.78 66.02 100.52 65.91C87.46 64.95 56.04 62.73 42.57 61.79L46.52 60.44C43.36 63.29 40.2 66.15 37.08 69.05L27.69 77.71L29.43 72.3C32.25 84.53 35.01 96.78 37.9 109C40.77 121.22 43.61 133.45 46.55 145.66L33.86 148.47C28.63 122.77 23.22 97.1 17.74 71.45L20.18 69.33C26 64.36 33.77 57.47 39.41 52.5L41.12 50.98L43.37 51.15C57.04 52.18 88.08 54.65 101.3 55.59L120.62 56.96L116.64 58.37C128.84 46.87 151.69 24.98 163.71 13.29C170.31 13.01 176.93 12.54 183.53 12.16L177.93 16.19L183.65 0.00999451L195.83 4.54999L195.81 4.53999Z" fill="currentColor"/>
</g>
<defs>
<clipPath id="clip0_4_19">
<rect width="205.78" height="203.37" fill="white"/>
</clipPath>
</defs>
</svg>
