<svg width="198" height="170" viewBox="0 0 198 170" fill="none" xmlns="http://www.w3.org/2000/svg">
<g clip-path="url(#clip0_3_7)">
<path d="M0.51 157.35C32.38 110.27 65.72 58.43 96.26 10.29C120.54 46.2 148.01 86.48 172.6 122.26L196.71 157.22L185.93 164.48C155.83 118.68 122.46 68.35 91.98 22.94L100.87 22.84L78.13 57.97C60.46 85.76 39.42 118.65 22.36 146.5C18.7 152.44 15.04 158.38 11.44 164.35L0.5 157.33L0.51 157.35Z" fill="currentColor"/>
<path d="M63.24 160.89C75.55 131.53 86.56 101.39 96.9 71.26C109.49 101.1 122.31 131.06 135.53 160.61L123.53 165.61C113.48 139.64 103.07 113.81 92.51 88.05L102.37 87.82C97.53 100.61 92.87 113.46 88.35 126.37C83.86 139.29 79.47 152.25 75.46 165.33L63.24 160.89Z" fill="currentColor"/>
<path d="M77.06 169.61C57.92 168.11 38.45 168.06 19.26 168.56C12.84 168.76 6.41999 169.05 -0.0100098 169.61V156.61C12.62 157.7 25.82 157.9 38.52 157.95C51.38 157.89 64.22 157.68 77.05 156.61V169.61H77.06Z" fill="currentColor"/>
<path d="M197.17 169.61C178.03 168.11 158.56 168.06 139.37 168.56C132.95 168.76 126.53 169.05 120.1 169.61V156.61C132.73 157.7 145.93 157.9 158.63 157.95C171.49 157.89 184.33 157.68 197.16 156.61V169.61H197.17Z" fill="currentColor"/>
<path d="M91.11 92.66C92.61 77.1 92.67 61.24 92.16 45.63C91.96 40.4 91.67 35.18 91.11 29.95H104.11C103.02 40.22 102.82 50.96 102.77 61.31C102.83 71.78 103.04 82.23 104.11 92.67H91.11V92.66Z" fill="currentColor"/>
<path d="M38.84 163.08C50.38 134.36 61.03 104.6 71.23 75.34C77.31 57.64 83.29 39.93 88.74 22.01L101 26.35C87.15 60.92 74.53 96.53 62.59 131.8C58.62 143.62 54.73 155.47 51.09 167.41L38.83 163.07L38.84 163.08Z" fill="currentColor"/>
<path d="M149.74 166.26C136.46 131.28 121.53 95.86 106.42 61.64C101.34 50.13 96.09 38.69 90.69 27.31L102.65 22.23C109.28 39.91 116.38 57.4 123.62 74.83C130.7 91.71 138.56 110.22 145.99 126.84C150.49 136.92 156.97 151.34 161.69 161.18L149.73 166.26H149.74Z" fill="currentColor"/>
<path d="M120.11 155.9H77.06" stroke="currentColor" stroke-width="13" stroke-miterlimit="10"/>
<path d="M107.08 40.01L84.4 3.42" stroke="currentColor" stroke-width="13" stroke-miterlimit="10"/>
<path d="M88.8 40.84L110.09 3.42" stroke="currentColor" stroke-width="13" stroke-miterlimit="10"/>
</g>
<defs>
<clipPath id="clip0_3_7">
<rect width="197.17" height="169.61" fill="white"/>
</clipPath>
</defs>
</svg>
