<svg width="65" height="60" viewBox="0 0 65 60" xmlns="http://www.w3.org/2000/svg">
<path d="M28.6281 1.479C29.6055 5.69014 30.7946 9.84617 32.0649 13.979C30.7453 19.6142 29.5185 25.2754 28.6745 31.0034L24.1995 29.9912C25.8584 24.6142 27.1635 19.1385 28.3729 13.6455L28.4106 14.5997C27.1316 10.6466 25.7917 6.71392 24.2459 2.85661L28.6223 1.4848L28.6281 1.479Z"/>
<path d="M35.9078 1.29929C37.3289 5.66124 38.9617 9.95358 40.6758 14.2082C38.9211 19.8057 37.2593 25.4379 35.9774 31.163L31.5894 29.8231C33.6456 24.5563 35.3568 19.1647 36.9722 13.75L37.0273 14.9768C35.3423 10.9484 33.5992 6.94024 31.659 3.02783L35.9078 1.29639V1.29929Z"/>
<path d="M18.5151 58.489C20.7222 54.5302 22.5813 50.3249 24.2634 46.1166C24.8202 44.7042 25.3481 43.2831 25.8063 41.8301L29.2605 43.3411C27.7785 45.9455 26.4763 48.7732 25.2582 51.514C24.0575 54.3011 22.8974 57.1027 21.9693 60L18.5151 58.489Z"/>
<path d="M29.71 58.489C31.917 54.5302 33.7761 50.3249 35.4582 46.1166C36.0151 44.7042 36.5429 43.2831 37.0011 41.8301L40.4553 43.3411C38.9733 45.9455 37.6711 48.7732 36.453 51.514C35.2523 54.3011 34.0922 57.1027 33.1641 60L29.71 58.489Z"/>
<path d="M8.12064 24.687C10.4582 28.0078 13.1612 31.111 15.9455 34.0606C16.8822 35.0408 17.8422 36.0037 18.8602 36.9173L16.0267 39.4057C14.504 37.1957 12.7088 35.064 10.9484 33.0339C9.14152 31.0037 7.30567 29.0055 5.28711 27.1754L8.12064 24.687Z"/>
<path d="M44.3503 36.1948C45.2175 32.7232 46.9576 25.7249 47.8103 22.2504L47.9524 21.6733L48.3875 21.3195C49.2169 20.6466 54.6607 16.1977 55.3828 15.6118C55.9165 16.2528 61.6792 22.7029 62.3811 23.5236L64.3184 25.7133L61.4501 26.1861L55.7366 27.1257L57.0359 25.7539C56.4936 30.2058 55.989 34.6605 55.464 39.1153L53.9066 52.4766L53.75 53.8165C49.9449 53.8049 46.1282 53.7962 42.3231 53.8107C32.8219 53.8252 20.2813 53.8543 10.7888 53.9094C9.25751 46.9053 6.41529 34.066 4.84046 27.0648L6.79812 28.4801L0.403103 29.2574L-0.00292969 25.5103C1.33698 25.3885 6.87352 24.8462 8.04812 24.7388C9.49533 31.9053 12.1403 44.8084 13.634 51.972L12.0736 50.7075C21.0586 50.7597 33.341 50.7829 42.326 50.7974C45.6873 50.809 49.0487 50.8032 52.4101 50.7974L50.9107 52.1344C51.7633 44.2371 53.08 33.1785 53.9066 25.3972L54.0313 24.2313C54.855 24.0776 59.9855 23.1814 60.9078 23.0132L59.9797 25.6756L53.953 19.0312L56.2558 19.2023L50.5858 23.9819L51.163 23.0509C50.3654 26.5457 48.7964 33.5729 48.0133 37.0706L44.3445 36.2035L44.3503 36.1948Z"/>
<path d="M20.9514 29.8173C28.0076 29.2285 34.6985 28.9327 41.8098 28.982L40.2901 30.2059C41.3429 26.1485 43.4456 17.9843 44.4693 13.9211L44.5795 14.9565L38.3121 2.22738L39.655 3.06265C34.5505 3.07425 24.2779 3.09745 19.1764 3.12645L20.6729 1.12529C22.0041 5.59455 23.3673 10.0551 24.7188 14.5186C23.7675 19.8289 22.5436 24.6868 20.9485 29.8144L20.9514 29.8173ZM17.4044 32.7262C18.4224 26.6154 19.771 20.1943 21.398 14.243L21.4241 15.0841C20.1799 10.7251 18.9473 6.36021 17.6828 2.00696L17.0999 0L19.1793 0.0087007C24.7565 0.0435035 35.0175 0.0580047 40.5888 0.0725058L41.0007 0.904873L47.2913 13.6224L47.5349 14.1154L47.4015 14.6578C46.3922 18.721 44.4055 26.92 43.4282 30.9919L43.1497 32.1433C34.7072 32.6914 25.8963 32.8741 17.4073 32.7262H17.4044Z"/>
<path d="M18.0192 40.6498C18.4078 41.6359 18.7558 42.6248 19.0807 43.6457L18.1294 42.6741C19.0343 43.0628 20.8614 43.8371 21.7721 44.2142L20.5453 44.2432C21.862 43.6863 23.17 43.1034 24.4809 42.5378L23.6688 43.4282L25.0841 39.3389L25.1653 40.5019L23.5209 37.3145L24.5128 38.1005C23.2686 37.8163 22.0273 37.5204 20.7831 37.2449L21.8388 37.1347C21.0383 37.5436 19.4316 38.3789 18.6369 38.8023L19.3939 38.086C18.9646 38.9851 18.5064 39.8232 18.0192 40.6527V40.6498ZM14.2576 40.3801C15.0435 38.8574 15.8614 37.3754 16.7286 35.9369C17.0128 35.818 18.5122 35.1654 18.8283 35.0291C19.2228 34.8551 20.6584 34.2142 21.0296 34.0518C22.4275 34.4346 23.837 34.7884 25.235 35.1538L25.9223 35.3337C26.3312 36.1515 27.7059 38.8922 28.1178 39.713C27.8307 40.5657 26.6184 44.1649 26.3312 45.0175L25.7251 45.3018C24.2402 45.9949 22.7437 46.6794 21.2674 47.3899L20.612 47.1463C19.3881 46.6823 17.471 45.9891 16.2471 45.5396C15.554 43.8429 14.8724 42.1173 14.2576 40.3801Z"/>
<path d="M29.4113 39.4491C29.3939 40.5106 29.3416 41.5547 29.2517 42.6249L28.7413 41.3633C29.4316 42.0651 30.8266 43.4746 31.5255 44.1678L30.3828 43.7299C31.8126 43.7154 33.2425 43.6776 34.6723 43.6515L33.5789 44.1678L36.4414 40.9224L36.076 42.0274L35.7686 38.4543L36.3863 39.5593C35.3451 38.8227 34.3097 38.0773 33.2628 37.3493L34.2807 37.6481C33.3846 37.7235 31.5806 37.883 30.6874 37.9758L31.6589 37.5988C30.9194 38.2687 30.174 38.8691 29.4113 39.4491ZM26.0354 37.767C27.3405 36.6591 28.6601 35.6005 30.0116 34.597C30.319 34.5941 31.9548 34.5593 32.2999 34.5564C32.732 34.5448 34.301 34.4984 34.7071 34.4868C35.8527 35.3714 37.0215 36.2357 38.1787 37.1057L38.7471 37.5321C38.8138 38.4456 39.0429 41.4996 39.1096 42.4131C38.518 43.0947 36.0325 45.963 35.4437 46.6446L34.7738 46.6765C33.1381 46.7519 31.4936 46.8128 29.8579 46.9085L29.3445 46.4358C28.3904 45.5425 26.8765 44.1736 25.9136 43.2948C25.9165 41.459 25.9455 39.6057 26.0354 37.7641V37.767Z"/>
<path d="M42.9177 37.3927C42.0274 37.9727 41.1312 38.5122 40.1973 39.0342L40.9572 37.906C40.76 38.8718 40.3742 40.815 40.1886 41.7837L39.9131 40.5917C40.7252 41.7692 41.5546 42.935 42.3754 44.1067L41.3371 43.489L45.6294 44.0487L44.51 44.3649L47.3 42.1114L46.7286 43.2396C46.7576 41.9635 46.7982 40.6903 46.8156 39.4142L47.1347 40.4263C46.572 39.7245 45.4293 38.3208 44.8551 37.6276L45.7107 38.2222C44.742 37.9843 43.8284 37.7001 42.9206 37.3927H42.9177ZM42.4247 33.6543C44.072 34.1183 45.6904 34.6201 47.2739 35.1798C47.4479 35.4321 48.3905 36.772 48.5877 37.0534C48.84 37.4043 49.7536 38.6804 49.9914 39.011C49.8986 40.4553 49.8348 41.9084 49.7594 43.3527L49.7217 44.0632C49.0024 44.6288 46.5981 46.5255 45.876 47.094C44.9798 46.9838 41.2124 46.5284 40.3191 46.4182L39.9189 45.8788C38.9415 44.565 37.9728 43.2367 36.981 41.9316L37.0854 41.2442C37.2942 39.9507 37.5813 37.935 37.7727 36.6444C39.2953 35.6236 40.8499 34.6085 42.4276 33.6543H42.4247Z"/>
</svg>
