<svg width="32" height="33" viewBox="0 0 32 33" xmlns="http://www.w3.org/2000/svg">
<path d="M20.911 0.519531H11.088C2.12402 0.519531 -0.000976562 2.64453 -0.000976562 11.6085V21.4315C-0.000976562 30.3955 2.12402 32.5205 11.088 32.5205H20.911C29.875 32.5205 32 30.3955 32 21.4315V11.6085C32 2.64453 29.854 0.519531 20.911 0.519531ZM25.833 23.3475H23.51C22.63 23.3475 22.359 22.6495 20.776 21.0455C19.401 19.7125 18.792 19.5355 18.453 19.5355C17.974 19.5355 17.838 19.6705 17.838 20.3275V22.4265C17.838 22.9895 17.661 23.3275 16.171 23.3275C13.707 23.3275 10.973 21.8375 9.05602 19.0615C6.16502 14.9935 5.37402 11.9465 5.37402 11.3165C5.37402 10.9775 5.50902 10.6605 6.16002 10.6605H8.48802C9.07702 10.6605 9.30102 10.9315 9.53002 11.5615C10.681 14.8845 12.598 17.7955 13.389 17.7955C13.681 17.7955 13.816 17.6605 13.816 16.9155V13.4835C13.727 11.9005 12.894 11.7645 12.894 11.2025C12.894 10.9315 13.118 10.6605 13.477 10.6605H17.138C17.633 10.6605 17.815 10.9315 17.815 11.5145V16.1445C17.815 16.6445 18.039 16.8215 18.174 16.8215C18.466 16.8215 18.716 16.6445 19.257 16.1025C20.929 14.2275 22.127 11.3365 22.127 11.3365C22.283 10.9975 22.554 10.6805 23.143 10.6805H25.471C26.169 10.6805 26.325 11.0395 26.169 11.5395C25.877 12.8935 23.028 16.9145 23.028 16.9145C22.783 17.3205 22.689 17.4975 23.028 17.9505C23.278 18.2895 24.091 18.9925 24.632 19.6225C25.627 20.7525 26.392 21.7005 26.596 22.3565C26.825 23.0075 26.487 23.3465 25.83 23.3465L25.833 23.3475Z"/>
</svg>
