<svg width="32" height="33" viewBox="0 0 32 33" xmlns="http://www.w3.org/2000/svg">
<path fill-rule="evenodd" clip-rule="evenodd" d="M32 16.5195C32 25.3555 24.836 32.5195 16 32.5195C7.164 32.5195 0 25.3555 0 16.5195C0 7.68353 7.164 0.519531 16 0.519531C24.836 0.519531 32 7.68353 32 16.5195ZM16.5733 12.3315C15.0173 12.9782 11.9067 14.3182 7.24267 16.3502C6.48533 16.6515 6.088 16.9462 6.052 17.2342C5.99067 17.7222 6.60133 17.9142 7.43067 18.1742C7.544 18.2102 7.66133 18.2462 7.78133 18.2862C8.59867 18.5515 9.69733 18.8622 10.268 18.8742C10.7867 18.8849 11.3653 18.6715 12.004 18.2342C16.3613 15.2915 18.6107 13.8049 18.752 13.7729C18.852 13.7502 18.9907 13.7209 19.084 13.8049C19.1773 13.8875 19.168 14.0449 19.1587 14.0875C19.0973 14.3449 16.7053 16.5702 15.4653 17.7222C15.0787 18.0809 14.8053 18.3355 14.7493 18.3942C14.624 18.5235 14.496 18.6475 14.3733 18.7662C13.6133 19.4969 13.0453 20.0462 14.4053 20.9422C15.0587 21.3729 15.5813 21.7289 16.1027 22.0835C16.672 22.4715 17.24 22.8582 17.976 23.3409C18.1627 23.4635 18.3413 23.5902 18.516 23.7142C19.1787 24.1875 19.7747 24.6115 20.5107 24.5449C20.9373 24.5049 21.38 24.1035 21.604 22.9049C22.1333 20.0702 23.176 13.9315 23.4173 11.4009C23.432 11.1908 23.4231 10.9797 23.3907 10.7715C23.3713 10.6034 23.2894 10.4488 23.1613 10.3382C22.9707 10.1822 22.6747 10.1489 22.5413 10.1515C21.94 10.1622 21.0173 10.4835 16.5733 12.3315Z"/>
</svg>
