<svg width="156" height="179" viewBox="0 0 156 179" fill="none" xmlns="http://www.w3.org/2000/svg">
<g clip-path="url(#clip0_2_2)">
<path d="M85.54 109.19C74.68 103.09 63.77 96.27 53.4 89.38L59.41 84.28C80.65 66.09 104.01 45.62 125.08 26.99C134.12 19.09 146.5 7.98 155.43 0L155.47 11.6L155.59 47.89V49.37C151.43 56.2 145.65 65.95 141.54 72.92L140.91 73.99L139.75 74.74C121.9 86.41 103.71 97.96 85.53 109.19H85.54ZM85.48 96.19C101.39 85.54 117.28 75.23 133.52 65.03L131.73 66.85C134.05 63.26 140.03 54.02 142.27 50.55C143.44 48.74 144.57 46.9 145.72 45.08L144.92 47.89L145.04 11.6L153.71 15.49C125.24 40.68 95.3 67.54 67.35 93.23L66.56 83.68C73.12 87.61 79.25 91.74 85.47 96.18L85.48 96.19Z" fill="currentColor"/>
<path d="M68.31 93C49.24 113.89 28.78 137.17 10.11 158.55L10.88 152.92L19.59 171.54L14.92 168.58L37.98 168.51L33.64 170.83L45.4 152.99C56.73 135.65 69.17 116.53 80.12 99.07L90.92 106.3C86.77 112.1 82.7 117.95 78.61 123.78C67.29 139.94 53.44 160.22 42.32 176.65L40.74 178.98H37.98C36.06 178.98 12.75 178.89 11.66 178.9C9.65 174.67 2.01 158.57 0.00999832 154.34C8.16 144.78 22.45 127.93 30.51 118.27C39.92 107.09 49.25 95.85 58.47 84.51L68.32 93H68.31Z" fill="currentColor"/>
<path d="M151.89 34.04C142.98 43.72 134.06 54.22 125.72 64.37C109.73 75.78 92.59 87.35 76.72 99.02L72.2 92.42C79.36 87.86 89.74 80.98 96.93 76.21C105.15 70.77 113.32 65.26 121.46 59.71L120.8 60.31C125.09 55.19 129.31 50.02 133.48 44.81C137.1 40.22 142.32 33.62 145.73 28.95L151.89 34.05V34.04Z" fill="currentColor"/>
</g>
<defs>
<clipPath id="clip0_2_2">
<rect width="155.6" height="178.97" fill="white"/>
</clipPath>
</defs>
</svg>
