<svg width="52" height="67" viewBox="0 0 52 67" fill="none" xmlns="http://www.w3.org/2000/svg">
<g clip-path="url(#clip0_16_75)">
<path d="M26.21 66.27H15.73L7.88 61.78L3.41 56.19L0 47.11L3.45 37.9L7.97 33.38L13.87 29.84L22.17 31.03L29.98 36.61L34.5 44.52V54.5L32.18 60.31L26.22 66.27H26.21ZM16.93 61.72H24.32L28.29 57.75L29.94 53.63V45.74L26.52 39.75L20.43 35.4L14.83 34.6L10.8 37.02L7.38 40.44L4.87 47.12L7.42 53.92L10.89 58.26L16.94 61.72H16.93Z" fill="currentColor"/>
<path d="M25.41 60.1701H20.07L12.63 56.9801L9.40001 52.6801L9.36001 52.5901L6.26001 46.3901V37.1801H8.54001V45.8501L11.35 51.4801L14.08 55.1201L20.54 57.8901H25.13L28.97 56.9301L29.52 59.1401L25.41 60.1701Z" fill="currentColor"/>
<path d="M16.5719 38.8614L14.5262 44.374L16.6637 45.1673L18.7095 39.6546L16.5719 38.8614Z" fill="currentColor"/>
<path d="M25.1923 43.1956L23.1456 48.7079L25.283 49.5015L27.3297 43.9892L25.1923 43.1956Z" fill="currentColor"/>
<path d="M19.3395 44.3397L16.3613 51.2883L18.4569 52.1865L21.4351 45.2379L19.3395 44.3397Z" fill="currentColor"/>
<path d="M42.6393 17.3074L34.6964 21.278L35.7159 23.3173L43.6587 19.3468L42.6393 17.3074Z" fill="currentColor"/>
<path d="M38.5815 23.3094L33.6165 26.288L34.7894 28.2431L39.7545 25.2645L38.5815 23.3094Z" fill="currentColor"/>
<path d="M37.36 33.4L30.47 32.25L28.1 27.52V24.05L30.25 18.66L33.47 15.44L36.67 13.31L39.97 12.21H43.32L46.73 13.35L48.1 14.72L49.27 18.24L48.19 23.65L46.02 28L41.75 31.2L37.35 33.4H37.36ZM31.98 30.2L37 31.04L40.55 29.27L44.22 26.51L46.02 22.91L46.92 18.39L46.11 15.95L45.5 15.34L42.95 14.49H40.34L37.68 15.38L34.92 17.22L32.19 19.95L30.37 24.49V26.98L31.98 30.19V30.2Z" fill="currentColor"/>
<path d="M38.31 36.4L33.63 35.23L30.42 32.03L32.03 30.42L34.79 33.18L38.05 33.99L41.55 32.24L45.38 29.37L46.18 28.57L48.03 24.87L48.96 21.16V18.79L45.32 15.15L46.93 13.54L51.23 17.85V21.44L50.18 25.67L48.05 29.91L46.81 31.14L42.75 34.18L38.31 36.4Z" fill="currentColor"/>
<path d="M9.96152 5.13236L8.69879 7.03076L16.0926 11.9488L17.3553 10.0504L9.96152 5.13236Z" fill="currentColor"/>
<path d="M13.2547 11.5754L11.8501 13.3713L16.4108 16.9384L17.8154 15.1425L13.2547 11.5754Z" fill="currentColor"/>
<path d="M13.22 21.76L9.13001 19.04L5.29001 15.34L3.67001 10.76L3.26001 5.26001L4.86001 1.91001L6.39001 0.72001L9.91001 0.0100098L13.23 0.42001L16.37 1.92001L19.28 4.43001L22.08 8.03001L23.56 13.64L23.13 17.08L20.2 21.48L13.22 21.77V21.76ZM10.56 17.26L13.86 19.46L18.95 19.25L20.94 16.26L21.25 13.79L20.01 9.06001L17.63 6.01001L15.12 3.85001L12.59 2.64001L10 2.32001L7.37001 2.85001L6.69001 3.38001L5.58001 5.70001L5.92001 10.3L7.26001 14.09L10.57 17.28L10.56 17.26Z" fill="currentColor"/>
<path d="M11.91 24.62L7.77001 21.87L4.02001 18.24L3.04001 16.98L1.45001 12.51L0.920013 8.18L1.37001 4.62L6.17001 0.869995L7.57001 2.67L3.51001 5.83L3.22001 8.18L3.68001 11.98L5.06001 15.88L5.76001 16.77L9.20001 20.09L12.47 22.26L15.8 21.85L18.87 19.46L20.27 21.25L16.7 24.04L11.91 24.62Z" fill="currentColor"/>
</g>
<defs>
<clipPath id="clip0_16_75">
<rect width="51.23" height="66.27" fill="white"/>
</clipPath>
</defs>
</svg>
