<svg width="58" height="60" viewBox="0 0 58 60" fill="none" xmlns="http://www.w3.org/2000/svg">
<g clip-path="url(#clip0_18_125)">
<path d="M42.1 52.8L15.23 23.33L0 15.87L2 6.51L7.04 1.38L15.77 0L22.19 15.6L46.19 48.65L42.11 52.81L42.1 52.8ZM3.2 14.31L16.95 21.04L42.18 48.72L42.53 48.37L19.73 16.97L14.02 3.11L8.39 4L4.57 7.89L3.2 14.31Z" fill="currentColor"/>
<path d="M3.67039 7.46174L2.02855 9.72986L8.841 14.6612L10.4828 12.3931L3.67039 7.46174Z" fill="currentColor"/>
<path d="M10.2541 2.47854L7.87646 3.95734L12.9413 12.1007L15.319 10.6219L10.2541 2.47854Z" fill="currentColor"/>
<path d="M20.4659 16.2066L15.1395 21.1545L17.0452 23.2059L22.3716 18.258L20.4659 16.2066Z" fill="currentColor"/>
<path d="M25.9591 22.9729L20.6326 27.9208L22.5383 29.9722L27.8647 25.0243L25.9591 22.9729Z" fill="currentColor"/>
<path d="M34.32 40.99L32.29 44.37L30.46 51.7L25.2 54.7L16.76 52.17L9.63001 45.04L6.94001 36.09L7.85001 27.02L11.58 19.57L7.38001 17.77L3.40001 25.74L2.32001 36.53L5.60001 47.44L14.35 56.2L25.77 59.63L34.41 54.69L36.55 46.13L37.91 43.87L34.32 40.99Z" fill="currentColor"/>
<path d="M53.03 14.89L45.32 9.38001L32.61 6.20001L20.76 7.28001L19.19 8.28001L20.83 12.64L22.27 11.72L32.26 10.81L43.38 13.59L49.57 18.01L53 24.01V30.4L49.25 34.15L41.61 35.1L37.57 37.53L40.31 41.19L43.12 39.5L51.37 38.47L57.55 32.29V22.8L53.03 14.89Z" fill="currentColor"/>
<path d="M32.04 13.47L38.39 15.06L36.8 19.83L32.04 21.42L30.45 18.24V13.47H32.04Z" fill="currentColor"/>
<path d="M46.73 20.7L49.28 26.74L44.51 28.33L40.38 25.47L41.97 22.29L45.78 19.43L46.73 20.7Z" fill="currentColor"/>
<path d="M10.16 30.32L16.41 28.37L17.54 33.26L14.3 37.1L11.29 35.22L8.8 31.15L10.16 30.32Z" fill="currentColor"/>
<path d="M17.46 39L22.63 43.02L19.25 46.74L14.25 46.27L14.08 42.72L16.01 38.36L17.46 39Z" fill="currentColor"/>
</g>
<defs>
<clipPath id="clip0_18_125">
<rect width="57.55" height="59.63" fill="white"/>
</clipPath>
</defs>
</svg>
