<svg width="153" height="154" viewBox="0 0 153 154" fill="none" xmlns="http://www.w3.org/2000/svg">
<g clip-path="url(#clip0_5_51)">
<path d="M133.41 24.75C116.72 39.85 100.81 55.73 85.73 72.43L80.07 66.77C96.78 51.69 112.65 35.77 127.75 19.09L133.41 24.75Z" fill="currentColor"/>
<path d="M116.79 79.83C102.04 80.05 87.2 80.09 72.5 79.74C72.89 66.15 72.91 49.58 72.97 35.89C96.02 25.61 129.44 10.43 152.35 0C145.66 15.25 138.72 31.21 131.89 46.41C128.16 54.75 120.6 71.53 116.8 79.83H116.79ZM109.72 68.92C118.3 49.25 127.75 28.11 136.67 8.62L143.87 15.82C127.97 22.77 96.06 36.86 80.23 43.95L83.28 39.24C83.37 49.59 83.32 64.17 83.6 74.38L78.12 68.9C88.72 68.66 99.18 68.74 109.72 68.92Z" fill="currentColor"/>
<path d="M99.7 80.1C91.02 87.64 82.7 95.55 74.46 103.56L70.62 107.29C68.28 104.8 65.2 101.67 62.83 99.27C60.17 96.54 52.87 89.33 50.06 86.56L46.4 82.94C48.6 80.67 53.79 75.29 56.04 72.97C61.8 66.92 68.07 60.21 73.51 53.92L82.7 63.11C74.28 70.39 65.47 78.79 57.46 86.56V79.16L65.9 87.7C68.42 90.17 71.94 93.72 74.45 96.13H67.04C75.04 87.89 82.96 79.57 90.5 70.89L99.69 80.08L99.7 80.1Z" fill="currentColor"/>
<path d="M70.4 99.49C55.06 111.08 41.38 124.58 28.47 138.77C24.22 143.55 20.06 148.41 16.26 153.63L0 137.37C15.39 125.83 29 112.27 41.91 98.08C46.15 93.3 50.32 88.44 54.13 83.23L70.39 99.49H70.4Z" fill="currentColor"/>
</g>
<defs>
<clipPath id="clip0_5_51">
<rect width="152.35" height="153.63" fill="white"/>
</clipPath>
</defs>
</svg>
