<svg width="175" height="167" viewBox="0 0 175 167" fill="none" xmlns="http://www.w3.org/2000/svg">
<path d="M144.9 78.4702C138.26 64.9402 125.2 37.5602 118.76 23.9302L122.16 26.9102L75.35 11.1602L79.93 10.6202C71.17 15.9602 62.42 21.3302 53.69 26.7202L27.49 42.8802L29.54 40.5302L10.36 83.6802V79.5102C15.55 91.3402 26.26 115.02 31.71 126.73L29.03 124.09C42.99 130.04 62.43 138.81 76.21 144.64L72.39 144.43L126.47 126.97L122.87 130.23C129.2 115.17 138.27 93.6302 144.91 78.4802L144.9 78.4702ZM157.9 78.1802C150.67 94.8402 140.89 118.51 133.56 134.8L132.47 137.28L129.96 138.05L75.66 154.79L73.67 155.4L71.84 154.58C57.46 148.23 37.51 139.3 22.94 132.92C17.13 120.25 6.47001 96.4702 0.93001 83.6702L0.0100098 81.5802L0.93001 79.4902L19.91 36.2502L20.56 34.7702L21.96 33.9002L48.1 17.6402C57.53 11.7902 66.94 5.91023 76.33 -0.00976562L78.79 0.780234L125.8 15.9102L128.11 16.6502C135.9 32.5002 150.32 62.2102 157.92 78.1602L157.9 78.1802Z" fill="currentColor"/>
<path d="M18.71 107.04C30.7 98.3703 42.44 89.3903 54.09 80.2803C75.91 72.5403 97.61 64.4603 119.12 55.8803L119.92 55.5603L121.1 55.5303C127.88 55.3503 134.66 55.1203 141.44 54.7603V67.7603C134.66 67.4103 127.88 67.1803 121.1 66.9903L123.08 66.6403C112.24 70.3003 101.44 74.1003 90.68 78.0003C79.92 81.9003 69.19 85.8703 58.51 89.9703L59.99 89.1303C48.79 98.3103 37.68 107.59 26.83 117.19L18.71 107.04Z" fill="currentColor"/>
<path d="M35.6099 27.4504C46.4799 36.3204 58.0999 44.2004 69.8899 51.7804C74.0299 58.7104 78.2799 65.5804 82.9999 72.1504L71.7099 78.6004C68.6199 71.6104 65.0999 64.8504 61.4599 58.1404L63.1099 59.9004C60.3099 57.9604 57.4899 56.0404 54.6499 54.1604C46.0999 48.5304 37.4499 43.0604 28.3999 38.2604L35.6099 27.4404V27.4504Z" fill="currentColor"/>
<path d="M32.25 126.11C54.5 117.91 76.3 108.57 97.93 98.8902L98.85 98.4702C102.31 98.4102 105.79 98.3902 109.25 98.2902C118.47 98.0902 127.68 97.8002 136.89 97.2202V110.22C124.61 109.47 112.33 109.16 100.04 109L102.14 108.56C88.48 114.29 74.92 120.24 61.47 126.45C53.39 130.18 45.36 133.98 37.43 138.03L32.25 126.11Z" fill="currentColor"/>
<path d="M24.8001 46.9805C31.8901 51.6105 39.5301 56.0905 46.9101 60.2105C51.4401 66.0705 56.0601 71.8605 60.9501 77.4105L55.7901 81.3705C51.7901 75.3605 47.5101 69.5405 43.1301 63.7905L43.9101 64.4705C40.2501 62.3905 36.5701 60.3505 32.8501 58.3705C29.5801 56.6505 24.9001 54.1905 21.5901 52.6405L24.7801 46.9805H24.8001Z" fill="currentColor"/>
<path d="M48.5701 38.9401C59.5301 33.5401 70.7901 27.5101 81.4601 21.6001C96.2801 22.1901 111.1 22.7601 125.93 22.9001L125.64 29.3901C111.1 28.2501 96.5401 27.5101 81.9801 26.8101L83.3401 26.4901C78.0001 29.4001 72.7101 32.3901 67.4101 35.3801C62.7901 38.0501 56.1701 41.8601 51.6901 44.6401L48.5601 38.9401H48.5701Z" fill="currentColor"/>
<path d="M60.25 55.9903C69.54 50.5503 79.45 44.2303 88.43 38.3003C95.79 38.6103 103.15 38.9103 110.51 39.1003C117.59 39.3103 124.67 39.4903 131.76 39.5503L131.47 46.0403C117.35 44.9303 103.2 44.1603 89.05 43.5003L90.58 43.0803C86.63 45.6303 81.03 49.4103 77.08 52.0803C73.17 54.7803 67.57 58.6203 63.81 61.4203L60.25 55.9803V55.9903Z" fill="currentColor"/>
<path d="M56.1301 138.85C71.7301 132.35 88.6301 124.81 104 117.79C113.28 119.06 122.55 120.32 131.88 121.14L130.95 127.57C122.03 125.77 113.04 124.38 104.04 123.02L105.49 122.81C94.6401 127.71 81.2301 133.96 70.4101 139.11C66.5401 140.99 62.6601 142.84 58.8201 144.76L56.1301 138.84V138.85Z" fill="currentColor"/>
<path d="M63.3799 144.06L88.0599 155.68L86.4199 155.44C99.1699 153.72 124.78 150.24 137.51 148.46L136.33 148.93L166.05 127.72L165.02 129.3L168.65 111.58L170.39 114.59L158.86 110.83L162.14 109.33C160.61 113.01 157.62 120.39 156.15 124.09L155.95 121.56L169 142.45L170.04 144.11L168.87 145.75L154.23 166.23L148.98 162.39L164.08 142.24L163.95 145.54L151.2 124.46L150.45 123.22C152.3 118.96 155.46 111.57 157.24 107.28L158.2 105.01C161.35 106.06 171.08 109.3 174.23 110.35L173.76 112.62L170.09 130.33L169.88 131.32L169.06 131.91L139.43 153.24L138.91 153.62C125.87 155.51 100.28 159.31 87.2399 161.26L86.4099 161.38L85.5999 161.02L60.6699 149.95L63.3699 144.04L63.3799 144.06Z" fill="currentColor"/>
<path d="M17.6999 60.1504C25.0899 64.2904 33.0099 68.2504 40.6599 71.8604C45.5699 77.4004 50.5699 82.8704 55.8299 88.0804L50.9499 92.3804C46.5499 86.6504 41.8899 81.1304 37.1399 75.7004L37.9599 76.3204C34.1699 74.4904 30.3599 72.7104 26.5199 70.9804C23.1399 69.4804 18.2999 67.3404 14.8999 66.0204L17.7099 60.1604L17.6999 60.1504Z" fill="currentColor"/>
<path d="M9.64008 71.6401C17.0801 75.8201 25.0901 79.8001 32.8101 83.4501C35.3501 87.5801 37.9901 91.6601 40.9501 95.5001L35.4001 98.8901C33.4401 94.7401 31.1701 90.7501 28.8101 86.8201L29.9001 87.8101C22.4301 84.2201 14.5301 80.5801 6.83008 77.5101L9.64008 71.6501V71.6401Z" fill="currentColor"/>
<path d="M24.73 120.17C45.84 109.39 68.84 97.1203 89.71 85.8603C108.59 82.1003 127.71 79.0203 146.59 75.0503L147.72 81.4503C128.9 84.2503 110.14 87.4603 91.39 90.7003L92.17 90.4303C86.76 93.3003 81.4 96.2703 76.02 99.1803C67.98 103.54 51.81 112.42 43.82 116.87C38.48 119.87 33.13 122.85 27.82 125.89L24.73 120.17Z" fill="currentColor"/>
</svg>
