<svg width="203" height="200" viewBox="0 0 203 200" fill="none" xmlns="http://www.w3.org/2000/svg">
<g clip-path="url(#clip0_0_3)">
<path d="M15.6 75.84C14.83 87.51 13.78 99.43 11.28 110.86L8.02 104.93C14.38 107.59 27.21 112.87 33.6 115.45L27.02 118C29.9 111.96 35.65 99.79 38.46 93.71L39.74 100.03C31.01 92.82 23.11 84.3 15.6 75.84ZM11.36 63.55C23.45 72.33 35.9 81.88 46.82 92.02L49.86 94.76C48.71 97.09 43.43 107.83 42.17 110.38C40.68 113.45 35.62 123.91 34.22 126.8C31.3 125.63 20.03 121.14 16.9 119.88C13.99 118.74 2.7 114.32 0 113.26L0.77 108.9C3.2 93.85 7.19 78.25 11.36 63.54V63.55Z" fill="currentColor"/>
<path d="M22.01 135.98C28.92 145.41 35.78 155.23 41.21 165.58L34.9 163.13C41.48 161.08 54.7 156.88 61.26 154.75L57.86 160.94C56.19 154.46 52.76 141.44 51.01 134.98L56.05 139C44.73 139.09 33.2 137.64 22.01 135.99V135.98ZM10.87 129.29C25.77 128.25 41.45 127.56 56.33 128.3L60.43 128.45C61.04 130.97 63.9 142.6 64.58 145.36C65.41 148.67 68.26 159.93 69.04 163.05C66.05 164.03 54.53 167.83 51.33 168.89C48.37 169.89 36.88 173.76 34.13 174.68L31.92 170.85C24.1 157.76 17.14 143.25 10.88 129.3L10.87 129.29Z" fill="currentColor"/>
<path d="M65.58 177.94C76.94 180.72 88.5 183.83 99.31 188.27L92.9 190.45C96.62 184.65 104.05 172.93 107.7 167.09L109.07 174.02C103.62 170.13 92.63 162.36 87.14 158.54L93.59 158.38C84.98 165.72 75.22 172.02 65.57 177.95L65.58 177.94ZM52.74 179.98C63.49 169.6 75.06 159 86.93 150L90.16 147.48C92.25 149.02 101.92 156.08 104.21 157.77C106.97 159.77 116.39 166.57 119 168.45C117.34 171.13 110.96 181.44 109.18 184.31C107.55 186.98 101.24 197.33 99.72 199.8L95.56 198.29C81.16 193.29 66.49 186.65 52.73 179.98H52.74Z" fill="currentColor"/>
<path d="M125.92 182.07C136.41 176.9 147.26 171.85 158.4 168.3L154.89 174.09C154.01 167.25 152.17 153.5 151.21 146.68L156.71 151.1C150.04 151.62 136.62 152.73 129.96 153.34L134.79 149.07C132.91 160.23 129.49 171.33 125.91 182.07H125.92ZM117.39 191.88C118.95 177.02 121 161.46 124.31 146.94L125.16 142.93C127.75 142.76 139.7 141.96 142.53 141.78C145.93 141.54 157.52 140.69 160.73 140.46C161.18 143.58 162.92 155.58 163.4 158.92C163.87 162.01 165.68 174 166.11 176.87L161.95 178.38C147.7 183.8 132.2 188.15 117.37 191.89L117.39 191.88Z" fill="currentColor"/>
<path d="M174.81 146.45C179.52 135.75 184.59 124.9 190.84 115.02L191.87 121.71C186.8 117.04 176.56 107.69 171.43 103.08L178.49 102.93C173.71 107.62 164.15 117.09 159.44 121.84L160.4 115.46C166.14 125.22 170.65 135.92 174.81 146.45ZM174.59 159.45C166.24 147.06 157.8 133.83 151 120.57L149.08 116.95C150.96 115.16 159.6 106.87 161.65 104.9C164.1 102.53 172.43 94.43 174.74 92.19C177.09 94.29 186.13 102.36 188.65 104.61C190.99 106.68 200.09 114.69 202.27 116.61L200.06 120.44C192.63 133.75 183.55 147.04 174.59 159.44V159.45Z" fill="currentColor"/>
<path d="M189.35 87.74C186.08 76.51 182.99 64.95 181.43 53.36L186.52 57.82C179.63 57.5 165.77 56.92 158.89 56.68L164.2 52.03C163.55 58.69 162.32 72.1 161.76 78.76L158.39 73.26C169.06 77.05 179.39 82.35 189.35 87.74ZM197.53 97.84C183.17 93.72 168.2 89 154.47 83.22L150.67 81.68C150.96 79.1 152.24 67.2 152.56 64.37C152.91 60.98 154.09 49.42 154.42 46.22C157.57 46.32 169.69 46.69 173.06 46.8C176.19 46.88 188.31 47.17 191.21 47.24L191.98 51.6C194.85 66.57 196.43 82.59 197.54 97.84H197.53Z" fill="currentColor"/>
<path d="M162.76 33.41C153.04 26.91 143.24 20.04 134.59 12.16L141.35 12.31C135.87 16.49 124.88 24.96 119.45 29.2L120.53 22.22C124.32 27.74 131.99 38.8 135.84 44.27L129.72 42.22C140.33 38.27 151.65 35.68 162.74 33.41H162.76ZM175.52 35.89C161.87 41.97 147.37 47.98 133.14 52.37L129.24 53.63C127.8 51.47 121.14 41.52 119.56 39.16C117.65 36.34 111.12 26.73 109.31 24.06C111.79 22.11 121.31 14.61 123.96 12.52C126.4 10.57 135.88 3.01 138.15 1.2L141.54 4.04C153.36 13.67 164.87 24.92 175.52 35.89Z" fill="currentColor"/>
<path d="M107.47 8.89C95.84 10.16 83.92 11.19 72.24 10.72L77.52 6.48C76.01 13.2 73.03 26.75 71.6 33.5L67.94 27.46C74.39 29.25 87.38 32.79 93.84 34.51L87.84 36.87C93.42 27.02 100.44 17.76 107.47 8.89ZM118.84 2.58C112.29 16.01 105.05 29.93 96.96 42.44L94.79 45.91C92.3 45.18 80.8 41.85 78.07 41.05C74.79 40.12 63.61 36.95 60.52 36.07C61.17 32.99 63.63 21.12 64.32 17.81C64.94 14.75 67.33 2.86 67.91 0.0199994H72.33C87.57 -0.200001 103.63 1.02 118.84 2.58Z" fill="currentColor"/>
<path d="M49.35 25.64C41.26 34.09 32.79 42.54 23.53 49.69L24.85 43.05C28.02 49.17 34.44 61.47 37.68 67.55L31 65.28C37.09 62.51 49.32 56.87 55.37 54.03L52.29 59.7C50.24 48.57 49.66 36.96 49.35 25.65V25.64ZM54.01 13.5C57.62 28 61.02 43.32 62.88 58.1L63.45 62.16C61.07 63.2 50.12 68.04 47.52 69.18C44.41 70.57 33.81 75.33 30.87 76.65C29.38 73.87 23.64 63.19 22.05 60.22C20.55 57.47 14.75 46.83 13.36 44.28L16.75 41.44C28.28 31.47 41.37 22.09 54.02 13.5H54.01Z" fill="currentColor"/>
</g>
<defs>
<clipPath id="clip0_0_3">
<rect width="202.26" height="199.8" fill="white"/>
</clipPath>
</defs>
</svg>
