<svg width="194" height="190" viewBox="0 0 194 190" fill="none" xmlns="http://www.w3.org/2000/svg">
<path d="M180.57 96.18C172.26 79.18 155.83 44.8 147.72 27.71L151.12 30.69L92.83 11.16L97.41 10.62L64.77 30.69L32.16 50.81L34.21 48.45L10.35 102.33V98.18L36.4 157.47L33.58 154.71C48.36 160.75 78.07 172.97 92.86 178.97L89.22 178.79L156.67 158.05L153 161.34C160.96 142.42 172.31 115.26 180.59 96.18H180.57ZM193.57 95.87C184.67 116.46 172.65 145.71 163.69 165.89L162.59 168.42L160.01 169.18L92.34 189.2L90.46 189.76L88.7 189.03C73.98 182.85 44.28 170.59 29.54 164.47L27.56 163.65L26.71 161.7L0.87998 102.32L-0.0200195 100.25L0.88998 98.18L24.54 44.2L25.19 42.71L26.59 41.84L59.14 21.61L91.67 1.33L93.81 0L96.25 0.79L154.75 19.7L157.06 20.45C166.52 39.77 184.31 76.45 193.57 95.88V95.87Z" fill="currentColor"/>
<path d="M150.95 95.36C145.44 84.15 134.62 61.45 129.31 50.15L132.71 53.13L93.59 39.91L98.17 39.37C90.84 43.82 83.52 48.31 76.23 52.82L54.32 66.32L56.37 63.96L40.31 100.13V95.98L57.84 135.78L55.02 133.02C66.81 137.72 83.22 144.68 94.85 149.27L91.21 149.09L136.48 135.04L132.81 138.33C137.99 125.81 145.48 107.94 150.96 95.36H150.95ZM163.95 95.05C157.89 109.12 149.68 129.13 143.5 142.87L142.39 145.41L139.83 146.16L94.35 159.48L92.44 160.04L90.7 159.3C78.4 154.17 61.47 147.07 49.01 141.93L48.17 139.99L30.86 100.09L29.96 98.02L30.87 95.95L46.72 59.68L47.37 58.19L48.77 57.32L70.62 43.72C78.61 38.76 86.6 33.76 94.55 28.73L97.02 29.52L136.34 42.12L138.64 42.86C145.31 56.37 157.48 81.42 163.95 95.04V95.05Z" fill="currentColor"/>
<path d="M97.3299 95.0901C96.5899 93.7301 95.9899 92.3701 95.4599 90.8801L98.8599 93.8602C97.0999 93.1302 95.3299 92.4302 93.5499 91.7602L98.1199 91.2202C96.0399 92.3602 94.0199 93.5901 91.9599 94.7701L93.9899 92.4402L91.7299 97.4102V93.2602L94.1999 98.7302L91.3999 95.9902C93.2599 96.6802 95.0999 97.4102 96.9699 98.0702L93.3399 97.8902C95.3999 97.1702 97.4499 96.4201 99.4899 95.6301L95.8199 98.9202C96.2199 97.4902 96.7399 96.2702 97.3299 95.0802V95.0901ZM110.33 94.7802C108.8 98.7402 107.02 102.56 105.12 106.26L102.84 106.77C100.03 107.39 97.1299 108.11 94.3399 108.83C91.4299 107.42 88.3299 106.09 85.3899 104.74C84.8799 103.54 82.8199 98.6902 82.2799 97.3902L81.3999 95.3202L82.2799 93.2502C82.7099 92.2302 84.6199 87.7702 85.0099 86.8502C88.0599 84.8102 91.2599 82.7902 94.2599 80.6602C97.5899 81.6202 101.16 82.5802 104.53 83.4002C106.56 87.0902 108.6 90.9202 110.33 94.7902V94.7802Z" fill="currentColor"/>
<path d="M122.36 95.8501C118.58 88.2101 114.94 80.5601 111.38 72.7601L114.78 75.7401L93.9101 68.5201L98.49 67.9801C90.61 72.6801 82.81 77.5101 74.96 82.2801L76.99 79.9501L68.4001 99.3001V95.1501L77.78 116.44L74.9801 113.7L96.3301 122.28L92.7 122.1C100.76 119.57 108.81 117.01 116.86 114.41L113.19 117.7C116.1 110.31 119.18 103.08 122.36 95.8501ZM135.36 95.5401C131.58 104.48 126.75 116.15 122.73 124.83L120.22 125.54C111.45 128 102.68 130.5 93.93 133.04L92.2 132.31C91.3 131.97 69.19 122.56 69.03 122.52C67.89 119.89 59.17 99.8001 58.05 97.2001C59.04 94.9901 67.03 76.6101 68.07 74.2801C76.29 69.0801 84.5601 63.9601 92.75 58.7001L94.82 57.3701L97.3301 58.1501C98.4201 58.4501 120.37 65.3901 120.68 65.4501C125.21 74.3101 131.01 86.4101 135.36 95.5301V95.5401Z" fill="currentColor"/>
<path d="M58.69 28.4302C61.91 36.0602 65.96 43.3402 70.79 50.0602L65.12 53.2302C63.58 49.3702 61.66 45.7102 59.65 42.0902C57.6 38.4902 55.49 34.9402 53.01 31.6002L58.68 28.4302H58.69Z" fill="currentColor"/>
<path d="M147.46 120.45C154.7 124.47 162.37 127.71 170.32 130.03L167.81 136.02C164.22 133.93 160.45 132.23 156.64 130.61C152.81 129.04 148.96 127.54 144.95 126.44L147.46 120.45Z" fill="currentColor"/>
<path d="M98.0801 7.6101C97.3901 17.0201 97.5901 26.4301 98.7401 35.7901L92.2401 35.9401C92.6601 31.2301 92.6701 26.5301 92.5801 21.8301C92.4501 17.1301 92.2101 12.4401 91.5801 7.7501L98.0801 7.6001V7.6101Z" fill="currentColor"/>
<path d="M133.06 16.4399C128.14 24.6399 124.01 33.2399 120.75 42.2299L114.88 39.4299C117.41 35.3599 119.57 31.1099 121.64 26.8199C123.67 22.5099 125.61 18.1599 127.19 13.6299L133.06 16.4299V16.4399Z" fill="currentColor"/>
<path d="M169.28 52.7501C160.52 56.5901 152.18 61.2001 144.31 66.6501L141.15 60.9701C145.57 59.1201 149.79 56.9101 153.96 54.6001C158.11 52.2601 162.21 49.8401 166.12 47.0601L169.28 52.7401V52.7501Z" fill="currentColor"/>
<path d="M180.24 98.5898C170.75 97.4198 161.22 97.1398 151.67 97.8198L151.85 91.3198C156.6 91.9798 161.36 92.2298 166.12 92.3798C170.88 92.4898 175.65 92.4898 180.42 92.0998L180.24 98.5998V98.5898Z" fill="currentColor"/>
<path d="M126.43 172.98C123.63 163.83 120.01 155.01 115.51 146.57L121.52 144.09C122.85 148.7 124.55 153.14 126.36 157.55C128.2 161.94 130.13 166.3 132.44 170.5L126.43 172.98Z" fill="currentColor"/>
<path d="M138.88 168.61C137.57 164.37 135.71 160.33 133.66 156.41L136.37 157.88C134.24 158.19 132.12 158.52 129.99 158.89C127.87 159.25 125.75 159.66 123.64 160.11L122.82 153.66C127.78 153.46 132.75 152.98 137.69 152.43C139.64 157.07 141.89 161.62 144.73 165.79L138.88 168.62V168.61Z" fill="currentColor"/>
<path d="M69.1201 164.92C65.5101 162.33 61.59 160.24 57.59 158.35L60.64 157.89C59.13 159.42 57.64 160.97 56.17 162.54C54.7 164.11 53.26 165.71 51.85 167.35L47.3 162.7C51.13 159.54 54.81 156.16 58.41 152.74C62.77 155.26 67.31 157.53 72.09 159.14L69.13 164.93L69.1201 164.92Z" fill="currentColor"/>
<path d="M154.06 127.81C156.3 123.98 158.02 119.88 159.54 115.72L160.28 118.71C158.62 117.35 156.93 116.01 155.23 114.69C153.53 113.37 151.8 112.08 150.04 110.83L154.25 105.87C157.75 109.39 161.46 112.74 165.2 116C163.1 120.57 161.25 125.3 160.1 130.21L154.06 127.8V127.81Z" fill="currentColor"/>
<path d="M158.4 36.7398C154.89 39.4598 151.77 42.6198 148.82 45.9198L149.24 42.8698C150.28 44.7498 151.34 46.6198 152.43 48.4798C153.52 50.3398 154.65 52.1698 155.81 53.9898L150.06 57.0298C148.12 52.4598 145.92 47.9698 143.66 43.5498C147.31 40.0898 150.78 36.3798 153.68 32.2598L158.39 36.7398H158.4Z" fill="currentColor"/>
<path d="M119.53 12.3902C118.37 16.0502 116.99 21.4202 115.99 25.1802L114.54 22.1602C120.59 25.2102 126.7 28.1502 132.87 30.9402L129.6 31.6702C132.11 28.4202 134.57 25.1302 136.93 21.7702L141.98 25.8702C140.56 27.3602 139.21 28.9102 137.83 30.4302C136.02 32.4802 134.15 34.6602 132.37 36.7502C125.73 33.3402 119 30.0902 112.21 27.0002L110.33 26.1402L110.76 23.9702C111.55 20.1402 112.6 14.7302 113.19 10.9302L119.52 12.3902H119.53Z" fill="currentColor"/>
<path d="M77.24 46.1901C74.76 43.2601 70.94 39.2401 68.29 36.3901L71.62 36.7701C65.82 40.2701 60.08 43.8801 54.43 47.6201L55.55 44.4601C56.97 48.3101 58.44 52.1501 60.04 55.9301L53.89 58.0301C53.38 56.0401 52.79 54.0701 52.24 52.0901C51.47 49.4701 50.61 46.7201 49.79 44.1001C56.21 40.2901 62.54 36.3201 68.77 32.2201L70.5 31.0801L72.11 32.6001C74.93 35.3001 78.95 39.0701 81.86 41.6001L77.25 46.1801L77.24 46.1901Z" fill="currentColor"/>
<path d="M12.76 109.68C16.55 109.08 21.97 107.91 25.78 107.13L23.73 109.78C23.75 103 23.65 96.2298 23.38 89.4498L25.5 92.0398C21.47 91.2498 17.43 90.5198 13.37 89.9198L14.77 83.5698C16.74 84.1698 18.72 84.6898 20.7 85.2398C23.35 85.9398 26.13 86.6398 28.8 87.2898C28.72 94.7498 28.82 102.23 29.09 109.68L29.16 111.75L27.03 112.33C23.26 113.34 17.95 114.82 14.27 115.99L12.75 109.67L12.76 109.68Z" fill="currentColor"/>
<path d="M86.3301 181.85C87.5801 172.37 87.9301 162.84 87.3301 153.29L93.8301 153.52C93.1301 158.26 92.8401 163.02 92.6601 167.78C92.5201 172.54 92.4701 177.31 92.8301 182.08L86.3301 181.85Z" fill="currentColor"/>
<path d="M61.22 171.27C66.79 163.49 71.6 155.26 75.57 146.55L81.19 149.81C78.34 153.66 75.84 157.72 73.44 161.83C71.07 165.96 68.78 170.14 66.85 174.52L61.23 171.26L61.22 171.27Z" fill="currentColor"/>
<path d="M16.77 121.82C26.14 119.91 35.27 117.15 44.1 113.48L46 119.7C41.29 120.58 36.7 121.85 32.14 123.23C27.59 124.64 23.07 126.15 18.67 128.04L16.77 121.82Z" fill="currentColor"/>
<path d="M8.3501 96.1501C17.8901 96.8801 27.4201 96.7101 36.9201 95.6001L37.0501 102.1C32.2801 101.66 27.5101 101.63 22.7501 101.71C17.9901 101.83 13.2301 102.04 8.4801 102.66L8.3501 96.1601V96.1501Z" fill="currentColor"/>
<path d="M31.3699 45.5098C38.3099 52.0898 45.8199 57.9798 53.8899 63.0998L49.8899 68.2198C46.4599 64.8698 42.7899 61.8398 39.0399 58.8998C35.2699 55.9898 31.4399 53.1498 27.3699 50.6298L31.3699 45.5098Z" fill="currentColor"/>
</svg>
