<svg width="56" height="59" viewBox="0 0 56 59" fill="none" xmlns="http://www.w3.org/2000/svg">
<g clip-path="url(#clip0_18_117)">
<path d="M45.06 56.64H32.88L28.82 45.82L30.78 39.95L30.21 39.38L17.75 38.25L6.22001 3.66L5.86001 3.21L6.03001 3.08L5.48001 1.44L9.80001 0L10.28 1.45L35.23 32.63L36.94 35.2L45.28 37.29L50.68 42.69V51.01L45.05 56.64H45.06ZM36.04 52.09H43.18L46.14 49.13V44.58L42.96 41.4L35.71 39.59L33.66 45.74L36.04 52.09ZM21.13 33.99L31.22 34.91L14.45 13.95L21.13 33.99Z" fill="currentColor"/>
<path d="M17.8 56.6399H5.63L0 51.0099V42.6899L5.4 37.29L14.51 35.0099L17.65 33.9599L18.1 35.31L18.5 34.91H32.66L40.83 0.199951L45.26 1.23995L36.26 39.47H20.38L19.9 39.95L21.86 45.82L17.8 56.6399ZM7.51 52.09H14.65L17.03 45.74L14.98 39.59L7.73 41.4L4.55 44.58V49.13L7.51 52.09Z" fill="currentColor"/>
<path d="M40.0809 1.59648L25.0597 24.1284L28.8455 26.6523L43.8667 4.12036L40.0809 1.59648Z" fill="currentColor"/>
<path d="M24.6852 29.5099L22.7812 32.0193L25.3463 33.9656L27.2504 31.4562L24.6852 29.5099Z" fill="currentColor"/>
<path d="M48.7961 49.4092L45.883 52.9044L52.3203 58.2697L55.2334 54.7745L48.7961 49.4092Z" fill="currentColor"/>
</g>
<defs>
<clipPath id="clip0_18_117">
<rect width="55.23" height="58.26" fill="white"/>
</clipPath>
</defs>
</svg>
