<svg width="222" height="212" viewBox="0 0 222 212" fill="none" xmlns="http://www.w3.org/2000/svg">
<g clip-path="url(#clip0_6_57)">
<path d="M147.09 211.75C142.23 196.89 135.92 182.35 129.2 168.25C126.93 163.54 124.56 158.87 121.95 154.31L133.86 149.1C136.99 158.95 141.11 168.86 145.2 178.36C149.45 187.93 153.84 197.41 159 206.54L147.09 211.75Z" fill="currentColor"/>
<path d="M108.49 211.75C103.62 196.89 97.32 182.35 90.6 168.25C88.33 163.54 85.96 158.87 83.35 154.31L95.26 149.1C98.39 158.95 102.51 168.86 106.6 178.36C110.85 187.93 115.24 197.41 120.4 206.54L108.49 211.75Z" fill="currentColor"/>
<path d="M140.29 9.83998C134.97 23.14 130.34 36.71 125.93 50.33L126.06 47.04C129.15 61.25 132.54 75.39 136.37 89.42C137.66 94.1 138.98 98.77 140.45 103.4L125.02 106.89C124.35 102.07 123.53 97.29 122.68 92.52C120 77.66 116.82 62.89 113.34 48.2C115.65 40.82 117.78 33.38 119.87 25.93C121.77 19.02 123.61 12.1 125.2 5.09998L140.29 9.82998V9.83998Z" fill="currentColor"/>
<path d="M114.74 10.46C108.05 23.96 102.03 37.77 96.23 51.66L96.42 47.43C99.17 56.77 102.09 66.06 105.13 75.31C108.23 84.55 111.38 93.77 114.98 102.84L99.85 107.46C95.44 87.71 89.7 68.29 83.65 49C86.78 41.33 89.73 33.58 92.63 25.82C95.24 18.75 97.78 11.66 100.09 4.48999L114.74 10.46Z" fill="currentColor"/>
<path d="M163.89 112.85C134.62 113.36 104.24 112.72 75.13 110.84C74.77 109.74 67.97 80.87 67.37 78.7L60.47 50.55L60.01 48.68L60.85 46.98L82.54 3.12L83.96 0.25H87.17C104.76 0.25 140.19 0.1 157.78 0.03L164.95 0L162.94 6.92C158.58 21.93 154.33 36.98 150.04 52.01L150.13 49.11C155.74 69.63 160.39 91.77 163.9 112.84L163.89 112.85ZM151.66 102.82C146.17 85.14 141.94 68.39 138.67 50.08C143.33 34.69 148.03 19.31 152.62 3.9L157.78 10.8C140.18 10.73 104.77 10.59 87.17 10.58L91.8 7.7L70.19 51.59L70.57 48.02C74.13 62.02 81.33 90.19 84.98 104.17L79.74 99.95C104.25 99.78 127.33 100.8 151.66 102.83V102.82Z" fill="currentColor"/>
<path d="M203.55 95.43C193.24 104.9 183.83 115.53 174.99 126.36C172.05 130 169.19 133.71 166.52 137.59L156.75 129.01C163.63 122.82 170.12 115.73 176.27 108.81C182.41 101.73 188.42 94.56 193.78 86.84L203.55 95.42V95.43Z" fill="currentColor"/>
<path d="M56.21 129.53C53.55 117.48 48.07 93.23 45.35 81.19L47.34 84.4L27.79 67.92L35.73 67.33L14.95 90.24L11.75 81.06L31.41 84.54L35.46 85.26C37.23 101.97 39.17 118.68 41.04 135.38L46.23 181.47L41.06 176.86C85.22 176.95 135.87 176.75 180.14 176.56L174.76 180.92C179.85 156.17 189.06 111.76 194.01 87.02L199.66 87.56L221.77 89.68L220.37 102.6L198.32 99.92L205.07 95.04C199.56 119.19 189.89 163.43 184.56 187.6C138.67 187.36 86.85 187.21 41.06 187.27L36.43 187.28L35.89 182.66C32.81 155.45 28.24 117.32 25.1 90.52L29.58 95.25C23.3 94.22 6.13 91.39 -0.0100021 90.39C4.38 85.44 22.44 65.01 27.17 59.67L30.8 55.56C34.69 58.74 52.29 73.08 56.42 76.47L56.91 78.46L62.85 102.51L68.84 126.55L56.19 129.54L56.21 129.53Z" fill="currentColor"/>
<path d="M172.71 140.82C170.65 147.02 168.34 153.18 165.99 159.25C164.29 159.73 158.65 161.34 156.86 161.85C155.47 162.26 149.74 163.93 148.47 164.3C143.37 162.26 138.22 160.33 133.11 158.35L130.59 157.38C130.28 156.11 126.33 142.16 125.89 140.48L125.37 138.59C125.8 137.79 130.87 127.06 131.45 125.93L132.45 123.84L134.79 123.17C139.61 121.8 144.47 120.46 149.27 119.03L151.28 119.98C154.72 121.64 160.44 124.26 163.9 125.85C166.98 130.7 169.9 135.7 172.71 140.84V140.82ZM159.77 142.03C158.02 139.23 156.37 136.39 154.82 133.34L157.24 135.63C154.54 134.11 149.1 131.1 146.37 129.64L150.23 130.04C145.98 131.08 141.75 132.19 137.5 133.26L140.84 130.5L135.48 141.33L135.81 137.67L139.94 152.03L136.73 148.55C141.36 150.19 145.97 151.87 150.62 153.47L147.11 153.38L153.53 151.22L159.94 149.02L156.23 152.6C157.31 149 158.47 145.51 159.77 142.03Z" fill="currentColor"/>
<path d="M132.04 131.79C132.48 138.3 132.7 144.88 132.83 151.38C131.45 152.47 126.84 156.11 125.38 157.26C124.25 158.17 119.58 161.9 118.55 162.73C113.06 162.78 107.56 162.94 102.07 163.05L99.38 163.1C98.61 162.05 89.64 150.65 88.6 149.27L87.39 147.72C87.49 146.81 88.1 134.96 88.2 133.69L88.33 131.37L90.24 129.86C94.18 126.76 98.16 123.68 102.06 120.53L104.28 120.64C108.09 120.87 114.39 121.11 118.19 121.27C122.88 124.58 127.48 128.1 132.03 131.79H132.04ZM120.53 137.83C117.85 135.9 115.25 133.91 112.65 131.67L115.76 132.87C112.69 132.49 106.51 131.78 103.43 131.47L107.15 130.37C103.61 132.94 100.12 135.58 96.6 138.18L98.65 134.36L97.81 146.42L96.72 142.9L106 154.6L101.72 152.61C106.63 152.37 111.53 152.18 116.44 151.9L113.15 153.16L118.26 148.72L123.34 144.24L121.28 148.96C120.91 145.22 120.66 141.56 120.54 137.84L120.53 137.83Z" fill="currentColor"/>
<path d="M75.38 117.66C81.03 120.93 86.6 124.43 92.06 127.95C92.19 129.7 92.63 135.56 92.77 137.41C92.89 138.85 93.38 144.81 93.49 146.13C90.46 150.71 87.52 155.36 84.54 159.97L83.08 162.23C81.78 162.28 67.31 163.35 65.59 163.44L63.63 163.58C62.93 162.99 53.44 155.86 52.45 155.06L50.6 153.65L50.42 151.22C50.05 146.22 49.72 141.2 49.29 136.2L50.62 134.43C52.94 131.4 56.66 126.31 58.91 123.24C64.28 121.2 69.77 119.36 75.37 117.64L75.38 117.66ZM73.95 130.58C70.86 131.72 67.74 132.77 64.44 133.67L67.17 131.76C65.14 134.1 61.1 138.83 59.12 141.2L60.29 137.5C60.44 141.87 60.68 146.24 60.87 150.62L58.84 146.79L68.36 154.23L64.83 153.17L79.72 152.01L75.68 154.45C78.22 150.25 80.81 146.07 83.32 141.85L82.52 145.28L81.69 138.56L80.82 131.84L83.58 136.18C80.27 134.4 77.09 132.56 73.94 130.58H73.95Z" fill="currentColor"/>
</g>
<defs>
<clipPath id="clip0_6_57">
<rect width="221.78" height="211.75" fill="white"/>
</clipPath>
</defs>
</svg>
