<svg width="66" height="71" viewBox="0 0 66 71" fill="none" xmlns="http://www.w3.org/2000/svg">
<g clip-path="url(#clip0_14_62)">
<path d="M24.71 44.72L18.21 27.73L0 23.52L18.09 17.07L23.78 0L29.64 16.11L43.63 21.71L30.67 27.47L24.71 44.73V44.72ZM16.17 22.58L21.6 23.84L24.49 31.4L27.01 24.1L31.92 21.92L26.05 19.57L23.96 13.83L21.7 20.6L16.16 22.58H16.17Z" fill="currentColor"/>
<path d="M52.06 59.26L48.26 49.33L39.95 45.62L48.26 43L51.56 33.08L55.02 42.58L65.44 45.84L55.46 49.41L52.06 59.26Z" fill="currentColor"/>
<path d="M15.39 70.04L12.85 63.38L6.97 60.76L12.84 58.91L15.09 52.16L17.49 58.75L24.62 60.98L17.67 63.46L15.39 70.04Z" fill="currentColor"/>
</g>
<defs>
<clipPath id="clip0_14_62">
<rect width="65.44" height="70.04" fill="white"/>
</clipPath>
</defs>
</svg>
