<svg width="165" height="154" viewBox="0 0 165 154" fill="none" xmlns="http://www.w3.org/2000/svg">
<g clip-path="url(#clip0_4_29)">
<path d="M39.04 84.83C60.56 64.26 81.83 43.44 103 22.52L124.12 1.55001L125.67 0.0100098C130.85 0.0300098 147.98 0.0900098 153.01 0.10001C153.01 5.07001 153.08 22.29 153.09 27.43L151.55 28.98C131.17 49.43 108.9 72.01 88.91 92.61C82.03 99.76 75.1 106.86 68.27 114.06L59.08 104.87C87.35 77.89 116.39 49.23 144.17 21.59L142.64 25.28L142.7 5.24001L147.86 10.4L127.82 10.47L131.52 8.94001C111.15 29.4 88.86 51.97 68.88 72.58C61.99 79.72 55.07 86.83 48.23 94.03L39.04 84.84V84.83Z" fill="currentColor"/>
<path d="M34.21 74.81C44.09 86.81 55.2 98 66.54 108.63C70.35 112.17 74.24 115.63 78.31 118.91L69.12 128.1C62.66 120.11 55.25 112.41 48.02 105.1C40.62 97.78 33.11 90.58 25.02 84L34.21 74.81Z" fill="currentColor"/>
<path d="M8.98001 122.91C17.98 116.03 26.14 107.95 33.78 99.6C36.31 96.79 38.78 93.91 41.05 90.84L50.24 100.03C44.23 104.51 38.59 109.86 33.26 115.12C27.94 120.52 22.75 126.02 18.17 132.1L8.98001 122.91Z" fill="currentColor"/>
<path d="M21 134.94C30 128.06 38.16 119.98 45.8 111.63C48.33 108.82 50.8 105.94 53.07 102.87L62.26 112.06C56.25 116.54 50.61 121.89 45.28 127.15C39.96 132.55 34.77 138.05 30.19 144.13L21 134.94Z" fill="currentColor"/>
<path d="M30.1 152.25C20.22 153.22 9.89 153.35 0 152.98C0.36 144.71 0.47 136.08 0.5 127.81L0.53 122.68L5.66 122.65C13.53 122.64 23.01 122.51 30.82 122.16C31.18 132.05 31.06 142.36 30.1 152.25ZM20.91 143.06C20.18 137.86 19.81 133.1 20.06 127.81L25.51 133.26C19.77 133.05 11.49 133.01 5.67 132.97L10.83 127.81C10.86 134.35 10.91 141.13 11.13 147.65L5.67 142.19C10.96 141.95 15.72 142.32 20.92 143.05L20.91 143.06Z" fill="currentColor"/>
<path d="M148.69 10.07C125.11 32.39 101.78 55.58 79.09 78.77C72.44 85.59 62.92 95.4 56.49 102.27L50.83 96.61C78.32 70.61 105.46 43.4 131.79 16.22C135.54 12.28 139.32 8.38 143.03 4.41L148.69 10.07Z" fill="currentColor"/>
<path d="M107.02 64.92C111.77 72.81 118.06 79.75 125.53 85.14L115.94 93.92C113.67 89.86 110.77 86.32 107.67 82.91C104.53 79.54 101.26 76.34 97.43 73.71L107.02 64.93V64.92Z" fill="currentColor"/>
<path d="M57.94 76.02C43.65 60.61 27.6 44.11 12.81 29.08L11.28 27.52C11.29 22.34 11.34 5.23002 11.36 0.210016C16.33 0.200016 33.53 0.130016 38.68 0.110016C44.98 6.31002 56.21 17.3 62.59 23.44C70.09 30.65 77.63 37.82 85.27 44.88L76.08 54.07C62.41 39.28 47.03 23.45 32.85 9.05002L36.55 10.58L16.51 10.51L21.67 5.35002L21.73 25.39L20.2 21.7C30.99 32.32 44.34 45.33 55.27 55.68C59.22 59.4 63.15 63.15 67.14 66.82L57.95 76.01L57.94 76.02Z" fill="currentColor"/>
<path d="M96.19 114.26C91.44 107.17 85.19 101.1 77.88 96.68L86.88 87.3C89.16 90.97 92.04 94.08 95.1 97.06C98.21 99.99 101.44 102.74 105.18 104.88L96.17 114.26H96.19Z" fill="currentColor"/>
<path d="M86.07 119C98.07 109.12 109.26 98.01 119.89 86.67C123.43 82.86 126.89 78.97 130.17 74.9L139.36 84.09C131.37 90.55 123.67 97.96 116.36 105.19C109.04 112.59 101.84 120.1 95.26 128.19L86.07 119Z" fill="currentColor"/>
<path d="M134.18 144.23C127.3 135.23 119.22 127.07 110.87 119.43C108.06 116.9 105.18 114.43 102.11 112.16L111.3 102.97C118.16 111.99 126.27 120.13 134.62 127.76C137.43 130.29 140.31 132.76 143.37 135.04L134.18 144.23Z" fill="currentColor"/>
<path d="M146.2 132.2C139.32 123.2 131.24 115.04 122.89 107.4C120.08 104.87 117.2 102.4 114.13 100.13L123.32 90.94C127.8 96.95 133.15 102.59 138.41 107.92C143.81 113.24 149.31 118.43 155.39 123.01L146.2 132.2Z" fill="currentColor"/>
<path d="M163.51 123.11C164.48 132.99 164.61 143.32 164.24 153.21C155.97 152.85 147.34 152.74 139.07 152.71L133.94 152.68L133.91 147.55C133.9 139.68 133.77 130.2 133.42 122.39C143.31 122.03 153.62 122.15 163.51 123.11ZM154.32 132.3C149.12 133.03 144.36 133.4 139.07 133.15L144.52 127.7C144.31 133.44 144.27 141.72 144.23 147.54L139.07 142.38C145.61 142.35 152.39 142.3 158.91 142.08L153.45 147.54C153.21 142.25 153.58 137.5 154.31 132.29L154.32 132.3Z" fill="currentColor"/>
</g>
<defs>
<clipPath id="clip0_4_29">
<rect width="164.43" height="153.21" fill="white"/>
</clipPath>
</defs>
</svg>
