<svg width="72" height="62" viewBox="0 0 72 62" fill="none" xmlns="http://www.w3.org/2000/svg">
<g clip-path="url(#clip0_16_91)">
<path d="M22.29 61.7L15.37 58.24L10.58 53.45L9.42 44.15L11.8 38.21L16.36 33.65L23.31 30.17L30.72 31.4L37.61 38.29L39.95 46.49L37.57 53.63L30.7 60.5L22.29 61.7ZM18.06 54.5L23.05 57L28.55 56.22L33.59 51.18L35.18 46.4L33.55 40.69L28.53 35.67L24.02 34.92L19.05 37.4L15.67 40.78L14.08 44.77L14.9 51.36L18.06 54.52V54.5Z" fill="currentColor"/>
<path d="M11.9217 43.3287L11.5615 45.5801L36.3858 49.5518L36.746 47.3005L11.9217 43.3287Z" fill="currentColor"/>
<path d="M33.7532 36.716L15.8793 55.5841L17.5345 57.1521L35.4084 38.284L33.7532 36.716Z" fill="currentColor"/>
<path d="M19.7352 34.05L17.6625 34.9999L28.5857 58.8362L30.6584 57.8864L19.7352 34.05Z" fill="currentColor"/>
<path d="M41.1756 42.2718L39.9069 46.6414L70.6859 55.5776L71.9546 51.2081L41.1756 42.2718Z" fill="currentColor"/>
<path d="M12.36 40.25L0 37.16L10.14 0L22.5 3.09L12.36 40.25ZM5.61 33.87L9.13 34.75L16.87 6.38L13.35 5.5L5.61 33.87Z" fill="currentColor"/>
<path d="M50.1 49.1899L37.74 46.0999L47.88 8.93994L60.24 12.0299L50.1 49.1899ZM43.35 42.8099L46.88 43.6899L54.62 15.3199L51.09 14.4399L43.35 42.8099Z" fill="currentColor"/>
<path d="M33.2 37.27L20.84 34.18L29.02 4.96997L41.38 8.05997L33.2 37.27ZM26.48 30.9L30 31.78L35.72 11.34L32.2 10.46L26.48 30.9Z" fill="currentColor"/>
<path d="M5.23 7.71001L10.02 8.93001L10.62 6.74001L5.79 5.51001L5.23 7.71001Z" fill="currentColor"/>
<path d="M37.44 13.5701L36.83 15.7601L47.58 18.5001L48.18 16.3001L37.44 13.5701Z" fill="currentColor"/>
<path d="M60.4 19.4101L56.11 18.3201L55.52 20.5201L59.84 21.6201L60.4 19.4101Z" fill="currentColor"/>
<path d="M18.55 8.76001L17.95 10.95L28.89 13.74L29.51 11.55L18.55 8.76001Z" fill="currentColor"/>
<path d="M3.24001 15.66L8.03001 16.88L8.63001 14.68L3.80001 13.45L3.24001 15.66Z" fill="currentColor"/>
<path d="M35.45 21.51L34.84 23.7L45.59 26.44L46.19 24.24L35.45 21.51Z" fill="currentColor"/>
<path d="M58.41 27.35L54.13 26.26L53.53 28.46L57.85 29.56L58.41 27.35Z" fill="currentColor"/>
<path d="M16.57 16.7L15.97 18.9L26.91 21.68L27.52 19.49L16.57 16.7Z" fill="currentColor"/>
<path d="M1.25 23.82L6.05 25.04L6.65 22.85L1.82 21.62L1.25 23.82Z" fill="currentColor"/>
<path d="M33.47 29.67L32.85 31.87L43.61 34.6L44.21 32.41L33.47 29.67Z" fill="currentColor"/>
<path d="M56.43 35.5201L52.14 34.4301L51.54 36.6201L55.87 37.7201L56.43 35.5201Z" fill="currentColor"/>
<path d="M14.58 24.87L13.98 27.06L24.92 29.85L25.53 27.65L14.58 24.87Z" fill="currentColor"/>
</g>
<defs>
<clipPath id="clip0_16_91">
<rect width="71.96" height="61.7" fill="white"/>
</clipPath>
</defs>
</svg>
