<svg width="239" height="110" viewBox="0 0 239 110" fill="none" xmlns="http://www.w3.org/2000/svg">
<g clip-path="url(#clip0_110_7615)">
<path d="M154.514 85.5789C154.657 84.9968 154.76 84.4147 154.786 83.5739H151.951C150.89 83.5998 148.34 83.5998 146.476 83.5998H146.282L146.243 82.3451H154.631C154.669 81.8665 154.682 81.3362 154.682 80.767C154.682 78.568 154.424 76.3432 154.165 75.5412C152.21 74.8427 148.754 74.7393 146.851 74.7393C145.414 74.7393 143.978 74.8039 143.084 74.8945C142.398 75.58 141.13 76.9382 140.379 77.973C140.34 78.5939 140.314 79.4347 140.314 80.4048C140.314 81.6983 140.366 84.958 140.845 87.5579C142.204 88.0883 145.803 88.5022 149.155 88.5022C150.191 88.5022 151.019 88.4763 151.744 88.4116C152.857 87.5967 153.66 86.8594 154.488 85.5918L154.514 85.5789ZM146.152 79.0078H146.476C147.097 79.0466 147.796 79.0725 148.482 79.1113H148.663L148.702 80.3272H146.204L146.165 79.0078H146.152Z" fill="#C43A2C"/>
<path d="M160.714 67.5215L160.546 63.5375L161.219 63.5893L162.889 67.4827L169.05 67.5474L168.895 61.2868C167.523 61.3386 164.662 61.3127 163.6 61.1316L163.445 61.1057V60.4202H163.626C165.206 60.3037 166.927 60.045 168.739 59.6441L169.063 54.47C167.354 54.4312 164.235 54.276 163.057 54.1854C162.798 54.677 162.086 55.9446 161.581 56.6819C161.309 57.07 161.012 57.458 160.701 57.7297L160.364 58.0401L160.61 49.5547L153.672 49.8263L154.009 57.1605L153.789 67.5086L157.297 67.3922L160.74 67.5086L160.714 67.5215Z" fill="#C43A2C"/>
<path d="M126.684 67.4561H140.353L141.803 58.3757L143.291 49.6315L135.007 49.6833L134.476 60.7557L133.234 60.7169L132.845 49.4893L124.276 49.6574L125.415 58.2075L126.684 67.4561Z" fill="#C43A2C"/>
<path d="M152.184 67.6633L151.588 59.6306L151.912 54.4307L144.857 54.6376V67.6633L148.844 67.5339L152.184 67.6633Z" fill="#C43A2C"/>
<path d="M145.039 49.6836L144.974 53.2795L151.64 53.1502L152.003 49.6318L145.039 49.6836Z" fill="#C43A2C"/>
<path d="M124.574 46.7989L128.134 46.7084L132.781 46.8248L132.418 36.5673L132.82 28.9873H124.522L124.768 37.2916L124.574 46.7989Z" fill="#C43A2C"/>
<path d="M230.431 47.071C231.272 46.6571 231.855 46.3337 232.631 45.881L232.722 45.8552L233.279 45.8163L233.758 47.0452L239.013 46.5278C238.702 44.1348 238.521 42.7637 238.456 40.8493C238.521 38.9478 238.637 37.0205 238.715 36.0762L235.505 33.334C231.233 33.334 226.936 33.4633 224.244 34.3559L225.163 38.5986C229.111 37.8871 231.868 37.8354 232.618 37.8354H232.826L232.787 38.8961H232.606C231.233 38.9478 225.849 39.5946 224.528 39.8403C224.334 41.095 224.308 42.699 224.308 44.9497L227.298 47.0581H230.444L230.431 47.071ZM229.706 42.9318C229.706 42.7507 229.706 42.5567 229.758 42.1298V41.9876L229.926 41.9617C230.742 41.8323 231.648 41.6901 232.489 41.6512H232.683L232.761 42.699L232.606 42.7378C231.881 42.9189 231.091 43.1517 230.34 43.4104L230.237 43.4492L229.719 43.0353V42.9448L229.706 42.9318Z" fill="#C43A2C"/>
<path d="M167.29 37.8483H167.497L167.458 38.909H167.277C165.905 38.9607 160.52 39.6075 159.2 39.8533C159.005 41.108 158.98 42.7119 158.98 44.9626L161.97 47.071H165.115C165.956 46.6571 166.539 46.3337 167.316 45.881L167.406 45.8552L167.963 45.8163L168.442 47.0452L173.697 46.5278C173.386 44.1348 173.205 42.7637 173.14 40.8493C173.205 38.9478 173.322 37.0205 173.399 36.0762L170.189 33.334C165.918 33.334 161.62 33.4633 158.928 34.3559L159.847 38.5986C163.795 37.8871 166.552 37.8354 167.303 37.8354L167.29 37.8483ZM167.264 42.7378C166.539 42.9189 165.749 43.1517 164.999 43.4104L164.895 43.4492L164.377 43.0353V42.9448C164.377 42.7637 164.377 42.5696 164.429 42.1428V42.0005L164.597 41.9746C165.413 41.8453 166.319 41.703 167.16 41.6642H167.354L167.432 42.7119L167.277 42.7507L167.264 42.7378Z" fill="#C43A2C"/>
<path d="M149.854 35.5718C149.763 35.7011 149.647 35.8175 149.543 35.9339C149.492 35.9857 149.44 36.0504 149.388 36.1021L149.052 36.4901L149.026 34.136C147.848 33.8514 146.152 33.5798 143.977 33.334C143.434 33.8773 142.89 34.4593 142.359 35.0802L142.114 35.3648C141.932 35.5718 141.764 35.7787 141.596 35.9857L141.182 36.516L141.466 33.5539L134.632 33.8902L134.8 40.2155L134.632 46.7994L138.114 46.683L141.415 46.7994L141.272 40.3707L143.123 40.306L143.046 46.8253L145.867 46.7347L149.259 46.8253L149.09 40.2155L150.864 40.2801L150.773 46.8253L153.698 46.7347L157.116 46.8253L156.973 40.8105L157.284 34.6016C155.653 34.1618 152.896 33.6056 151.291 33.4504C151.045 33.9031 150.437 34.8474 149.854 35.5459V35.5718Z" fill="#C43A2C"/>
<path d="M169.076 80.0038L162.086 80.3402L161.996 79.4994L162.177 79.4735C164.572 79.0466 166.565 78.969 169.167 78.982C169.348 77.8307 169.529 76.3303 169.555 75.2955C168.39 74.9333 166.449 74.7393 164.054 74.7393C161.051 74.7393 158.035 75.0109 156.766 75.1661C156.495 75.8387 156.275 78.1283 156.275 80.2625C156.275 81.375 156.326 82.2545 156.43 82.8884L164.093 83.1859L163.976 84.0913H163.821C162.086 84.2077 160.611 84.1948 159.174 84.1819C158.268 84.1819 157.401 84.1689 156.533 84.1819C156.313 84.9968 155.964 86.9241 155.912 87.9072C157.388 88.1918 160.248 88.4763 163.057 88.4763C163.886 88.4763 164.973 88.4634 165.944 88.3599L169.348 86.9112C169.503 85.346 169.322 81.4138 169.076 80.0038Z" fill="#C43A2C"/>
<path d="M128.134 88.1005L132.781 88.2169L132.483 82.2021L138.282 82.5642L138.308 76.8728L132.431 76.9633L132.535 75.3077L138.916 75.7863L139.059 70.3535L124.522 70.3794L124.768 78.6837L124.574 88.191L128.134 88.1005Z" fill="#C43A2C"/>
<path d="M213.526 46.7084L216.827 46.8248L216.685 40.4866L222.652 40.4349L222.807 34.3554C221.862 33.9673 220.076 33.5275 219.209 33.3594C218.924 33.7216 218.303 34.4847 217.63 35.2608C217.435 35.4807 217.215 35.7265 216.995 35.9464L216.607 36.3344L216.879 33.6698L210.174 34.0191L210.342 40.2408L210.174 46.8248L213.526 46.7084Z" fill="#C43A2C"/>
<path d="M178.059 67.6633L177.477 59.6306L177.8 54.4307L170.733 54.6376V67.6633L174.733 67.5339L178.059 67.6633Z" fill="#C43A2C"/>
<path d="M196.401 33.3464C195.197 34.1096 193.23 36.1016 192.803 36.6449C192.635 37.8478 192.544 39.3742 192.544 40.8488C192.544 42.7502 192.635 44.3542 192.803 45.4925C193.696 46.2168 196.272 46.9024 197.631 47.0447H198.188L201.605 45.195L202.006 45.3114L201.825 46.7601H208.219L208.129 39.012L208.323 28.9873H200.518C200.66 29.7893 200.815 30.6301 200.958 31.4708C201.061 32.0917 201.178 32.7126 201.281 33.3076L201.32 33.5405L200.53 33.5017C199.145 33.437 197.786 33.3723 196.414 33.3335L196.401 33.3464ZM201.799 38.7533V40.9911L201.67 41.0299C201.152 41.198 200.453 41.4309 199.935 41.6378L199.857 41.6637L199.236 41.3921V41.1463C199.197 40.8747 199.184 40.6418 199.184 40.409C199.184 39.9433 199.249 39.3742 199.353 38.818L199.378 38.6628L201.786 38.7404L201.799 38.7533Z" fill="#C43A2C"/>
<path d="M170.927 49.6836L170.862 53.2795L177.516 53.1502L177.891 49.6318L170.927 49.6836Z" fill="#C43A2C"/>
<path d="M179.69 79.9129L183.03 79.9905V75.2045L179.807 75.3468L179.885 72.0742L173.05 72.3976V75.3209L170.798 75.2045V79.8482H173.011L172.843 86.4968C173.71 87.2083 174.966 87.868 176.674 88.5018C178.409 88.5018 181.024 88.3854 182.797 88.1784L182.862 82.5387L179.613 82.8362L179.69 79.9258V79.9129Z" fill="#C43A2C"/>
<path d="M182.874 35.5195C182.706 35.7136 182.512 35.9076 182.331 36.0757L181.955 36.4509L182.227 33.5275L175.341 33.8897L175.509 40.2926L175.341 46.9024L178.887 46.7472L182.162 46.9024L182.02 40.1891L183.923 40.1244L183.819 46.9283L187.146 46.786L190.615 46.9283L190.408 40.8876L190.783 34.8598C189.113 34.2648 186.046 33.5663 184.816 33.3594C184.428 33.8121 183.651 34.6788 182.874 35.5066V35.5195Z" fill="#C43A2C"/>
<path d="M191.715 67.4823L195.184 67.6246L194.977 61.5839L195.352 55.5561C193.683 54.9611 190.615 54.2626 189.385 54.0557C188.997 54.5084 188.22 55.375 187.444 56.2029C187.275 56.3969 187.081 56.5909 186.9 56.7591L186.525 57.1342L186.796 54.2109L179.91 54.5731L180.078 60.9759L179.91 67.5858L183.457 67.4305L186.732 67.5858L186.589 60.8725L188.492 60.8078L188.389 67.6116L191.715 67.4693V67.4823Z" fill="#C43A2C"/>
<path d="M211.002 65.891C209.423 65.5418 207.067 65.1796 205.294 65.1408H205.099L205.138 64.3259H205.319C206.588 64.3 207.805 64.2354 208.75 64.1319C209.552 63.6533 210.225 63.2264 210.95 62.515C211.028 61.8294 211.106 60.5618 211.106 59.2812C211.106 57.1211 210.911 55.4007 210.601 54.6246C210.096 54.4823 209.449 54.3659 208.607 54.2753L208.4 54.2495L208.957 51.7142L203.792 51.2227L203.481 54.0425H203.313C201.889 54.0425 200.504 54.0813 199.663 54.1589C199.042 54.6893 197.786 55.8276 197.009 56.6683C196.971 57.1469 196.945 57.7678 196.945 58.4534C196.945 59.6434 197.022 61.8941 197.501 63.8473C197.89 63.9767 198.537 64.0931 199.469 64.1836H199.624L199.676 64.7916L196.673 65.4642L197.048 68.3616L196.039 71.2462L199.65 73.7685C204.258 73.7685 208.193 73.4451 210.238 73.1606C211.196 70.6124 211.455 69.8492 211.83 67.0423L211.028 65.904L211.002 65.891ZM202.964 58.337C203.598 58.3628 204.323 58.3887 205.022 58.4146H205.203L205.268 60.4712H205.009C204.349 60.4971 203.676 60.523 203.028 60.5747H202.821L202.757 58.337H202.964ZM206.29 69.7974L201.669 69.7457V68.8791L206.355 68.6462L206.277 69.7974H206.29Z" fill="#C43A2C"/>
<path d="M99.4757 35.5844L100.796 33.8253L96.0844 29.4144L89.457 34.5626L89.7547 37.3565L86.8164 36.9167L78.571 43.6818L77.8332 42.9445L80.189 34.8601C85.1984 30.7467 89.0169 26.1806 91.5151 19.2733C89.1593 10.5938 81.3669 2.65169 75.1796 0.0129351L74.4418 0.892521C77.6778 5.60089 78.8558 9.13217 80.3314 15.1599C77.3931 18.0962 74.4418 20.3081 71.0634 22.2225L56.9414 14.7201L43.1041 21.3429C39.8681 19.131 36.9298 16.337 34.2762 13.6983L40.4635 0.7373L39.2856 0C33.6938 3.53128 28.6844 7.79986 24.2705 13.5301C24.2705 22.5071 28.6844 30.5915 33.5384 34.265L35.2988 42.647L34.4186 43.3843L25.8885 36.9167L23.3902 37.3565V34.1228L16.9182 29.1169L12.2065 33.5278L13.5268 35.2869C10.2908 39.5555 5.13906 44.5484 -0.0126953 47.6399C6.01926 60.575 13.3845 66.758 22.057 69.6943C24.1151 64.4038 25.4354 58.8158 25.5907 52.9304C22.4971 52.4906 19.9989 51.4558 16.9053 49.1016L21.1768 42.9316L32.0628 51.611L29.707 56.6169L31.6227 61.3253C30.7425 68.5301 30.4448 75.7349 31.0402 82.7975C33.396 85.0094 36.3344 87.3507 38.6902 88.5277L40.3082 97.5047C45.3176 100.001 51.7896 105.447 56.9414 110C62.6756 103.532 69.0053 98.6818 75.1926 95.1505L76.2281 87.6482L82.5578 82.0602C82.9979 74.4156 83.1402 68.2326 82.1177 61.9073L84.3311 57.6388L80.9527 51.9085L91.8387 43.2291L95.9549 49.8518C92.8613 51.611 90.5054 52.5035 87.4248 52.7881C87.5671 59.1134 88.9004 64.7013 91.6963 69.8495C99.644 67.0555 106.996 60.8725 113.028 47.9374C107.876 44.846 102.725 39.853 99.4887 35.5844H99.4757ZM11.9218 49.5543C14.5753 52.7881 18.5492 55.4398 21.6299 56.6169L20.3096 63.964C13.6822 61.0278 8.68574 56.1642 5.00962 49.2568C8.38803 46.7603 13.0997 42.4918 15.8956 38.663L18.2514 40.5774L11.9218 49.5543ZM79.7618 55.1423L80.2019 55.5821C79.3217 58.0786 77.7037 59.9929 75.788 61.6098C73.2898 61.9073 70.7786 61.6098 68.4357 61.0277V60.2905C72.552 59.5532 76.6811 57.9363 79.7618 55.1423ZM55.9188 80.8831L54.0031 78.3866L52.2427 80.4433L51.8026 75.5927L46.2107 78.5289C47.531 74.7001 50.0422 72.3589 52.8381 70.7291C53.7183 71.6087 55.3363 72.6435 57.1096 73.0833C59.1678 72.6435 60.4881 71.4664 61.9637 70.147L66.0799 72.5012L67.6979 77.0543L63.7241 75.8772L62.9863 79.8483L61.2259 76.0195L59.4655 79.8483L56.2294 75.2952C55.9317 77.2095 55.7893 78.9687 55.9317 80.8831H55.9188ZM46.2107 67.353C45.0328 70.4445 44.4503 72.6435 43.7125 76.1747C42.0945 73.523 41.3567 71.7639 40.1788 67.9351C42.2369 65.8784 44.4503 63.5242 49.162 61.4675L56.0741 65.5809H57.9898L63.4393 61.4675C67.1154 62.3471 70.6492 64.1192 73.1474 66.1759C72.7073 70.147 72.4096 73.3808 71.2317 76.4722C70.6492 74.2603 70.3515 70.8843 69.0182 67.4953L46.2107 67.353ZM43.4148 53.0856L51.5048 52.5035L49.4467 57.6517C43.8549 57.0696 39.7387 54.8577 36.5026 52.206L37.2404 51.0289L43.4148 53.0856ZM69.1736 53.0856L76.8235 51.4687L77.2636 52.6458C74.3253 55 69.3159 56.9144 64.7596 57.9363L62.9992 52.4906L69.1736 53.0727V53.0856ZM84.4735 16.4664L80.9397 8.08443L81.3798 7.78692C84.1758 10.8784 86.0915 14.4097 87.8519 18.3808C85.7938 22.2095 82.5578 26.3229 78.7263 29.5567L75.6327 25.4433L84.4605 16.4664H84.4735ZM54.016 40.2928L57.252 36.9167L60.4881 40.0082C65.6398 40.3057 69.3159 39.7107 74.0276 38.3913L75.2055 42.2201L61.8084 43.2549L58.87 49.5802L61.666 58.4019L57.1096 61.3382L52.9934 58.5442L55.3492 49.5673L52.5533 42.9445L38.7161 42.647L40.0364 37.9386C44.0102 39.5555 48.7219 40.2928 54.016 40.2928ZM27.5194 14.7072L33.5514 7.64464L33.8491 7.78692L30.4707 14.6943C33.5643 19.2474 36.0625 21.8991 39.7387 24.5508L36.5026 29.104C32.3864 25.5727 29.2928 22.0414 27.5194 14.6943V14.7072ZM34.4316 54.8577C36.9298 57.794 41.059 59.8636 45.3176 60.4457L45.4599 61.0277C43.1041 61.6098 39.7257 62.2048 37.2146 61.9073C35.2988 60.2905 34.1209 57.4965 33.9785 55L34.4186 54.8577H34.4316ZM47.3757 95.1505L43.4018 86.4711L42.2239 89.8471C40.0105 86.1736 38.1077 82.3448 36.7745 77.9339L35.4542 82.6423C33.2407 75.4374 33.9785 69.7072 36.192 64.559L36.4897 74.8554L37.9653 72.5012C38.7031 75.5927 39.881 79.8483 41.2013 82.6423L41.6414 79.5508C43.4018 82.4871 45.0198 84.8412 47.3757 86.8979L47.9582 83.0691C50.7541 88.6571 52.6698 94.6848 53.9901 101.01L47.2203 90.1317L47.3627 95.1376L47.3757 95.1505ZM57.2391 106.184C57.2391 103.248 57.3815 99.7166 57.9769 97.2072C56.6566 96.6251 55.3234 95.1505 54.3008 93.5336L56.799 93.6759L51.6472 83.2373L55.9188 86.6134L56.799 83.0821L58.8571 87.4929C60.1774 85.1388 61.9507 83.2244 63.5688 82.3448L61.653 88.5148L65.0314 86.1606C63.8535 89.8342 61.7954 92.4859 59.8797 94.9824L62.9733 93.663C60.6175 97.7763 58.8571 101.747 57.2391 106.158V106.184ZM80.2019 80.4433L77.7037 77.0673C75.788 83.095 73.7299 88.3855 71.6718 92.654L71.0893 88.5407C69.0312 92.654 66.8177 95.8878 64.1771 98.0997L69.0312 80.1587C69.3289 82.0731 69.4713 84.4273 69.1736 86.7815C71.6718 83.69 73.4451 80.1587 74.7654 76.1877L75.2055 78.5419C76.9659 74.7131 78.0014 69.1251 77.8591 63.3949C79.6195 67.6634 80.5126 73.3937 80.2149 80.4563L80.2019 80.4433ZM93.4438 64.4167L91.3856 56.9144C94.4793 55.7373 98.4531 53.0856 101.094 49.8518L94.4663 41.1724L97.2623 38.6759C100.058 42.5047 104.615 47.0579 108.006 49.5543C104.33 56.4617 100.058 61.17 93.4308 64.4038L93.4438 64.4167ZM49.5762 46.6051C50.0292 46.7215 50.4434 46.8638 50.7929 47.0579L51.3884 49.4508L48.1653 49.813L49.5762 46.6051ZM43.9843 46.4111L45.3176 50.0976L41.2531 48.9334L41.8485 46.6698C42.5734 46.5663 43.2853 46.4758 43.9843 46.4111ZM72.8367 49.218L68.6817 50.214L70.4291 46.23C71.0246 46.3594 71.62 46.5534 72.2413 46.7992L72.8497 49.218H72.8367ZM64.5655 46.5663L65.834 50.0847L62.4685 49.4896L63.6723 46.7992C63.983 46.7086 64.2677 46.631 64.5525 46.5534L64.5655 46.5663Z" fill="#C43A2C"/>
</g>
<defs>
<clipPath id="clip0_110_7615">
<rect width="239" height="110" fill="white"/>
</clipPath>
</defs>
</svg>
