<svg width="94" height="212" viewBox="0 0 94 212" fill="none" xmlns="http://www.w3.org/2000/svg">
<path d="M36.9433 147.308L20.5766 166.326L23.3825 165.545L17.302 177.081H19.7955L17.6145 182.693L19.3288 182.381L13.7171 201.868L4.98694 206.232L0 212H25.8759L26.8112 206.855L32.5792 197.658L36.9433 188.461L45.8296 183.785L44.4257 186.798L63.9107 177.394L58.9238 163.052L36.9433 147.308Z" fill="#38221C"/>
<path d="M71.082 207.167L75.6023 203.426L71.082 193.294L64.3787 185.655L63.133 188.461L58.4565 168.664L49.2577 165.235L42.244 160.09L35.6969 150.27L34.7616 153.232L33.6701 145.75L32.4243 148.712L31.0204 132.968L28.9936 135.618L28.5269 113.637L26.8105 116.912L32.5786 85.5782L73.7317 66.5618L80.1226 69.0553L84.4886 95.5561L86.0468 104.597L87.7612 115.197L91.5024 136.863L89.4755 134.839L91.1899 152.764L89.3193 148.712L87.7612 170.068L88.5402 178.173L86.6697 176.146L89.4755 202.178L93.0605 212H69.0552L71.082 207.167Z" fill="#57342C"/>
<path d="M26.0306 69.6779L22.6019 78.6157L20.2626 94.8539L13.0927 104.84L9.03906 116.287L10.443 126.211L15.5862 135.305H18.2358L25.0954 126.887V123.457L22.6019 118.47L31.0196 116.443L41.1516 86.6695L26.0306 69.6779Z" fill="#7A4C41"/>
<path d="M65.0021 86.9813L67.4956 96.3343L60.7942 104.752L52.8432 110.364L45.0484 120.808L43.4902 127.043L43.9589 129.849L49.8811 134.213L57.0511 130.94L67.3394 118.938L81.0584 107.87L84.6434 98.6716L86.2015 100.232L85.5787 86.6689L87.293 87.7604L82.6166 75.4453L78.4087 69.6793L65.0021 86.9813Z" fill="#7A4C41"/>
<path d="M80.2783 64.5348L82.6155 75.4459L79.6554 72.64L73.8874 84.4885L73.2625 80.591L60.1703 94.1519L61.1056 89.3192L45.6722 100.699L36.7879 89.7878L35.3839 94.1519L26.1872 77.7852L23.6937 81.2139L24.4728 70.6132L21.1982 73.1087L30.8637 55.9609L26.9662 58.3001L32.7342 50.6615L33.3571 45.2059L31.9552 32.4222L70.3953 28.4457L72.6397 28.2143L72.0168 40.3732L72.173 47.0765L85.2672 66.7178L80.2783 64.5348Z" fill="#57342C"/>
<path d="M80.2783 64.5348L82.6155 75.4459L79.6554 72.64L73.8874 84.4885L73.2625 80.591L60.1703 94.1519L61.1056 89.3192L45.6722 100.699L36.7879 89.7878L35.3839 94.1519L26.1872 77.7852L23.6937 81.2139L24.4728 70.6132L21.1982 73.1087L30.8637 55.9609L28.2634 65.9367L33.0467 81.1071L35.9574 69.6779L44.8931 84.437L45.9332 77.3679L49.6744 86.3076L55.9111 75.2897V79.8614L64.222 70.5084L65.6753 74.2496L67.3403 59.2848L72.1216 65.7311L67.9632 52.014L70.3953 28.4457L72.6397 28.2143L72.0168 40.3732L72.173 47.0765L85.2672 66.7178L80.2783 64.5348Z" fill="#38221C"/>
<path d="M76.4874 144.085L62.3511 162.379L58.4557 168.663L49.2569 165.235L42.2432 160.091L56.1164 163.833L55.4936 158.844L60.2749 160.091L76.4874 144.085Z" fill="#38221C"/>
<path d="M58.9227 6.07826L52.8443 4.83054L43.0226 5.45539L33.203 13.4044L28.9932 31.9542L30.7075 29.9274L30.8638 33.8248L40.5292 41.4634V38.9699L50.505 45.2046L62.1953 37.566L59.5456 41.6196L71.8607 30.0836L74.6666 30.8627L69.8339 15.8979L62.6639 7.01356L58.9227 6.07826Z" fill="#7A4C41"/>
<path d="M53.7781 20.2636L52.22 18.8616L46.6082 19.0159L44.8918 20.8865L42.0879 31.331L42.867 33.6702L48.3226 37.8781L50.1932 37.5656L55.6487 33.514L56.8965 31.1747L53.7781 20.2636Z" fill="#CFAA8D"/>
<path d="M45.8286 26.8103L49.726 29.46L52.8443 26.9665V25.0959L51.128 22.9129L47.2306 22.7567L45.8286 25.4083V26.8103Z" fill="#2B2523"/>
<path d="M58.4544 18.9395C58.4544 20.2742 57.9304 21.3558 57.2858 21.3558C56.6392 21.3558 56.1172 20.2742 56.1172 18.9395C56.1172 17.6048 56.6392 16.5231 57.2858 16.5231C57.9304 16.5231 58.4544 17.6048 58.4544 18.9395Z" fill="#2B2523"/>
<path d="M58.9233 6.858L63.5998 1.24621L66.7182 0.310909L70.7698 1.55863L72.7966 5.61028L72.0175 11.3783L69.8345 15.8986L58.9233 6.858Z" fill="#38221C"/>
<path d="M59.3911 8.10543L62.6637 4.8309L65.782 2.64986L69.0565 3.58515L69.9918 6.7015L68.1212 16.2107L59.3911 8.10543Z" fill="#CFAA8D"/>
<path d="M43.0231 5.45561L40.2172 2.18108L34.9179 3.52859e-05L31.3329 2.80593L30.8643 7.63864L33.2035 13.4047L43.0231 5.45561Z" fill="#38221C"/>
<path d="M35.8524 12.1588L33.3589 7.1699L33.8255 4.20779L37.2543 2.80583L42.2432 7.32611L35.8524 12.1588Z" fill="#CFAA8D"/>
<path d="M43.1791 18.9398C43.1791 20.2746 42.655 21.3562 42.0104 21.3562C41.3638 21.3562 40.8418 20.2746 40.8418 18.9398C40.8418 17.6051 41.3638 16.5235 42.0104 16.5235C42.655 16.5235 43.1791 17.6051 43.1791 18.9398Z" fill="#2B2523"/>
</svg>
