<svg width="213" height="86" viewBox="0 0 213 86" fill="none" xmlns="http://www.w3.org/2000/svg">
<g clip-path="url(#clip0_57_1400)">
<path d="M77.84 30.95L79.07 29.61L72.49 20.36L68.69 23.44L68.28 23.13C68.9 21.9 70.23 19.43 70.85 17.58C69.2 9.35 62.42 3.49 55.01 0L52.03 4.83C54.81 8.94 55.53 10.59 56.25 13.67L53.27 16.04L43.6 10.9L34.24 15.42L31.57 12.95L35.89 3.59L31.47 0.31C25.09 4.01 21.29 7.2 17.79 12.55C17.79 17.49 18.72 20.26 20.26 23.24L19.75 23.65L15.53 20.26L8.33 26.84L9.46 28.49C7.4 30.86 4.63 33.01 0 36.2C4.22 47.2 9.97 53.06 20.15 56.25L22 53.47L22.51 53.68C22.41 56.56 22.1 60.47 22.51 63.96C23.54 65.19 26.31 67.66 27.75 68.69L28.57 74.04C32.79 75.38 40.4 81.85 43.79 85.04C48.83 78.97 54.9 74.86 59.01 72.19L59.63 66.84L64.87 62.73C64.77 59.34 64.46 55.84 64.15 53.37L64.66 53.16L66.72 56.04C76.49 52.24 80.81 48.64 85.85 37.74C82.05 34.86 79.89 32.91 77.83 30.95H77.84ZM67.76 52.85C65.81 49.25 64.88 45.34 64.78 40.92C66.94 40.71 68.58 40.1 70.74 38.86L67.86 34.23L60.25 40.3L62.62 44.31L61.08 47.29C61.8 51.71 61.7 56.03 61.39 61.38L56.97 65.29L56.25 70.53C51.93 73 47.51 76.39 43.5 80.92C39.9 77.73 35.38 73.93 31.88 72.18L30.75 65.91C29.1 65.09 27.05 63.44 25.4 61.9C24.99 56.96 25.19 51.93 25.81 46.89L24.47 43.6L26.12 40.1L18.51 34.03L15.53 38.35C17.69 40 19.44 40.72 21.6 41.02C21.5 45.13 20.57 49.04 19.13 52.74C13.06 50.68 7.92 46.36 3.71 37.32C7.31 35.16 10.91 31.66 13.17 28.68L12.24 27.45L15.53 24.37L20.05 27.87V30.13L21.8 29.82L27.76 34.34L28.38 33.83L27.15 27.97C23.76 25.4 20.67 19.74 20.67 13.47C23.75 9.46 27.25 6.48 31.16 4.01L31.98 4.52L27.66 13.57C29.51 15.42 31.57 17.37 33.83 18.92L43.5 14.29L53.37 19.53C55.74 18.19 57.79 16.65 59.85 14.59C58.82 10.37 58 7.91 55.74 4.62L56.25 4C60.57 5.85 66.02 11.4 67.66 17.47C65.91 22.3 63.24 25.49 59.74 28.37L58.09 34.03L58.6 34.54L64.36 29.81L66.42 30.12L66.21 28.17L70.84 24.57L74.13 27.65L73.2 28.88C75.46 31.86 79.06 35.36 82.66 37.52C78.44 46.57 73.3 50.89 67.75 52.84L67.76 52.85Z" fill="white"/>
<path d="M48.95 44.52C52.14 43.8 55.63 42.46 57.69 40.82L57.38 40L52.03 41.13L47.71 40.72L48.94 44.52H48.95Z" fill="white"/>
<path d="M7.19994 38.4598C9.76994 43.2898 13.2699 46.6898 17.8899 48.7398L18.8199 43.5998C16.6599 42.7798 13.8799 40.9298 12.0299 38.6598L16.4499 32.3898L14.7999 31.0498C12.8499 33.7198 9.55994 36.7098 7.18994 38.4498L7.19994 38.4598Z" fill="white"/>
<path d="M53.47 57.4802C54.29 55.3202 54.5 53.0602 54.81 50.2802C53.06 48.8402 50.59 47.6102 48.02 46.9902L44.22 49.8702H42.88L38.05 46.9902C34.76 48.4302 33.22 50.0702 31.78 51.5102C32.6 54.1802 33.12 55.4202 34.25 57.2702C34.76 54.8002 35.18 53.2602 36 51.1002L51.94 51.2002C52.87 53.5702 53.07 55.9302 53.48 57.4702L53.47 57.4802Z" fill="white"/>
<path d="M51.52 46.6796C53.17 47.0896 54.91 47.2996 56.66 47.0896C58 45.9596 59.13 44.6196 59.74 42.8696L59.43 42.5596C57.27 44.5096 54.39 45.6396 51.51 46.1596V46.6696L51.52 46.6796Z" fill="white"/>
<path d="M45.24 59.8498L46.47 57.1798L47.7 59.8498L48.21 57.0698L50.99 57.8898L49.86 54.6998L46.98 53.0498C45.95 53.9798 45.03 54.7998 43.59 55.1098C42.36 54.7998 41.22 54.0798 40.61 53.4598C38.66 54.5898 36.91 56.2398 35.98 58.9098L39.89 56.8498L40.2 60.2398L41.43 58.7998L42.77 60.5498C42.67 59.2098 42.77 57.9798 42.98 56.6398L45.24 59.8298V59.8498Z" fill="white"/>
<path d="M29.2 40.5097C31.46 42.3597 34.34 43.8997 38.25 44.3097L39.6899 40.7097L34.0299 41.1197L29.7099 39.6797L29.2 40.4997V40.5097Z" fill="white"/>
<path d="M37.22 62.1104L36.81 64.7804C35.16 63.3404 34.03 61.7004 32.8 59.6404L32.49 61.8004C31.56 59.8504 30.74 56.8604 30.23 54.7004L29.2 56.3504L28.99 49.1504C27.45 52.7504 26.93 56.7604 28.48 61.8004L29.41 58.5104C30.34 61.5904 31.67 64.2704 33.21 66.8404L34.03 64.4704L36.81 70.5404L36.71 67.0404L41.44 74.6504C40.51 70.2304 39.18 66.0104 37.22 62.1004V62.1104Z" fill="white"/>
<path d="M56.25 58.9201L55.94 57.2701C55.01 60.0501 53.78 62.5101 52.03 64.6701C52.24 63.0201 52.13 61.3801 51.93 60.0401L48.54 72.5901C50.39 71.0501 51.93 68.7901 53.37 65.9101L53.78 68.7901C55.22 65.8101 56.66 62.1101 58 57.8901L59.75 60.2601C59.96 55.3201 59.34 51.3101 58.1 48.3301C58.2 52.3401 57.48 56.2501 56.25 58.9201Z" fill="white"/>
<path d="M49.15 64.2696L46.78 65.9196L48.12 61.5996C46.99 62.2196 45.75 63.5496 44.83 65.1996L43.39 62.1196L42.77 64.5896L39.79 62.2196L43.39 69.5196L41.64 69.4196C42.36 70.5496 43.29 71.5796 44.21 71.9896C43.8 73.7396 43.7 76.2096 43.7 78.2596C44.83 75.1796 46.07 72.3996 47.71 69.5196L45.55 70.4496C46.89 68.6996 48.33 66.8496 49.15 64.2796V64.2696Z" fill="white"/>
<path d="M71.6701 31.0498L69.7201 32.7998L74.3501 38.8698C72.5001 41.1298 69.7201 42.9798 67.5601 43.8098L69.0001 49.0498C73.6301 46.7898 76.6101 43.4998 79.1801 38.6598C76.8101 36.9098 73.6301 33.7198 71.6701 31.0498Z" fill="white"/>
<path d="M40.41 34.0403L42.36 38.6703L40.71 44.9403L43.59 46.8903L46.78 44.8303L44.83 38.6603L46.89 34.2403L56.25 33.5203L55.43 30.8503C52.14 31.7803 49.57 32.1903 45.97 31.9803L43.71 29.8203L41.45 32.1903C37.75 32.1903 34.46 31.6803 31.68 30.5403L30.75 33.8303L40.42 34.0403H40.41Z" fill="white"/>
<path d="M65.0901 16.86C63.8601 14.08 62.5201 11.62 60.5701 9.45996L60.2601 9.66996L62.7301 15.53L56.5601 21.8L58.7201 24.68C61.3901 22.42 63.6601 19.54 65.1001 16.87L65.0901 16.86Z" fill="white"/>
<path d="M31.4699 21.1804C28.8999 19.3304 27.1499 17.4804 24.9899 14.2904L27.3599 9.46035L27.1499 9.36035L22.9299 14.3004C24.1599 19.4404 26.3199 21.9104 29.1999 24.3804L31.4599 21.1904L31.4699 21.1804Z" fill="white"/>
<path d="M29.72 47.3004C31.47 47.5104 33.83 47.0904 35.48 46.6804L35.38 46.2704C32.4 45.8604 29.52 44.4204 27.77 42.3604L27.46 42.4604C27.56 44.2104 28.39 46.1604 29.72 47.2904V47.3004Z" fill="white"/>
<path d="M38.5501 36.3799C38.8601 36.4599 39.1601 36.5599 39.4001 36.6999L39.8201 38.3699L37.5701 38.6199L38.5501 36.3799Z" fill="white"/>
<path d="M34.64 36.2402L35.57 38.8102L32.73 38.0002L33.15 36.4202C33.65 36.3502 34.15 36.2902 34.64 36.2402Z" fill="white"/>
<path d="M54.8099 38.2101L51.9099 38.9001L53.1299 36.1201C53.5499 36.2101 53.9599 36.3401 54.3899 36.5201L54.8099 38.2101Z" fill="white"/>
<path d="M49.0301 36.3498L49.9201 38.8098L47.5701 38.3898L48.4101 36.5098C48.6201 36.4498 48.8201 36.3998 49.0301 36.3398V36.3498Z" fill="white"/>
<path d="M125.36 69.4297C125.5 68.8197 125.61 68.2297 125.64 67.3597H122.72C121.62 67.3797 118.99 67.3797 117.06 67.3797H116.86L116.82 66.0797H125.47C125.51 65.5897 125.53 65.0397 125.53 64.4497C125.53 62.1797 125.26 59.8797 125 59.0497C122.98 58.3297 119.42 58.2197 117.45 58.2197C115.97 58.2197 114.49 58.2797 113.56 58.3897C112.86 59.0997 111.54 60.4997 110.76 61.5697C110.71 62.2197 110.69 63.0797 110.69 64.0797C110.69 65.4197 110.74 68.7797 111.24 71.4697C112.64 72.0197 116.36 72.4397 119.82 72.4397C120.89 72.4397 121.75 72.4097 122.5 72.3497C123.64 71.5097 124.48 70.7497 125.34 69.4397L125.36 69.4297ZM116.73 62.6497H117.06C117.71 62.6897 118.42 62.7097 119.13 62.7597H119.31L119.35 64.0097H116.77L116.73 62.6497Z" fill="white"/>
<path d="M131.77 50.7697L131.59 46.6597L132.29 46.7097L134.01 50.7297L140.38 50.7997L140.22 44.3297C138.8 44.3797 135.85 44.3597 134.75 44.1697L134.58 44.1397V43.4297H134.77C136.4 43.2997 138.17 43.0397 140.05 42.6297L140.38 37.2897C138.62 37.2597 135.39 37.0797 134.18 36.9997C133.92 37.4997 133.18 38.8197 132.65 39.5797C132.37 39.9697 132.06 40.3797 131.74 40.6697L131.39 40.9897L131.65 32.2197L124.48 32.4997L124.82 40.0797L124.6 50.7697L128.22 50.6497L131.77 50.7697Z" fill="white"/>
<path d="M96.6199 50.6996H110.74L112.24 41.3097L113.78 32.2896L105.22 32.3396L104.67 43.7796L103.39 43.7397L102.99 32.1396L94.1499 32.3097L95.3199 41.1396L96.6199 50.6996Z" fill="white"/>
<path d="M122.95 50.92L122.35 42.61L122.68 37.25L115.39 37.46V50.92L119.51 50.78L122.95 50.92Z" fill="white"/>
<path d="M115.59 32.34L115.52 36.06L122.39 35.92L122.77 32.29L115.59 32.34Z" fill="white"/>
<path d="M94.4499 29.3602L98.1199 29.2702L102.92 29.3902L102.55 18.7902L102.97 10.9502H94.3999L94.6499 19.5302L94.4499 29.3602Z" fill="white"/>
<path d="M203.74 29.65C204.6 29.23 205.21 28.89 206.01 28.43L206.1 28.4L206.67 28.37L207.17 29.64L212.59 29.1C212.26 26.63 212.09 25.21 212.02 23.23C212.09 21.27 212.21 19.27 212.29 18.3L208.97 15.46C204.56 15.46 200.12 15.6 197.34 16.52L198.29 20.91C202.37 20.17 205.21 20.12 205.99 20.12H206.2L206.16 21.22H205.97C204.56 21.27 198.99 21.94 197.63 22.19C197.42 23.49 197.41 25.14 197.4 27.47L200.49 29.65H203.73H203.74ZM202.99 25.37C202.99 25.19 202.99 24.98 203.04 24.55L203.06 24.4L203.21 24.38C204.06 24.25 204.98 24.1 205.86 24.05H206.06L206.13 25.13L205.97 25.17C205.21 25.36 204.41 25.6 203.64 25.87L203.54 25.91L203 25.48V25.38L202.99 25.37Z" fill="white"/>
<path d="M138.56 20.1102H138.77L138.73 21.2102H138.54C137.13 21.2602 131.56 21.9302 130.2 22.1802C129.99 23.4802 129.98 25.1302 129.97 27.4602L133.06 29.6402H136.3C137.16 29.2202 137.77 28.8802 138.57 28.4202L138.66 28.3902L139.23 28.3602L139.73 29.6302L145.15 29.0902C144.82 26.6202 144.65 25.2002 144.58 23.2202C144.65 21.2602 144.77 19.2602 144.85 18.2902L141.53 15.4502C137.12 15.4502 132.68 15.5902 129.9 16.5102L130.85 20.9002C134.93 20.1602 137.77 20.1102 138.55 20.1102H138.56ZM138.53 25.1602C137.77 25.3502 136.97 25.5902 136.2 25.8602L136.1 25.9002L135.56 25.4702V25.3702C135.56 25.1902 135.56 24.9802 135.61 24.5502L135.63 24.4002L135.78 24.3802C136.63 24.2502 137.55 24.1002 138.43 24.0502H138.63L138.7 25.1302L138.54 25.1702L138.53 25.1602Z" fill="white"/>
<path d="M120.55 17.76C120.45 17.89 120.34 18.02 120.23 18.14C120.18 18.2 120.12 18.26 120.07 18.31L119.72 18.71L119.69 16.28C118.48 15.99 116.73 15.71 114.48 15.46C113.92 16.02 113.36 16.62 112.81 17.26L112.56 17.56C112.37 17.77 112.19 17.98 112.02 18.21L111.6 18.76L111.89 15.7L104.84 16.05L105.01 22.58L104.84 29.38L108.43 29.26L111.84 29.38L111.69 22.74L113.6 22.68L113.53 29.41L116.45 29.32L119.95 29.41L119.78 22.58L121.61 22.64L121.51 29.41L124.53 29.32L128.06 29.41L127.92 23.19L128.24 16.78C126.55 16.33 123.72 15.75 122.06 15.59C121.81 16.05 121.18 17.03 120.57 17.76H120.55Z" fill="white"/>
<path d="M140.4 63.6597L133.18 64.0097L133.09 63.1297L133.27 63.0997C135.74 62.6597 137.8 62.5797 140.49 62.5997C140.68 61.4197 140.87 59.8697 140.88 58.7897C139.67 58.4197 137.67 58.2197 135.2 58.2197C132.1 58.2197 128.99 58.4997 127.68 58.6597C127.4 59.3497 127.17 61.7297 127.17 63.9297C127.17 65.0797 127.23 65.9897 127.34 66.6397L135.26 66.9397L135.13 67.8697H134.97C133.17 67.9797 131.65 67.9797 130.18 67.9597C129.24 67.9597 128.35 67.9497 127.46 67.9697C127.24 68.8097 126.87 70.7997 126.81 71.8197C128.34 72.1197 131.29 72.4097 134.18 72.4097C135.04 72.4097 136.15 72.3997 137.16 72.2897L140.68 70.7997C140.84 69.1797 140.65 65.1297 140.4 63.6697V63.6597Z" fill="white"/>
<path d="M98.1199 72.0402L102.92 72.1602L102.62 65.9402L108.61 66.3202L108.63 60.4302L102.57 60.5302L102.67 58.8102L109.26 59.3102L109.4 53.7002L94.3999 53.7202L94.6499 62.3002L94.4499 72.1302L98.1199 72.0402Z" fill="white"/>
<path d="M186.29 29.2705L189.69 29.3905L189.54 22.8405L195.7 22.7905L195.87 16.5105C194.9 16.1105 193.05 15.6605 192.15 15.4805C191.85 15.8605 191.22 16.6405 190.52 17.4405C190.32 17.6705 190.09 17.9205 189.86 18.1505L189.46 18.5505L189.74 15.7905L182.81 16.1405L182.98 22.5705L182.81 29.3705L186.28 29.2505L186.29 29.2705Z" fill="white"/>
<path d="M149.68 50.92L149.07 42.61L149.4 37.25L142.11 37.46V50.92L146.23 50.78L149.68 50.92Z" fill="white"/>
<path d="M168.61 15.46C167.37 16.25 165.34 18.31 164.89 18.87C164.72 20.11 164.62 21.69 164.62 23.22C164.62 25.18 164.71 26.84 164.88 28.02C165.8 28.77 168.46 29.48 169.87 29.63H170.45L173.98 27.71L174.4 27.83L174.21 29.33H180.81L180.71 21.32L180.91 10.96H172.85C173 11.79 173.15 12.66 173.3 13.53C173.41 14.17 173.52 14.81 173.63 15.43L173.67 15.68L172.85 15.64C171.42 15.58 170.02 15.51 168.6 15.47L168.61 15.46ZM174.19 21.04V23.36L174.05 23.41C173.52 23.59 172.8 23.83 172.26 24.03L172.18 24.06L171.55 23.78L171.53 23.53C171.51 23.25 171.49 23.01 171.49 22.77C171.49 22.29 171.56 21.7 171.67 21.13L171.7 20.96L174.19 21.05V21.04Z" fill="white"/>
<path d="M142.31 32.34L142.24 36.06L149.11 35.92L149.49 32.29L142.31 32.34Z" fill="white"/>
<path d="M151.35 63.5697L154.8 63.6397V58.6997L151.47 58.8497L151.55 55.4697L144.5 55.7997V58.8197L142.17 58.6897V63.4797H144.45L144.27 70.3397C145.16 71.0797 146.46 71.7497 148.23 72.4097C150.02 72.4097 152.71 72.2997 154.55 72.0797L154.62 66.2497L151.26 66.5497L151.35 63.5497V63.5697Z" fill="white"/>
<path d="M154.64 17.6997C154.47 17.8997 154.26 18.0997 154.09 18.2797L153.7 18.6697L153.98 15.6497L146.87 16.0297L147.04 22.6397L146.87 29.4697L150.53 29.2997L153.91 29.4597L153.76 22.5197L155.72 22.4597L155.62 29.4897L159.06 29.3497L162.64 29.4897L162.42 23.2497L162.81 17.0197C161.08 16.3997 157.92 15.6797 156.64 15.4697C156.24 15.9397 155.44 16.8397 154.63 17.6897L154.64 17.6997Z" fill="white"/>
<path d="M163.77 50.7296L167.35 50.8696L167.13 44.6296L167.52 38.3996C165.79 37.7796 162.63 37.0596 161.35 36.8496C160.95 37.3196 160.15 38.2196 159.34 39.0696C159.17 39.2696 158.96 39.4696 158.79 39.6496L158.4 40.0396L158.68 37.0196L151.57 37.3996L151.74 44.0096L151.57 50.8396L155.23 50.6696L158.61 50.8296L158.46 43.8896L160.42 43.8296L160.32 50.8596L163.76 50.7196L163.77 50.7296Z" fill="white"/>
<path d="M183.68 49.0802C182.05 48.7302 179.61 48.3502 177.79 48.3002H177.58L177.63 47.4502H177.82C179.13 47.4202 180.39 47.3502 181.36 47.2502C182.19 46.7602 182.89 46.3102 183.63 45.5802C183.71 44.8702 183.8 43.5602 183.8 42.2502C183.8 40.0202 183.61 38.2402 183.28 37.4402C182.76 37.3002 182.09 37.1802 181.23 37.0702L181.01 37.0402L181.58 34.4202L176.25 33.9102L175.93 36.8202H175.75C174.28 36.8202 172.85 36.8702 171.98 36.9402C171.33 37.4802 170.04 38.6702 169.24 39.5302C169.2 40.0302 169.17 40.6602 169.17 41.3702C169.17 42.5902 169.25 44.9302 169.74 46.9502C170.14 47.0902 170.81 47.2002 171.77 47.3002L171.93 47.3202L171.99 47.9302L168.89 48.6302L169.27 51.6202L168.23 54.6002L171.96 57.2002C176.72 57.2002 180.78 56.8602 182.89 56.5702C183.88 53.9402 184.14 53.1402 184.53 50.2502L183.69 49.0802H183.68ZM175.37 41.2702C176.02 41.2902 176.77 41.3202 177.5 41.3502H177.69L177.75 43.4702H177.48C176.8 43.5002 176.1 43.5302 175.43 43.5802L175.22 43.6002L175.16 41.2802H175.37V41.2702ZM178.8 53.1102L174.03 53.0502V52.1602L178.87 51.9102L178.79 53.1002L178.8 53.1102Z" fill="white"/>
</g>
<defs>
<clipPath id="clip0_57_1400">
<rect width="212.59" height="85.04" fill="white"/>
</clipPath>
</defs>
</svg>
