<svg width="171" height="205" viewBox="0 0 171 205" fill="none" xmlns="http://www.w3.org/2000/svg">
<path d="M19.8293 171.25L20.3289 180.736L22.9913 186.394L24.6362 187.8L28.8965 191.428L33.1433 195.049L33.3636 195.082L38.416 195.854L45.1251 196.879L40.2594 190.442L39.9667 190.055L38.9677 181.235L42.7957 174.412L37.4708 169.753L32.3646 174.545L31.9777 174.911L29.1959 175.69L26.9589 176.309L24.8229 176.908L24.6682 176.741L23.4236 175.323L19.8293 171.25Z" fill="#AEA69E"/>
<path d="M19.8293 171.25L20.3289 180.736L22.9913 186.394L33.1433 195.049L45.1251 196.879L40.2594 190.442L34.4753 190.222L25.8203 183.398L24.6682 176.741L19.8293 171.25Z" fill="#E0D6CC"/>
<path d="M145.313 129.977V130.103L145.399 142.904L145.479 154.109L147.143 177.739L154.299 193.551L157.128 189.223L150.971 175.077L149.307 153.776L149.168 143.557L148.974 130.011V129.977L151.045 120.864L153.135 111.671L147.975 116.829L147.516 119.1L145.313 129.977Z" fill="#BFB6AE"/>
<path d="M148.973 129.977L149.306 153.776L150.97 175.077L157.129 189.223L162.454 179.571L166.115 164.925L166.687 160.491L168.445 146.786L168.278 130.476L166.448 115.497L161.288 105.347L153.134 111.671L151.037 120.896L148.973 129.977Z" fill="#8E4F54"/>
<path d="M46.9568 128.646L50.2718 145.954L53.1142 160.765L58.2743 170.418L69.5901 171.916L75.4145 166.923L82.4113 151.113L87.5646 139.464L80.5813 137.605L46.9568 128.646Z" fill="#473C39"/>
<path d="M91.8904 139.297L96.2768 154.548L98.8804 163.595L103.872 170.585L114.69 170.917L121.347 163.928L124.748 151.686L129.668 133.972L97.2826 138.538L91.8904 139.297Z" fill="#473C39"/>
<path d="M96.2776 154.548L98.8812 163.594L103.873 170.584L114.691 170.917L109.864 169.086L110.364 165.757L114.192 159.6L124.749 151.685L129.668 133.971L97.2834 138.538L96.2776 154.548Z" fill="#2B2523"/>
<path d="M46.9568 128.646L50.2718 145.954L50.6183 137.965L52.6147 135.136L68.4263 142.626L75.248 155.107L75.4145 166.922L82.4113 151.112L80.9076 137.799L80.5813 137.605L46.9568 128.646Z" fill="#2B2523"/>
<path d="M68.5916 135.968L83.9019 170.086L84.2349 162.763L94.3869 179.738L109.199 157.769L111.196 162.929L119.178 141.187L120.848 136.634L68.5916 135.968Z" fill="#7F6E54"/>
<path d="M68.5916 135.968L83.9019 170.086L84.2349 162.763L94.3869 179.738L87.2304 146.62L94.5534 167.088L95.0529 145.288L119.178 141.187L120.848 136.634L68.5916 135.968Z" fill="#6B5A3F"/>
<path d="M49.7864 198.044L51.4498 204.867L62.4343 200.706L60.7709 196.379L62.9338 188.725L70.4233 181.402L69.5908 171.916L58.2732 170.419L54.9448 177.574L57.4424 187.226L56.7764 195.048L49.7864 198.044Z" fill="#A46758"/>
<path d="M49.7864 198.044L58.2732 196.712L62.4343 200.706L60.7709 196.379L62.9338 188.724L70.4233 181.401L60.9357 185.562L54.9448 177.573L57.4424 187.226L56.7764 195.048L49.7864 198.044Z" fill="#7A4C41"/>
<path d="M109.033 188.891L107.036 196.38L112.694 196.88L117.022 198.377L129.337 197.544L120.848 194.216L113.693 188.724L113.952 184.097L114.691 170.918L103.874 170.585L100.712 178.239L109.033 188.891Z" fill="#A46758"/>
<path d="M109.033 188.891L107.036 196.38L112.694 196.88L117.022 198.377L129.337 197.544L120.848 194.216L113.693 188.724L113.952 184.097L110.032 184.23L100.712 178.239L109.033 188.891Z" fill="#7A4C41"/>
<path d="M0.358398 127.98L0.398764 128.3L1.52396 136.8L45.9581 179.071L46.9773 178.666L48.454 178.074L48.6205 175.743L4.1864 125.817L0.358398 127.98Z" fill="#8E4F54"/>
<path d="M0.398682 128.3L1.52387 136.8L45.958 179.071L46.9772 178.666L0.398682 128.3Z" fill="#75353A"/>
<path d="M29.196 175.69L33.3638 195.082L38.4162 195.854L32.3647 174.545L31.9779 174.911L29.196 175.69Z" fill="#BFB6AE"/>
<path d="M34.4743 190.222L36.8424 190.311L38.415 195.853L33.3626 195.081L31.8792 188.175L34.4743 190.222Z" fill="#F5EADF"/>
<path d="M162.62 150.78L164.783 157.27L169.11 153.942L170.136 151.212L170.607 149.947L170.308 144.575L170.109 140.961L165.449 134.47L162.953 140.461L162.62 150.78Z" fill="#BFB6AE"/>
<path d="M124.01 90.8674L124.343 112.004L135.3 112.715L139.653 113.001L142.315 99.6873L134.913 96.12L124.01 90.8674Z" fill="#473C39"/>
<path d="M124.01 90.8674L124.343 112.004L135.3 112.715L134.913 96.12L124.01 90.8674Z" fill="#2B2523"/>
<path d="M118.518 66.5697L122.846 75.7226L123.179 82.2131L133.329 108.841V119.992L107.036 127.148L58.1061 124.651L46.6238 119.825L46.2908 76.3887L52.2817 70.2312L81.0725 59.0802L118.518 66.5697Z" fill="#7F6E54"/>
<path d="M58.1066 124.651L46.6243 119.824L46.2913 76.3891L52.2822 70.2317L81.073 59.0807L118.519 66.5702L122.845 75.7231L123.178 82.2136L121.181 76.0561L115.855 78.0525L114.358 85.0425L119.35 95.694L126.34 109.84L116.021 104.347L115.523 93.8624L113.026 90.2026L103.706 86.8741L98.5479 79.7176L88.8955 72.5611L82.9029 80.8815L74.5825 86.7076L71.7536 94.1954L64.5971 98.523L65.4296 105.18L76.5789 120.324C76.5789 120.324 101.71 121.822 102.541 121.822C103.373 121.822 127.838 116.829 128.504 116.664C128.937 116.555 131.554 112.36 133.33 109.442V119.991L107.035 127.147L58.1066 124.651Z" fill="#6B5A3F"/>
<path d="M14.5042 118.161L19.829 124.652L28.1511 125.318L36.4715 120.657L35.3076 111.171L47.9874 91.461L49.1194 89.7034L49.7854 76.2229L39.3004 72.5614L18.6652 85.2093L17.4996 109.841L14.5042 118.161Z" fill="#F7BEA7"/>
<path d="M14.5042 118.161L19.829 124.652L28.1511 125.318L36.4715 120.657L35.3076 111.171L28.9836 114L24.6561 111.338L20.6616 90.2029L33.6425 82.7134L32.9765 91.5333L48.2885 84.0438L47.9874 91.461L49.1194 89.7034L49.7854 76.2229L39.3004 72.5614L18.6652 85.2093L17.4996 109.841L14.5042 118.161Z" fill="#E58E6B"/>
<path d="M14.5042 118.161L18.4987 142.459L20.6145 143.571L25.1556 145.954L31.3131 144.456C31.3131 144.456 36.638 121.156 36.4715 120.657L28.1511 125.317L23.1777 124.917L19.829 124.651L14.5042 118.161Z" fill="#473C39"/>
<path d="M44.9597 117.995L45.7923 129.312L66.594 138.631L72.1392 139.257L93.089 141.62L98.8815 142.273L100.545 142.459L108.534 141.96L126.32 136.993L130.002 135.969L133.83 128.313L134.163 117.995C134.163 117.995 131.973 118.566 129.516 119.199C126.52 119.966 123.119 120.824 122.845 120.824C122.346 120.824 104.706 123.153 104.206 123.153C104.073 123.153 101.949 123.087 98.8815 122.988C96.584 122.907 93.7617 122.815 90.8453 122.721C82.6646 122.455 73.7505 122.156 73.7505 122.156L72.553 121.982L44.9597 117.995Z" fill="#A46758"/>
<path d="M139.654 113.002L147.974 116.83L154.3 112.169L161.954 116.164L164.119 113.502L165.782 119.326C165.782 119.326 168.445 118.993 168.445 118.493C168.445 117.994 169.61 110.506 169.61 110.007C169.61 109.793 167.646 107.317 165.397 104.54C162.355 100.807 158.792 96.5261 158.792 96.5261L142.317 99.6881L141.571 103.422L139.654 113.002Z" fill="#F7BEA7"/>
<path d="M127.006 107.344C127.006 107.303 126.993 107.238 126.972 107.143C126.993 107.323 127.006 107.397 127.006 107.344Z" fill="#D49770"/>
<path d="M127.006 107.344C127.006 107.303 126.993 107.238 126.972 107.143C126.993 107.323 127.006 107.397 127.006 107.344Z" fill="#B88361"/>
<path d="M60.603 97.8575L58.107 101.686L54.9451 100.02L56.442 95.3616L60.603 97.8575Z" fill="#2B2523"/>
<path d="M36.4723 88.8707L50.4522 77.2202L52.1156 82.2138L59.7717 72.5613L62.794 61.0117L67.0947 44.6014L57.9401 41.1081L43.1292 41.4394L48.9537 45.9335L30.3148 52.4239L14.0055 64.9053L24.9899 64.5723L17.667 78.0527L11.8425 92.5322C11.8425 92.5322 37.9709 76.0563 38.4687 76.0563C38.9682 76.0563 36.4723 88.8707 36.4723 88.8707Z" fill="#E0C9B3"/>
<path d="M14.5042 118.161L18.4987 142.46L20.6145 143.571L23.1777 124.917L19.829 124.652L14.5042 118.161Z" fill="#2B2523"/>
<path d="M10.676 153.609L22.1584 167.922L28.151 165.258L29.3148 162.929L24.323 157.437L28.8153 154.109L32.4768 157.437L32.9965 155.799L34.4749 151.113L31.3129 144.456L25.1555 145.953L18.4985 142.458L10.676 153.609Z" fill="#F7BEA7"/>
<path d="M23.425 175.324L24.636 187.798L28.8963 191.426L26.9604 176.309L24.8227 176.908L24.6697 176.742L23.425 175.324Z" fill="#BFB6AE"/>
<path d="M28.0979 185.194L28.8968 191.427L27.9246 190.6L24.6365 187.796L23.4255 175.33L24.6701 176.743L25.8206 183.4L28.0979 185.194Z" fill="#F5EADF"/>
<path d="M148.973 129.977L149.306 153.776L150.97 175.077L157.129 189.223L162.454 179.571L166.115 164.925L166.687 160.491L163.619 165.091L160.291 160.599L152.635 137.3L151.037 120.896L148.973 129.977Z" fill="#75353A"/>
<path d="M145.399 142.905L145.478 154.108L147.143 177.74L154.299 193.55L157.128 189.224L150.971 175.078L149.306 153.775L149.166 143.557L145.399 142.905Z" fill="#978F8A"/>
<path d="M10.676 153.609L22.1584 167.922L28.151 165.258L29.3148 162.929L24.323 157.437L28.8153 154.109L32.4768 157.437L32.9965 155.799L29.9809 154.109L31.4795 151.613L23.4904 157.271L21.6605 161.432L10.676 153.609Z" fill="#E58E6B"/>
<path d="M162.62 150.78L164.783 157.27L169.11 153.942L170.136 151.212L166.448 148.45L162.953 140.461L162.62 150.78Z" fill="#978F8A"/>
<path d="M126.32 136.993L130.002 135.969L133.83 128.313L134.163 117.995C134.163 117.995 131.971 118.567 129.516 119.199L128.836 128.313L126.32 136.993Z" fill="#7A4C41"/>
<path d="M36.4723 88.8707L50.4522 77.2202L52.1156 82.2138L59.7717 72.5613L62.794 61.0117C60.0979 62.6566 46.9573 71.2293 46.9573 71.2293L50.4522 59.7469L32.8108 66.0709L40.3003 55.5859L31.1474 55.9189L48.9537 45.9335L30.3148 52.4239L14.0055 64.9053L24.9899 64.5723L17.667 78.0527L11.8425 92.5322C11.8425 92.5322 37.9709 76.0563 38.4687 76.0563C38.9682 76.0563 36.4723 88.8707 36.4723 88.8707Z" fill="#CAAF95"/>
<path d="M96.0515 41.6063L106.469 62.3155L109.865 69.0667L119.517 74.7246L117.852 68.5672L132.998 75.2241L127.505 64.5726L121.014 57.0831L131.832 53.4216L109.532 44.2687L113.859 37.7783L104.372 38.2778L96.0515 41.6063Z" fill="#E0C9B3"/>
<path d="M81.906 76.0558L84.4625 79.0109L90.3929 85.8747L92.0445 89.3832L101.211 108.841L101.044 85.5417L96.7168 71.5617L87.2309 65.2378L81.906 76.0558Z" fill="#F7BEA7"/>
<path d="M81.906 76.0558L84.4625 79.0109L89.562 72.0613L96.0525 80.2168L96.552 77.2213L98.3819 81.7137L96.0525 91.5326C96.0525 91.5326 93.7281 90.2157 92.0445 89.3832L101.211 108.841L101.044 85.5417L96.7168 71.5617L87.2309 65.2378L81.906 76.0558Z" fill="#E58E6B"/>
<path d="M57.7738 81.548L55.4444 86.5399L56.4417 95.3615L60.6027 97.8574L69.4243 93.5299L72.5846 85.8756L82.4052 80.0511L88.5627 69.2332L95.5526 77.8865L94.7201 73.892L100.711 78.053L105.205 85.2095L114.025 89.3706L117.52 86.8729L116.854 77.72L112.36 71.8956L111.529 62.7427L105.869 55.2532L110.363 56.9183L97.3826 42.7718L96.55 39.2768L93.2215 27.7928L79.7411 27.9593L65.7628 29.7909L64.4308 45.4343L54.6118 65.4052L59.1059 61.5771L56.9412 68.4006L57.7738 81.548Z" fill="#D49770"/>
<path d="M48.9539 114L50.2859 107.843V115.997C50.2859 116.496 58.4398 108.509 58.4398 108.509L58.1068 101.686L54.9448 100.02L49.2869 104.681L48.9539 114Z" fill="#D49770"/>
<path d="M117.187 93.6967V101.353L126.34 109.84L125.016 100.873C125.122 101.193 126.727 106.025 126.972 107.144C126.799 105.66 126.007 97.1917 126.007 97.1917L120.182 92.1998L117.187 93.6967Z" fill="#D49770"/>
<path d="M106.469 62.3162L109.865 69.0657L119.517 74.7253L117.852 68.5662L132.996 75.2231L127.505 64.5734L121.014 57.0838L131.832 53.4223L116.687 55.5853L122.513 65.2394L113.358 60.0793L114.857 67.0693L106.469 62.3162Z" fill="#CAAF95"/>
<path d="M117.52 86.8736L120.182 92.1984L117.187 93.697L114.025 89.3695L117.52 86.8736Z" fill="#2B2523"/>
<path d="M57.7738 81.548L55.4444 86.5399L56.4417 95.3615L60.6027 97.8574L69.4243 93.5299L72.5846 85.8756L82.4052 80.0511L88.5627 69.2332L95.5526 77.8865L94.7201 73.892L100.711 78.053L105.205 85.2095L114.025 89.3706L117.52 86.8729L116.854 77.72L112.36 71.8956L111.529 62.7427L105.869 55.2532L108.534 63.2422L105.703 73.2277L95.0531 71.5626L87.5636 63.4087L80.9067 76.3896L74.5827 79.3851L78.5772 70.5635L64.7638 81.215L59.4389 69.0666L64.9303 56.5853L59.6037 59.0812L64.4308 45.4343L54.6118 65.4052L59.1059 61.5771L56.9412 68.4006L57.7738 81.548Z" fill="#B88361"/>
<path d="M93.0893 141.62L98.8801 142.272V122.988C96.5843 122.907 93.762 122.815 90.8456 122.72C89.7474 131.468 91.9439 138.631 93.0893 141.62Z" fill="#7A4C41"/>
<path d="M92.9124 129.895C92.2783 138.927 96.002 146.545 101.228 146.911C106.453 147.28 111.205 140.254 111.839 131.224C112.471 122.192 108.749 114.573 103.523 114.207C98.2961 113.84 93.5465 120.864 92.9124 129.895Z" fill="#E0D6CC"/>
<path d="M165.449 134.47L166.946 140.128L170.308 144.575L170.11 140.961L165.449 134.47Z" fill="#E0D6CC"/>
<path d="M96.4891 130.146C96.0636 136.211 98.3543 141.313 101.605 141.54C104.855 141.768 107.835 137.037 108.261 130.972C108.688 124.907 106.397 119.806 103.146 119.579C99.895 119.35 96.9146 124.082 96.4891 130.146Z" fill="#AEA69E"/>
<path d="M44.9597 117.994L45.7923 129.312L66.594 138.631L72.1392 139.257L72.553 121.982L44.9597 117.994Z" fill="#7A4C41"/>
<path d="M149.973 102.018L155.797 103.848C155.797 103.848 163.62 109.674 163.786 110.174C163.953 110.671 164.286 112.836 164.119 113.5L165.783 119.326C165.783 119.326 168.445 118.993 168.445 118.494C168.445 117.994 169.611 110.505 169.611 110.007C169.611 109.793 167.646 107.318 165.398 104.541L158.46 100.852L149.973 102.018Z" fill="#E58E6B"/>
<path d="M139.654 113.002L147.974 116.83L154.3 112.169L147.144 114.334L140.986 112.336L141.571 103.422L139.654 113.002Z" fill="#E58E6B"/>
<path d="M145.313 129.977V130.103L148.974 130.011V129.977L151.045 120.864L147.516 119.1L145.313 129.977Z" fill="#E0D6CC"/>
<path d="M48.9539 114L50.2859 107.843V115.997C50.2859 116.496 58.4398 108.509 58.4398 108.509L58.1068 101.686L56.7764 107.343L51.9493 109.839L49.2869 104.681L48.9539 114Z" fill="#B88361"/>
<path d="M117.187 93.6967V101.353L126.34 109.84L125.016 100.873C125.122 101.193 126.727 106.025 126.972 107.144C126.799 105.66 126.007 97.1917 126.007 97.1917L123.844 97.5247L124.843 106.012L120.515 98.8551L117.187 93.6967Z" fill="#B88361"/>
<path d="M103.872 104.348C103.82 104.348 103.765 104.335 103.716 104.309L91.9006 97.9855C91.7913 97.9266 91.7223 97.8106 91.7223 97.6861C91.7257 97.5617 91.7963 97.449 91.909 97.3935L103.139 91.7776L86.1367 86.6932C86.0038 86.6529 85.908 86.5351 85.8996 86.3972C85.8895 86.2576 85.9668 86.1281 86.0947 86.0709L100.905 79.414C101.07 79.3383 101.269 79.414 101.348 79.5822C101.422 79.7487 101.348 79.9454 101.181 80.0211L87.1829 86.3114L104.135 91.3807C104.266 91.4194 104.358 91.5354 104.372 91.6717C104.384 91.8062 104.31 91.9374 104.187 91.9979L92.7819 97.7013L104.029 103.721C104.192 103.808 104.252 104.01 104.167 104.173C104.104 104.284 103.99 104.348 103.872 104.348Z" fill="#2B2523"/>
<path d="M94.5526 105.679C94.4517 105.679 94.3525 105.634 94.2869 105.548C94.1759 105.4 94.2061 105.192 94.3525 105.081L104.015 97.7964L89.7811 92.6784C89.6583 92.6346 89.5725 92.5236 89.5624 92.3941C89.5506 92.2646 89.6162 92.1401 89.7289 92.0762L102.442 84.8575L84.0004 81.043C83.8204 81.0043 83.7044 80.8294 83.743 80.6477C83.7784 80.4694 83.9415 80.3567 84.1349 80.3904L103.441 84.3849C103.578 84.4135 103.68 84.5211 103.704 84.659C103.726 84.797 103.66 84.9315 103.539 85.0005L90.6876 92.2966L104.817 97.3793C104.933 97.4196 105.016 97.5205 105.034 97.6416C105.051 97.7627 105.004 97.8838 104.906 97.9578L94.7528 105.612C94.6922 105.658 94.6216 105.679 94.5526 105.679Z" fill="#2B2523"/>
<path d="M68.5917 86.0413L63.1003 86.8738L59.9383 82.3798L58.1067 87.0403L59.6053 93.3643L66.4287 91.3662L68.5917 86.0413Z" fill="#D49770"/>
<path d="M111.029 74.891L110.363 80.7154L104.206 78.8855L106.868 83.8774L113.192 85.8755L114.857 79.052L111.029 74.891Z" fill="#D49770"/>
<path d="M63.9321 29.7907L63.0996 35.4486C63.0996 35.4486 56.7757 43.2711 57.2752 43.2711C57.7747 43.2711 66.0951 46.9326 66.0951 46.9326L67.0941 27.7943L63.9321 29.7907Z" fill="#945E38"/>
<path d="M94.5534 27.6268L97.3823 35.9472L103.373 41.9398L95.7189 45.4348L89.7263 27.9599L94.5534 27.6268Z" fill="#945E38"/>
<path d="M67.0935 27.793V42.7703L74.7495 48.4299L84.0689 41.773L92.8888 46.2653L94.2209 38.4445L92.1505 30.4958L91.0589 26.2961L67.0935 27.793Z" fill="#F7BEA7"/>
<path d="M86.3986 42.938L81.738 43.271L85.3995 40.109L86.3986 42.938Z" fill="#E58E6B"/>
<path d="M74.7507 37.5101C74.8146 38.8404 75.4622 39.8916 76.1971 39.8563C76.9305 39.821 77.4754 38.7126 77.4098 37.3822C77.3459 36.0502 76.6984 35.0007 75.965 35.036C75.2301 35.0713 74.6868 36.178 74.7507 37.5101Z" fill="#2B2523"/>
<path d="M87.0659 36.345C87.1298 37.6771 87.7773 38.7266 88.5123 38.6913C89.2456 38.656 89.7889 37.5476 89.725 36.2172C89.6611 34.8851 89.0135 33.8356 88.2802 33.8709C87.5452 33.9063 87.002 35.0146 87.0659 36.345Z" fill="#2B2523"/>
<path d="M80.6329 33.3066L79.6423 36.4888L71.9963 35.1012L72.2318 32.5279L80.6329 33.3066Z" fill="#D49770"/>
<path d="M92.0428 33.9157L84.0369 36.1846L83.4045 32.7299L91.0421 31.6048L92.0428 33.9157Z" fill="#D49770"/>
<path d="M67.0935 27.7933V32.3328L84.2354 30.2893L92.1505 30.4961L91.0589 26.2964L67.0935 27.7933Z" fill="#E58E6B"/>
<path d="M87.0647 17.4749L87.8972 18.9735L96.8836 19.9708L118.684 31.2883L115.023 23.9653L120.683 19.4713H132.498L126.174 16.1428L130.168 12.8143L142.317 6.15737L128.337 7.48943L130.501 0.832464L121.515 7.32292L116.188 7.65594L114.359 -7.43866e-05L110.864 7.98895L98.0492 16.8088L87.0647 17.4749Z" fill="#A46758"/>
<path d="M87.0647 17.4749L87.8972 18.9735L96.8836 19.9708L118.684 31.2883L115.023 23.9653L120.683 19.4713H132.498L126.174 16.1428L130.168 12.8143L142.317 6.15737L129.835 10.3184L108.532 19.9708L98.0492 18.6404V16.8088L87.0647 17.4749Z" fill="#7A4C41"/>
<path d="M91.2248 52.9233L84.7343 47.4319L78.5769 54.4219L84.9009 50.2609L91.2248 52.9233Z" fill="#B88361"/>
<path d="M65.429 25.9626L90.8913 22.1346L89.9528 20.1971L88.0623 16.3102L80.5728 9.81976L68.7709 11.9625L67.7584 12.1492L65.429 25.9626Z" fill="#7F6E54"/>
<path d="M65.429 25.9626L90.8913 22.1346L89.9528 20.1971L76.913 18.1401L68.7709 11.9625L67.7584 12.1492L65.429 25.9626Z" fill="#63533A"/>
<path d="M62.2681 26.462L63.2671 32.1199L69.2244 31.035L78.8112 29.2909L79.743 29.1244L90.8267 29.2438L95.3864 29.2909L96.5519 21.9679L92.0108 21.6685L76.8333 20.6577L76.581 20.6375L68.2388 24.0316L62.2681 26.462Z" fill="#AEA69E"/>
<path d="M62.2681 26.462L63.2671 32.1199L69.2244 31.035L68.2388 24.0316L62.2681 26.462Z" fill="#978F8A"/>
<path d="M25.8212 20.97L30.8131 26.1284L22.9922 35.1165L52.116 26.6279L68.0924 20.304L68.5919 17.9745L65.8689 18.0536L52.116 18.474L47.289 13.314L49.7866 4.99361L42.4636 9.98549L35.1406 8.4886L32.1451 4.57764e-05L28.9832 8.15558L7.18237 6.15917L16.3353 11.4841L20.4963 16.809L13.6728 22.4686L25.8212 20.97Z" fill="#A46758"/>
<path d="M25.8212 20.97L30.8131 26.1284L22.9922 35.1165L52.116 26.6279L68.0924 20.304L68.5919 17.9745L65.8689 18.0536L64.9304 19.3049L52.4491 23.4659L37.47 24.465L29.6492 14.8125L7.18237 6.15917L16.3353 11.4841L20.4963 16.809L13.6728 22.4686L25.8212 20.97Z" fill="#7A4C41"/>
<path d="M76.833 20.6573L78.8109 29.2905L79.7427 29.1257L90.8264 29.2451L92.0105 21.6698L76.833 20.6573Z" fill="#BFB6AE"/>
</svg>
