<svg width="233" height="249" viewBox="0 0 233 249" fill="none" xmlns="http://www.w3.org/2000/svg">
<path d="M101.376 241.339L111.641 248.365L116.324 241.339L109.74 226.063L112.276 217.223L114.539 209.333L102.607 209.113L103.15 213.516L104.95 228.07L101.376 241.339Z" fill="#7F6E54"/>
<path d="M55.6528 233.309L66.4729 236.321L73.8339 233.088L82.1981 232.534L80.6324 224.611C80.6324 224.611 81.4693 219.311 82.2447 214.453V214.446C82.8803 210.418 83.4826 206.697 83.5358 206.543L70.7091 205.767L71.5926 209.929L74.8372 225.173L55.6528 233.309Z" fill="#7F6E54"/>
<path d="M102.607 209.113L103.15 213.515L112.276 217.222L114.539 209.334L102.607 209.113Z" fill="#66563D"/>
<path d="M70.7087 205.767L71.5923 209.928L82.2443 214.446C82.8799 210.418 83.4822 206.697 83.5371 206.542L70.7087 205.767Z" fill="#66563D"/>
<path d="M53.6462 97.6967L58.553 124.017L61.899 112.196L72.6059 161.935L75.2814 147.884L92.0116 193.831L103.833 156.582L110.078 167.288L115.878 124.686L119.222 135.169L128.369 100.597L120.339 73.8302L57.2152 69.8153L53.6462 97.6967Z" fill="#806D67"/>
<path d="M60.2236 150.228L61.7294 157.192L64.6861 170.858L71.1569 185.244L68.8158 198.962L79.0735 200.3L85.0967 198.847L80.5261 184.909L81.3281 164.888L81.7507 154.349L60.2236 150.228Z" fill="#473C39"/>
<path d="M81.75 155.467L86.9363 164.474L98.6998 184.909L98.9277 199.183L103.384 203.198L110.638 203.425L116.659 199.852L107.626 182.789L107.458 166.876L107.292 150.896L81.75 155.467Z" fill="#473C39"/>
<path d="M107.292 150.896L81.75 155.467L86.9363 164.474V159.482L93.4603 159.983C93.4603 159.983 102.909 164.56 107.46 166.876L107.292 150.896Z" fill="#2B2523"/>
<path d="M60.2236 150.227L61.7294 157.192L62.177 155.132L63.5164 153.961L78.4047 160.988L81.3281 164.888L81.7507 154.349L60.2236 150.227Z" fill="#2B2523"/>
<path d="M59.1125 150.562L71.8261 155.802L92.3432 157.695L101.035 154.818L109.854 151.9L107.371 145.511L100.934 128.922V111.751C100.934 111.751 116.433 93.5698 116.767 93.4567L116.211 87.327L109.854 83.4203L68.5882 77.3971L61.3405 85.2056L66.139 99.9274L66.1324 100.067L64.6865 130.153L63.4619 132.83L62.3854 137.226L61.996 138.799L60.2307 146.005L59.1125 150.562Z" fill="#A86B5C"/>
<path d="M62.385 137.226L61.9974 138.798L88.8904 139.628L96.0233 140.525L101.035 154.818L109.855 151.899L107.373 145.51L100.935 128.922V111.75C100.935 111.75 116.432 93.5711 116.767 93.4563L116.211 87.3266L109.855 83.4199L68.5879 77.3967L61.3418 85.2069L66.1387 99.9271L66.1321 100.068L80.6326 99.0369L94.4643 104.832L97.589 126.472L87.7722 134.502L62.7927 136.951L62.385 137.226Z" fill="#804C40"/>
<path d="M98.9246 199.185L96.918 208.441L102.494 211.787H114.204L120.671 206.88L116.656 199.854L110.635 203.423L103.385 203.2L98.9246 199.185Z" fill="#998468"/>
<path d="M85.0959 198.85L87.7731 205.431L82.4188 208.888L66.9182 207.103L68.8134 198.962L79.0727 200.299L85.0959 198.85Z" fill="#998468"/>
<path d="M143.981 137.902C146.156 140.411 142.81 145.095 139.798 144.426C141.807 138.905 143.981 137.902 143.981 137.902Z" fill="#8C8680"/>
<path d="M126.248 130.207C122.902 131.544 124.074 139.24 126.416 139.408C127.921 134.221 126.248 130.207 126.248 130.207Z" fill="#8C8680"/>
<path d="M118.439 100.483L131.936 112.306L128.75 119.399L126.469 124.466L135.73 129.705L140.347 130.259L147.774 131.156L152.23 122.123L144.984 106.17L142.307 84.9855L137.195 75.3634L135.73 72.6064L116.993 81.8608L113.534 89.6693L118.439 100.483Z" fill="#F4BBA4"/>
<path d="M131.936 112.307L128.751 119.4L134.392 113.759L142.863 121.12L140.347 130.26L147.774 131.156L152.232 122.123L144.984 106.17L142.308 84.986L137.195 75.3622L135.282 74.9479L140.635 85.2056L140.856 104.833L135.951 109.964L130.818 108.847L118.439 100.483L131.936 112.307Z" fill="#E69173"/>
<path d="M126.135 138.403L125.801 143.202L131.937 147.551L135.691 148.072L137.511 148.327L148.666 131.933L147.775 131.157L141.794 130.433L135.731 129.705L126.47 124.465L125.36 124.237L126.135 138.403Z" fill="#473C39"/>
<path d="M119.001 157.361L118.888 169.071L122.232 170.636L124.575 168.181L137.209 164.079L137.623 163.944L137.51 148.327L131.936 147.55L125.799 143.201L119.107 143.87L116.658 152.905L119.001 157.361Z" fill="#F4BBA4"/>
<path d="M128.089 162.493L124.576 168.18L137.21 164.079L128.089 162.493Z" fill="#E69173"/>
<path d="M50.1885 72.6037L45.2817 78.4039L48.1818 99.2588L49.0737 102.157L58.2183 99.0358L65.6907 92.4552L62.1217 75.3923L50.1885 72.6037Z" fill="#E69173"/>
<path d="M98.4788 50.5242L100.673 81.2591L100.707 81.7466L102.159 92.6798L106.061 88.1042L113.42 95.6914L114.873 89.5551L125.914 93.6848L123.458 86.3239L138.741 91.5634L134.278 76.0595L149.669 79.0694L137.959 63.6804L142.643 62.341L123.124 54.6456L130.264 50.5242L110.302 48.7372L98.4788 50.5242Z" fill="#473C39"/>
<path d="M100.674 81.2581L100.707 81.7473L102.159 92.6805L106.06 88.1033L113.42 95.6921L114.873 89.5558L125.914 93.6839L123.459 86.3229L138.741 91.5624L134.279 76.0586L149.669 79.0702L127.252 67.3067L129.929 82.5293L117.885 78.0119L118.553 86.2098L111.695 82.1949L110.189 88.3845L105.84 82.5293L102.66 88.2181L100.674 81.2581Z" fill="#2B2523"/>
<path d="M31.229 84.3698C27.8829 87.047 30.2257 93.7374 32.5667 93.4029C31.5634 87.3814 31.229 84.3698 31.229 84.3698Z" fill="#8C8680"/>
<path d="M37.9939 71.1807L52.4212 74.9477L51.4163 80.4085L59.8887 77.7313C59.8887 77.7313 59.0517 89.9374 58.9985 90.4382C59.0517 90.0639 65.3561 84.7578 65.3561 84.7578L66.5807 88.5514L70.5956 82.5299L70.7088 81.6464L75.0581 48.4024L66.2446 48.5172L52.6409 53.7567L57.5459 56.6535L37.0305 70.9328L37.9939 71.1807Z" fill="#473C39"/>
<path d="M51.4172 80.4085L59.888 77.7313C59.888 77.7313 59.0527 89.9374 58.9995 90.4382C59.0527 90.0639 65.3554 84.7578 65.3554 84.7578L66.58 88.5514L70.5949 82.5299L70.7081 81.6464L68.5883 77.3969L62.5651 81.6397L62.3438 73.1624L55.6534 74.9477L56.9912 67.1392L37.9949 71.1807L52.4206 74.9477L51.4172 80.4085Z" fill="#2B2523"/>
<path d="M-0.000244141 83.6471L1.3375 88.7734L1.43234 88.84L5.13277 91.5637L75.5607 46.7293L76.396 42.7144L75.7071 41.7244L73.7205 38.8675L-0.000244141 83.6471Z" fill="#7A4C41"/>
<path d="M66.8077 68.4773L65.6896 82.5286L68.3667 80.4089L70.7095 95.357L72.7161 93.3504L75.1719 97.1373L82.3049 97.6997L88.7757 90.3388L88.3281 96.8029L96.9203 84.65L97.3612 92.1175L105.953 77.3973L109.74 79.9663L103.945 62.0065L107.847 63.7935L102.045 53.6423L100.152 42.3796L100.935 37.8107L80.077 29.2185L74.2751 45.1699L65.7645 60.722L60.6714 70.0363L66.8077 68.4773Z" fill="#A39B94"/>
<path d="M59.1125 150.562L69.2704 154.752L71.8261 155.802L87.5513 157.254L92.3432 157.695L103.478 154.008L109.854 151.9L107.371 145.511L101.102 147.858L91.7875 151.337L87.939 151.278L71.0441 151.003L70.0391 150.542L60.2307 146.005L59.1125 150.562Z" fill="#E9AC5A"/>
<path d="M116.66 152.904L119.003 157.36L121.231 146.601L118.888 153.125L116.66 152.904Z" fill="#E69173"/>
<path d="M69.27 154.751L71.8257 155.801L87.5509 157.253L87.9386 151.278L71.0437 151.004L70.0387 150.541L69.27 154.751Z" fill="#F9C367"/>
<path d="M101.102 147.859L103.478 154.008L109.853 151.9L107.371 145.509L101.102 147.859Z" fill="#DA9C49"/>
<path d="M135.69 148.073L137.51 148.327L148.665 131.933L147.775 131.156L141.793 130.434L135.69 148.073Z" fill="#2B2523"/>
<path d="M136.217 138.714C135.47 140.949 135.682 143.033 136.69 143.37C137.698 143.707 139.119 142.168 139.866 139.934C140.613 137.699 140.402 135.614 139.394 135.278C138.387 134.94 136.964 136.479 136.217 138.714Z" fill="#BDB3AC"/>
<path d="M128.105 136.065C127.802 138.401 128.411 140.406 129.466 140.543C130.519 140.679 131.619 138.895 131.92 136.559C132.223 134.223 131.614 132.218 130.561 132.082C129.507 131.946 128.408 133.729 128.105 136.065Z" fill="#BDB3AC"/>
<path d="M60.1162 137.955L88.8894 136.509L95.9758 133.526L103.718 130.26L102.38 123.127L94.0623 125.415L87.7729 127.142L62.3441 127.583L60.1162 137.955Z" fill="#473C39"/>
<path d="M75.1721 97.137L76.0623 111.524H78.9591L82.3051 97.6994L79.7161 97.4981L75.1721 97.137Z" fill="#E9AC5A"/>
<path d="M78.9619 111.526L80.4111 119.221L77.5126 124.574L75.1699 119.11L76.0618 111.526H78.9619Z" fill="#A39B94"/>
<path d="M30.2256 81.4124L33.1224 99.0377L38.4767 102.718L39.5798 102.838L48.741 103.83L54.0937 92.3456L53.4248 85.8749L42.4916 73.2761L32.3537 79.9998L30.2256 81.4124Z" fill="#473C39"/>
<path d="M-0.000244141 83.6469L1.3375 88.7733L1.43234 88.8398L75.7071 41.7243L73.7205 38.8674L-0.000244141 83.6469Z" fill="#A16758"/>
<path d="M66.8077 68.4773L65.6896 82.5286L68.3667 80.4089L70.7095 95.357L72.7161 93.3504L75.1719 97.1373L82.3049 97.6997L88.7757 90.3388L88.3281 96.8029L96.9203 84.65L97.3612 92.1175L105.953 77.3973L109.74 79.9663L103.945 62.0065L104.334 73.998L100.82 67.1396L96.3047 79.3506L93.2931 73.4955L84.5944 84.3688L81.7492 76.5071L77.5679 82.0278L76.731 69.4806L69.7045 73.4955L69.3701 63.4591L64.0174 66.4707L65.7645 60.722L60.6714 70.0363L66.8077 68.4773Z" fill="#8C8680"/>
<path d="M94.0625 125.415L95.9759 133.525L103.718 130.26L102.38 123.127L94.0625 125.415Z" fill="#2B2523"/>
<path d="M77.9958 111.524H78.9592L82.3053 97.6989L79.7146 97.4976L77.9958 111.524Z" fill="#DA9C49"/>
<path d="M30.2256 81.4123L33.1224 99.0376L38.4767 102.718L39.5798 102.838L32.4003 80.0214L32.3537 79.9997L30.2256 81.4123Z" fill="#2B2523"/>
<path d="M18.8499 68.6983L21.7466 73.8313L28.2174 76.1724L37.6997 69.0327L40.0425 61.1161L35.7597 56.2193L31.5634 51.4141L24.873 56.2127L18.8499 68.6983Z" fill="#F4BBA4"/>
<path d="M18.8499 68.6983L21.7466 73.8313L28.2174 76.1724L37.6997 69.0327L40.0425 61.1161L35.7597 56.2193L31.397 64.7965L23.1992 72.3255L18.8499 68.6983Z" fill="#E28B6B"/>
<path d="M25.9875 78.0684L28.4251 79.9003L30.2254 81.4127L35.4649 81.5259L43.1603 75.8371L45.2817 67.3598L42.2701 60.7825L33.4583 58.5529L31.2287 61.4514L37.365 66.022L34.2403 72.6043L25.9875 78.0684Z" fill="#E28B6B"/>
<path d="M42.5554 92.4196C43.6036 94.5294 45.2259 95.8555 46.1776 95.383C47.1293 94.9104 47.0494 92.8156 46.0012 90.7075C44.9513 88.5977 43.3307 87.27 42.379 87.7442C41.4273 88.2167 41.5071 90.3099 42.5554 92.4196Z" fill="#BDB3AC"/>
<path d="M34.1383 91.6034C34.5975 93.9146 35.8154 95.62 36.857 95.412C37.8986 95.2057 38.3711 93.1642 37.9119 90.853C37.4527 88.5419 36.2364 86.8365 35.1931 87.0445C34.1516 87.2508 33.679 89.2923 34.1383 91.6034Z" fill="#BDB3AC"/>
<path d="M28.4251 79.8999L29.1106 77.0647L31.5631 75.0015L36.7494 76.8417L35.0772 72.6588L37.365 66.0216L33.6846 71.4891L25.9875 78.068L28.4251 79.8999Z" fill="#BF7A5B"/>
<path d="M33.4575 58.5539L33.7387 61.4507L39.2594 64.2959L42.271 60.7818L33.4575 58.5539Z" fill="#F4BBA4"/>
<path d="M101.155 39.0347L103.498 44.7218L110.411 46.5071H105.17L108.851 51.4139L100.487 52.6401L98.1438 41.4873L100.041 38.5888L101.155 39.0347Z" fill="#807A74"/>
<path d="M77.4001 42.046L77.7346 50.2971L83.9774 45.7265L86.6545 46.8446L91.6728 54.2039L97.2533 46.3954L96.3565 42.8297L99.067 39.5768L100.265 38.1443L80.5249 30.2226L80.2437 33.582L79.9625 36.913L77.4001 42.046Z" fill="#F4BBA4"/>
<path d="M84.2597 51.0795L85.0967 56.4322L91.9551 62.7898L83.4228 57.7716L82.754 54.9264L80.5793 57.4372L71.8806 58.4405L79.576 55.4289L84.2597 51.0795Z" fill="#8C8680"/>
<path d="M37.7002 31.1185L46.2857 30.2217L47.1493 30.8307L51.1908 33.6809L55.6533 40.0385L57.1058 50.1897L69.6247 42.2398L72.3817 40.4861L69.5914 34.1301L69.6181 33.0586L69.7861 25.4248L69.8194 23.8641L72.603 17.7427L73.7211 15.2802L79.0738 12.7162L70.2603 9.25703L59.3337 10.4816L53.2174 13.8942L47.7383 16.9524L46.2724 18.4715L42.0229 22.8874L41.9364 22.9756L37.7002 31.1185Z" fill="#ABA39B"/>
<path d="M45.9643 85.2501C47.4518 87.077 49.3253 88.0138 50.1506 87.3432C50.9742 86.671 50.4351 84.6478 48.9477 82.8209C47.4602 80.9939 45.5867 80.0572 44.7614 80.7277C43.9378 81.3983 44.4769 83.4232 45.9643 85.2501Z" fill="#BDB3AC"/>
<path d="M92.122 17.9563L86.3234 22.863L83.989 21.9396C85.0822 20.0877 86.0455 18.0445 87.2552 16.3673L92.122 17.9563Z" fill="#8C8680"/>
<path d="M80.6348 17.9564L83.6464 7.24946L90.7827 1.33514e-05L87.2153 7.91833L86.6579 16.1711L87.2553 16.3674C86.0456 18.0446 85.0806 20.0878 83.9874 21.9397L80.9692 20.745L80.6348 17.9564Z" fill="#A19892"/>
<path d="M101.824 36.5811L101.155 18.7378L98.0323 15.5033L92.4567 15.8377L81.4153 26.0971L101.824 36.5811Z" fill="#533A35"/>
<path d="M101.428 25.9989L101.824 36.5811L81.415 26.0987L82.648 24.9523C88.5547 27.3882 96.6311 30.7642 101.428 25.9989Z" fill="#3D2B27"/>
<path d="M87.7722 47.3992L83.0884 45.3926L83.5343 44.1646L85.2065 43.4957L87.4377 45.8385L87.7722 47.3992Z" fill="#E69173"/>
<path d="M91.375 43.3287C91.1504 44.5799 91.4915 45.688 92.1337 45.8028C92.7777 45.9176 93.4815 44.9975 93.7061 43.7463C93.9291 42.4951 93.5896 41.3869 92.9457 41.2721C92.3018 41.1557 91.5996 42.0774 91.375 43.3287Z" fill="#2B2523"/>
<path d="M80.5474 40.232C80.3228 41.4832 80.6639 42.5913 81.3061 42.7061C81.95 42.821 82.6538 41.9008 82.8785 40.6496C83.1014 39.3984 82.762 38.2903 82.1181 38.1754C81.4742 38.0606 80.772 38.9808 80.5474 40.232Z" fill="#2B2523"/>
<path d="M106.899 3.12385L108.46 17.1752L107.903 23.4213L100.876 20.0753L98.3123 21.8606L99.7615 27.3247L110.023 30.7822L112.364 29.4428L112.475 19.072L106.899 3.12385Z" fill="#BDB3AC"/>
<path d="M80.2441 33.5813L99.0674 39.5762L100.265 38.1453L80.5253 30.2219L80.2441 33.5813Z" fill="#E69173"/>
<path d="M103.386 36.0237L101.268 39.8157L92.3342 36.057C92.7086 34.4065 93.0846 32.6661 93.459 31.0604L103.386 36.0237Z" fill="#CCC1BA"/>
<path d="M93.4596 31.0606C93.0836 32.6662 92.7092 34.4066 92.3332 36.0571L83.8242 32.4765C83.8924 30.5065 83.9923 28.5298 84.6695 26.6646L93.4596 31.0606Z" fill="#DDD3C9"/>
<path d="M98.0327 42.0459L88.4422 41.2655L87.6602 38.4769L95.9146 39.8147L98.0327 42.0459Z" fill="#A39B94"/>
<path d="M79.5194 24.0902L84.669 26.6642C83.9918 28.5294 83.8937 30.5061 83.8238 32.4761L78.739 30.3363L79.5194 24.0902Z" fill="#CCC1BA"/>
<path d="M85.0956 37.6963L85.4301 40.8193L78.9626 36.5815L81.3037 35.8011L85.0956 37.6963Z" fill="#A39B94"/>
<path d="M46.272 18.4715L69.6193 33.0586L69.7857 25.4248L53.2186 13.8942L47.7378 16.9524L46.272 18.4715Z" fill="#BCB3AB"/>
<path d="M37.7002 31.1185L46.2857 30.2217L47.1493 30.8307L51.1908 33.6809L55.6533 40.0385L57.1058 50.1897L69.6247 42.2398L42.0229 22.8874L41.9364 22.9756L37.7002 31.1185Z" fill="#BCB3AB"/>
<path d="M37.7002 31.1187L46.2857 30.2218L47.1493 30.8308L48.2923 26.9906L51.5252 22.7544C51.5252 22.7544 59.555 18.5116 59.8895 18.4051C60.2239 18.2903 67.2504 16.1705 67.2504 16.1705L72.603 17.7429L73.7211 15.2803L79.0738 12.7163L70.2603 9.25717L59.3337 10.4818L47.7383 16.9525L41.9364 22.9757L37.7002 31.1187Z" fill="#DDD3C9"/>
<path d="M41.9354 22.9752L42.0219 22.8887L48.2198 27.233L47.1483 30.8303L46.2847 30.2213L37.6992 31.1182L41.9354 22.9752Z" fill="#F2E7DC"/>
<path d="M59.7719 18.4559C58.9599 18.8386 54.341 21.2695 52.3926 22.2961L46.2729 18.4726L47.7371 16.9518L53.2162 13.8953L59.7719 18.4559Z" fill="#F2E7DC"/>
<path d="M206.242 232.542L206.587 239.444L205.097 241.516L193.817 242.441L200.376 236.683L201.873 223.34L195.288 217.371L188.62 211.325L184.5 207.582L188.675 206.036L196.005 203.323L199.753 210.122L205.207 220.007L208.085 220.58L209.465 222.65L206.242 232.542Z" fill="#E28B6B"/>
<path d="M194.743 210.268L188.531 237.375L191.057 243.704L190.602 245.547L186.226 246.692L180.82 248.88L166.207 248.073L175.526 243.587L183.581 237.837C183.581 237.837 183.698 223.459 183.698 223.112C183.698 222.885 183.243 214.837 182.933 209.46C182.78 206.74 182.663 204.703 182.663 204.703L196.123 204.241L194.743 210.268Z" fill="#F4BBA4"/>
<path d="M208.313 90.9283L207.968 105.424L205.67 94.6069L200.609 137.058L198.539 121.528L195.433 146.378L184.043 119.574L182.552 111.458L179.212 93.2265L179.439 81.1466C179.439 81.1466 176.796 89.2028 176.796 88.8577C176.796 88.5127 178.632 75.3974 178.632 75.3974L182.545 63.7728L188.414 58.2514L194.163 56.1808L197.614 57.796L201.644 57.4509L205.787 65.2706L207.741 72.9818L208.313 90.9283Z" fill="#A16758"/>
<path d="M208.314 90.9283L207.969 105.424L205.671 94.6069L200.61 137.058L198.539 121.528L195.434 146.378L184.044 119.574L182.553 111.458L183.236 110.02L195.316 94.1444L198.422 77.3506L201.3 84.3716L202.565 70.221L205.553 88.6229L207.741 72.9818L208.314 90.9283Z" fill="#7A4C41"/>
<path d="M199.754 210.123L195.287 217.37L188.62 211.323L188.675 206.037L196.006 203.324L199.754 210.123Z" fill="#BF7A5B"/>
<path d="M196.123 204.242L194.743 210.268L182.933 209.461C182.78 206.741 182.663 204.704 182.663 204.704L196.123 204.242Z" fill="#E28B6B"/>
<path d="M209.349 202.861C209.349 202.861 185.189 208.272 184.844 208.5C184.499 208.728 161.721 205.512 161.721 205.512L162.349 198.119L162.473 196.621L164.448 173.158L164.827 168.693L172.075 132.108L173.573 129.237L187.379 130.618L191.982 129.003L194.053 131.073L200.375 151.327L198.512 167.596L197.386 177.438L198.767 187.103L205.172 196.635L205.718 197.45L209.349 202.861Z" fill="#CB5849"/>
<path d="M209.349 202.861C209.349 202.861 185.189 208.272 184.844 208.5C184.499 208.728 161.721 205.512 161.721 205.512L162.473 196.621L164.448 173.158L168.568 197.457L175.644 167.258L180.475 199.528L185.306 167.258L193.418 198.492L193.073 187.62L194.453 177.611L198.512 167.596L197.386 177.438L198.767 187.103L205.172 196.635L209.349 202.861Z" fill="#473C39"/>
<path d="M205.718 197.449L205.173 196.635L198.766 187.102L197.386 177.439L198.512 167.595L200.376 151.326L194.052 131.074L191.982 129.004L187.378 130.619L173.573 129.237L185.998 133.262L191.864 152.934L191.692 180.718L192.021 206.783C199.253 205.123 209.348 202.86 209.348 202.86L205.718 197.449Z" fill="#A63F32"/>
<path d="M197.386 177.439L198.512 167.595L194.453 177.611L193.073 187.621L193.418 198.491L191.84 192.416L192.022 206.782C192.47 206.681 192.927 206.576 193.395 206.469C193.402 206.467 193.409 206.466 193.416 206.464C198.447 205.313 204.372 203.979 207.38 203.303C207.679 203.235 207.946 203.177 208.182 203.123C208.257 203.105 208.33 203.089 208.397 203.075C209.004 202.938 209.349 202.862 209.349 202.862L205.718 197.449L205.172 196.636L198.767 187.103L197.386 177.439Z" fill="#2B2523"/>
<path d="M209.349 202.861C209.349 202.861 185.189 208.272 184.844 208.5C184.499 208.728 161.721 205.512 161.721 205.512L162.473 196.621L183.753 199.873L205.172 196.635L209.349 202.861Z" fill="#CB5849"/>
<path d="M192.022 206.783C192.471 206.68 192.928 206.575 193.396 206.468C193.403 206.466 193.41 206.465 193.417 206.463C198.446 205.314 204.373 203.978 207.381 203.304C207.678 203.236 207.946 203.176 208.183 203.122C208.258 203.106 208.331 203.09 208.398 203.074C209.003 202.939 209.35 202.861 209.35 202.861L205.719 197.449L205.173 196.635L191.919 198.638L192.022 206.783Z" fill="#A63F32"/>
<path d="M209.349 202.861C209.349 202.861 185.189 208.272 184.844 208.5C184.499 208.728 161.721 205.512 161.721 205.512L162.349 198.119L184.099 201.771L205.718 197.45L209.349 202.861Z" fill="#473C39"/>
<path d="M192.022 206.783C192.47 206.68 192.928 206.575 193.395 206.468C193.402 206.466 193.41 206.465 193.417 206.463C198.445 205.314 204.372 203.978 207.38 203.304C207.677 203.236 207.946 203.176 208.183 203.122C208.257 203.106 208.33 203.09 208.398 203.074C209.003 202.939 209.35 202.861 209.35 202.861L205.719 197.449L191.938 200.203L192.022 206.783Z" fill="#2B2523"/>
<path d="M175.298 144.134L180.992 151.898L182.027 173.47L175.643 152.763L175.298 144.134Z" fill="#A63F32"/>
<path d="M179.094 90.466L173.455 110.255L160.34 117.504L156.316 117.849L153.437 110.6L154.472 94.8347L159.353 91.5564L161.148 90.3486L164.944 91.8463L165.565 93.8066L167.132 98.7481L165.979 103.119L171.502 99.3209L176.796 92.3088L179.094 90.466Z" fill="#DDC6B0"/>
<path d="M179.094 90.466L173.456 110.255L160.34 117.504L156.317 117.849L160.803 116.268L163.564 110.746L165.979 103.119L171.502 99.3209L176.796 92.3088L179.094 90.466Z" fill="#C7AC92"/>
<path d="M200.61 96.4503L194.508 105.424L194.398 112.899L193.591 114.914L191.636 119.803L193.018 123.716L191.983 125.442L187.149 127.05L173.344 124.979L172.191 123.136L173.344 117.73L170.121 104.732L173.759 99.9563L175.297 97.9409L179.095 90.4663L181.71 89.9612L184.499 89.4311L192.9 90.3489L197.303 93.8336L200.61 96.4503Z" fill="#CB5849"/>
<path d="M194.508 105.424L194.398 112.9L193.59 114.915L191.637 119.802L193.018 123.715L191.982 125.441L187.149 127.051L173.344 124.978L172.191 123.135L185.651 120.837L173.344 117.731L170.121 104.733L179.212 108.985L188.186 108.875L194.508 105.424Z" fill="#A63F32"/>
<path d="M213.953 139.474L213.49 144.651L211.309 147.529L206.821 147.986L199.92 143.043L194.398 112.899L194.508 105.424L200.61 96.4501L201.645 99.3211L205.096 118.305L213.953 139.474Z" fill="#DDC6B0"/>
<path d="M213.953 139.474L213.49 144.651L212.4 146.093L211.309 147.529L206.821 147.986L203.881 145.88L199.92 143.043L194.398 112.899L194.508 105.424L200.61 96.4501L195.316 105.652L196.433 119.457L200.231 134.816L204.027 141.718L211.019 144.044L212.654 142.844L213.953 139.474Z" fill="#C7AC92"/>
<path d="M232.362 179.972L221.662 182.27L220.047 182.615L193.936 180.89L203.253 177.211L213.732 176.72L215.678 176.631L215.216 161.1L214.243 159.727L212.11 156.732L212.323 156.047L213.262 153.051C213.337 153.051 213.634 153.411 214.042 153.957C214.732 154.875 215.733 156.33 216.575 157.566C217.425 158.815 218.094 159.837 218.094 159.837L221.082 175.713L232.362 179.972Z" fill="#A16758"/>
<path d="M232.362 179.972L229.138 194.695L223.962 202.977C223.962 202.977 213.49 206.202 213.145 206.313C212.8 206.43 202.335 202.634 202.335 202.634L195.433 191.935L193.936 180.89L202.335 181.235L202.445 170.073L203.826 160.755L204.978 158.333L207.049 153.969L208.314 157.65L207.622 160.873L205.669 168.347L206.476 181.463L220.047 182.615L232.362 179.972Z" fill="#E28B6B"/>
<path d="M217.855 182.435C216.24 185.45 217.976 189.996 215.743 189.134C213.509 188.271 216.489 182.659 216.489 182.659L217.855 182.435Z" fill="#57342C"/>
<path d="M221.662 182.27L220.047 182.615L193.934 180.89L203.253 177.211L213.731 176.72L215.333 179.426L221.662 182.27Z" fill="#7A4C41"/>
<path d="M209.836 179.618C210.847 182.885 208.276 187.017 210.633 186.596C212.99 186.176 211.135 180.1 211.135 180.1L209.836 179.618Z" fill="#57342C"/>
<path d="M225.802 178.129C223.502 180.66 224.076 185.492 222.119 184.111C220.165 182.731 224.421 178.013 224.421 178.013L225.802 178.129Z" fill="#57342C"/>
<path d="M197.892 177.094C200.192 179.625 199.618 184.456 201.574 183.076C203.529 181.695 199.273 176.978 199.273 176.978L197.892 177.094Z" fill="#57342C"/>
<path d="M215.954 175.713C218.254 178.244 217.68 183.076 219.636 181.695C221.591 180.315 217.334 175.597 217.334 175.597L215.954 175.713Z" fill="#57342C"/>
<path d="M206.983 180.825C206.983 180.825 211.738 181.527 214.093 178.939C214.093 178.939 212.275 175.741 210.351 174.268C209.673 173.745 208.976 173.443 208.348 173.581C205.936 174.108 206.983 180.825 206.983 180.825Z" fill="#57342C"/>
<path d="M206.982 180.825C206.982 180.825 211.737 181.527 214.092 178.939C214.092 178.939 212.274 175.741 210.35 174.268C211.607 178.63 206.982 180.825 206.982 180.825Z" fill="#422822"/>
<path d="M227.875 180.432C227.875 180.432 223.271 179.052 222.236 175.711C222.236 175.711 225.239 173.585 227.606 173.068C228.441 172.881 229.2 172.9 229.711 173.295C231.671 174.793 227.875 180.432 227.875 180.432Z" fill="#DDC6B0"/>
<path d="M227.875 180.432C227.875 180.432 223.271 179.052 222.236 175.711C222.236 175.711 225.239 173.585 227.606 173.068C224.616 176.483 227.875 180.432 227.875 180.432Z" fill="#C7AC92"/>
<path d="M195.819 179.396C195.819 179.396 200.423 178.016 201.458 174.675C201.458 174.675 198.455 172.55 196.088 172.032C195.254 171.845 194.494 171.867 193.984 172.26C192.023 173.758 195.819 179.396 195.819 179.396Z" fill="#DDC6B0"/>
<path d="M195.819 179.397C195.819 179.397 200.423 178.016 201.458 174.676C201.458 174.676 198.456 172.55 196.088 172.032C199.078 175.448 195.819 179.397 195.819 179.397Z" fill="#C7AC92"/>
<path d="M213.881 178.016C213.881 178.016 218.485 176.636 219.52 173.295C219.52 173.295 216.517 171.169 214.15 170.652C213.316 170.465 212.556 170.486 212.046 170.879C210.085 172.377 213.881 178.016 213.881 178.016Z" fill="#DDC6B0"/>
<path d="M213.881 178.016C213.881 178.016 218.484 176.636 219.52 173.295C219.52 173.295 216.517 171.169 214.149 170.652C217.14 174.067 213.881 178.016 213.881 178.016Z" fill="#C7AC92"/>
<path d="M220.427 184.163C220.427 184.163 215.626 183.946 213.807 180.96C213.807 180.96 216.201 178.165 218.371 177.085C219.136 176.701 219.878 176.538 220.468 176.794C222.735 177.768 220.427 184.163 220.427 184.163Z" fill="#57342C"/>
<path d="M220.427 184.163C220.427 184.163 215.626 183.946 213.807 180.96C213.807 180.96 216.201 178.165 218.371 177.085C216.306 181.129 220.427 184.163 220.427 184.163Z" fill="#422822"/>
<path d="M207.623 160.872L205.67 168.349L206.478 181.462L204.98 168.203L205.931 163.115L206.015 158.629L204.98 158.332L207.05 153.97L208.313 157.649L207.623 160.872Z" fill="#BF7A5B"/>
<path d="M232.362 179.972L229.139 194.695L223.963 202.977C223.963 202.977 213.491 206.202 213.146 206.313C212.8 206.43 202.336 202.634 202.336 202.634L195.434 191.935L204.116 197.374L215.07 197.456L219.302 192.361L219.82 183.823L206.477 181.463L220.047 182.615L232.362 179.972Z" fill="#BF7A5B"/>
<path d="M216.576 157.566L214.242 159.727L212.109 156.73L212.324 156.047L214.043 153.957C214.733 154.875 215.734 156.33 216.576 157.566Z" fill="#7A4C41"/>
<path d="M214.415 154.66L214.353 154.825L213.145 157.993L207.623 160.872L208.314 157.648L208.153 157.179L207.051 153.97L205.67 156.992L204.978 152.244L206.823 149.946V147.986L211.309 147.529L211.731 148.171L213.262 150.519L214.415 154.66Z" fill="#F4BBA4"/>
<path d="M214.353 154.826L213.145 157.994L207.624 160.872L208.314 157.649L208.154 157.179L214.353 154.826Z" fill="#E28B6B"/>
<path d="M212.4 146.094L211.309 147.529L206.823 147.985L203.881 145.881L212.4 146.094Z" fill="#473C39"/>
<path d="M211.73 148.172L206.822 149.945V147.985L211.308 147.529L211.73 148.172Z" fill="#E28B6B"/>
<path d="M200.61 96.4504L194.508 105.425L194.398 112.899L193.591 114.915L190.946 104.733L180.358 105.19L173.759 99.9564L175.297 97.941L179.095 90.4664L181.71 89.9613L184.499 89.4312L192.9 90.349L197.303 93.8337L200.61 96.4504Z" fill="#473C39"/>
<path d="M191.981 129.003L187.378 130.618L184.126 130.295L173.572 129.238L173.344 124.98L185.521 126.808L187.15 127.05L191.636 125.442L191.981 129.003Z" fill="#473C39"/>
<path d="M191.982 129.003L187.378 130.618L184.126 130.295L185.521 126.808L187.15 127.05L191.637 125.442L191.982 129.003Z" fill="#2B2523"/>
<path d="M181.393 76.0878L180.821 87.5896L182.43 84.8289L182.201 94.262L186.687 93.2267V81.1467L181.393 76.0878Z" fill="#7A4C41"/>
<path d="M197.304 93.8341L191.174 101.972H181.394L177.941 99.4391L181.71 89.9616L182.346 89.8371L184.5 89.4297L192.899 90.3476L194.653 91.7351L197.304 93.8341Z" fill="#DDC6B0"/>
<path d="M194.653 91.7358L185.653 94.0002L182.346 89.8378L184.5 89.4305L192.899 90.3483L194.653 91.7358Z" fill="#473C39"/>
<path d="M165.566 93.8064L159.355 91.5562L161.148 90.3484L164.946 91.8461L165.566 93.8064Z" fill="#473C39"/>
<path d="M193.707 81.0298L192.899 90.3509L186.686 91.9607L184.501 89.4312L186.227 83.6785L193.707 81.0298Z" fill="#E28B6B"/>
<path d="M168.051 86.0963L166.098 88.7396L164.945 91.8455L161.149 90.3477L161.494 87.9321L158.732 84.0258L159.54 78.732L162.53 71.711L163.22 75.9695L162.412 80.8025L165.173 84.5985L164.945 79.4222L168.051 86.0963Z" fill="#F4BBA4"/>
<path d="M168.051 86.0963L166.098 88.7396L164.945 91.8455L161.149 90.3477L161.494 87.9321L158.732 84.0258L159.54 78.732L162.53 71.711L160.459 78.5595L160.541 83.3907L164.255 86.0625L165.027 88.3945L168.051 86.0963Z" fill="#E28B6B"/>
<path d="M165.983 64.3768L163.882 78.6127L160.09 85.3171L153.656 89.7694L154.622 90.8972L161.305 85.4398L164.93 78.6927L165.983 64.3768Z" fill="#7F6E54"/>
<path d="M194.162 70.5655L193.707 81.0303L184.388 84.5986L181.392 76.087L183.111 68.5981L183.609 66.4173L183.925 65.0441L189.331 61.3566L192.291 67.0043L192.775 67.9222L193.348 69.0197L193.81 69.902L194.162 70.5655Z" fill="#F4BBA4"/>
<path d="M162.615 81.9238L162.183 78.6455L157.611 75.2799L158.387 78.5583L161.147 81.5787L162.615 81.9238Z" fill="#7F6E54"/>
<path d="M184.041 78.9038L184.847 78.2705L186.86 78.5018L189.16 79.8234L186.4 80.7449L184.904 80.5136L184.041 78.9038Z" fill="#CB5849"/>
<path d="M164.426 78.6448L167.014 75.884L170.637 75.4518L173.572 76.8322L167.101 77.8692L164.426 78.6448Z" fill="#7F6E54"/>
<path d="M185.076 77.2357L187.319 77.5808L185.305 76.373L185.076 77.2357Z" fill="#E28B6B"/>
<path d="M184.942 73.0937C184.752 73.8978 184.273 74.4723 183.871 74.3781C183.469 74.282 183.297 73.5545 183.487 72.7504C183.676 71.9464 184.156 71.3719 184.558 71.4661C184.96 71.5604 185.133 72.2897 184.942 73.0937Z" fill="#2B2523"/>
<path d="M189.331 61.3572L191.519 60.3237L194.163 70.5662L189.331 61.3572Z" fill="#7A4C41"/>
<path d="M190.607 74.1577C190.417 74.9617 189.939 75.5363 189.537 75.442C189.135 75.346 188.962 74.6184 189.152 73.8144C189.343 73.0104 189.821 72.4358 190.223 72.5301C190.625 72.6244 190.798 73.3537 190.607 74.1577Z" fill="#2B2523"/>
<path d="M164.911 68.9587L161.643 71.417L160.27 70.1522L164.112 68.4837L160.051 68.1973L160.453 65.6412L164.357 67.4751L161.867 63.8534L164.311 62.7506L165.186 66.6444L165.597 62.3414L167.975 63.3251L166.236 66.6337L169.575 64.275L170.336 66.664L166.739 67.3239L170.05 67.9305L169.29 69.9939L166.65 68.4446L168.308 71.2373L167.257 72.3829L166.004 69.2184L165.916 73.1335L163.47 72.5768L164.911 68.9587Z" fill="#E9AC5A"/>
<path d="M193.81 69.9028L186.804 70.2212L183.111 68.5989L183.609 66.4163L187.031 67.8038L192.775 67.9212L193.348 69.0187L193.81 69.9028Z" fill="#473C39"/>
<path d="M193.072 72.375L188.759 72.0299L189.017 70.7349L193.072 72.375Z" fill="#804F43"/>
<path d="M182.891 70.4479L186.084 71.7429L186.257 70.5333L182.891 70.4479Z" fill="#804F43"/>
<path d="M166.631 68.0056C166.542 68.5713 166.012 68.9573 165.448 68.8684C164.883 68.7794 164.497 68.2493 164.585 67.6854C164.674 67.1198 165.203 66.7338 165.768 66.8227C166.334 66.9117 166.72 67.44 166.631 68.0056Z" fill="#F2E7DC"/>
<path d="M189.331 61.3573L188.413 60.0943L183.927 65.043L189.331 61.3573Z" fill="#7A4C41"/>
<path d="M194.165 56.1829L191.979 59.6338L197.616 57.7927L194.165 56.1829Z" fill="#7A4C41"/>
</svg>
