<?xml version="1.0" encoding="UTF-8"?>
<svg id="Layer_2" data-name="Layer 2" xmlns="http://www.w3.org/2000/svg" viewBox="0 0 109.32 43.55">
  <defs>
    <style>
      .cls-1 {
        fill: #0055b8;
      }
    </style>
  </defs>
  <g id="Layer_1-2" data-name="Layer 1">
    <g>
      <path class="cls-1" d="M0,16.16c1.29,.72,2.59,1.37,3.88,1.94V0H0V16.16Z"/>
      <path class="cls-1" d="M16.13,15.09c1.41-2.3,2.83-4.84,4.24-7.59v14.47c1.23,.06,2.46,.08,3.69,.06V0h-4.07c-1.41,3.05-2.82,5.91-4.22,8.51-1.45-2.8-2.9-5.69-4.35-8.51H7.33V19.47c1.23,.43,2.46,.8,3.69,1.11V7.06c1.41,2.68,2.83,5.36,4.25,7.92,.29,.04,.58,.07,.86,.1Z"/>
      <path class="cls-1" d="M38.29,20.32c1.34-.27,2.67-.57,4.01-.89C40.28,14.08,38.26,7.81,36.24,0h-4.16c-2.03,8.17-4.05,15.69-6.08,21.96,1.28-.06,2.56-.16,3.84-.3,.46-1.53,.92-3.12,1.38-4.77,1.9-.21,3.79-.47,5.69-.79,.46,1.47,.92,2.88,1.38,4.22Zm-5.8-8.07c.53-2.01,1.06-4.08,1.6-6.2,.52,2.06,1.05,4.01,1.57,5.86-1.06,.13-2.11,.25-3.17,.35Z"/>
      <path class="cls-1" d="M47.85,6.43c2.16,3.76,4.33,6.88,6.49,9.83,1.37-.38,2.75-.77,4.12-1.14V0h-3.6V10.54c-2.16-3.04-4.33-6.41-6.49-10.54h-4.12V18.96c1.2-.3,2.4-.61,3.6-.93V6.43Z"/>
      <path class="cls-1" d="M67.73,0h-5.82V14.18c1.94-.51,3.88-1,5.82-1.45,4.92-1.16,8.13-4.85,8.13-7.94,0-3-3.21-4.65-8.13-4.79Zm0,9.58c-.65,.13-1.29,.27-1.94,.41V2.6c.65-.05,1.29-.1,1.94-.15,2.52-.15,4.14,.91,4.14,2.81s-1.62,3.79-4.14,4.31Z"/>
      <path class="cls-1" d="M82.31,6.14c.86-.04,1.73-.07,2.59-.09,1.12,1.27,2.24,2.69,3.36,4.29,1.44,.05,2.89,.17,4.33,.35-1.37-2.06-2.75-3.84-4.12-5.37,1.49-.55,2.43-1.51,2.43-2.58C90.91,.81,88.58,0,85.3,0h-6.85V10.79c1.29-.15,2.57-.28,3.86-.36V6.14Zm0-4.48c.94-.02,1.88-.03,2.82-.04,1.16,0,1.9,.37,1.9,1.02s-.69,1.11-1.81,1.12c-.97,0-1.94,.03-2.91,.07V1.66Z"/>
      <path class="cls-1" d="M103.26,0h-4.16c-2.03,3.14-4.05,6.34-6.08,10.74,1.28,.17,2.56,.39,3.84,.68,.46-1.04,.92-2.03,1.38-2.98,1.9,.41,3.79,.95,5.69,1.6,.46,1.32,.92,2.7,1.38,4.14,1.34,.59,2.67,1.25,4.01,2C107.3,9.63,105.28,3.86,103.26,0Zm-3.75,5.91c.53-1.04,1.06-2.04,1.6-3.05,.52,1.14,1.05,2.39,1.57,3.76-1.06-.27-2.11-.5-3.17-.71Z"/>
      <path class="cls-1" d="M15.08,24.38v18.96c1.94,.01,3.88,.02,5.82,.02v-4.96c2.5,.07,5,.02,7.51-.14v-3.88c-2.5,.21-5,.28-7.51,.18v-4.36c3.38,.14,6.75-.05,10.13-.49v-5.22c-5.32,.68-10.63,.78-15.95-.11Z"/>
      <path class="cls-1" d="M40.41,36.06c2.48-.43,4.96-.91,7.44-1.42v-4.79c-2.48,.65-4.96,1.26-7.44,1.8v-3.7c3.7-.87,7.4-1.91,11.1-3v-5.18c-5.64,1.64-11.28,3.19-16.92,4.17v19.37c5.75-.04,11.5-.1,17.25-.17v-4.83c-3.81,.51-7.61,1-11.42,1.4v-3.66Z"/>
      <path class="cls-1" d="M65.06,25.82c-2.75,.1-5.08,.47-5.08-1.5,0-1.62,1.46-2.93,3.66-3.53,2.33-.63,3.59,.3,4.11,2.26,1.9-1.05,3.8-2.07,5.69-3.02-1.39-4.24-4.76-5.45-9.71-4.17-5.34,1.41-9.67,5.78-9.67,10.48,0,5.29,4.89,5.31,8.83,5.36,2.56,.04,4.69-.11,4.69,2.38,0,1.99-1.49,3.21-3.69,3.44-2.46,.26-4.21-.75-4.69-3.36-1.97,.99-3.95,1.94-5.92,2.82,1.23,4.08,4.92,6.47,10.38,6.58,5.86,.18,9.84-4.4,9.84-10.8s-4.63-7.02-8.44-6.92Z"/>
      <path class="cls-1" d="M74.95,13.72v5.31c2.26-.39,4.53-.69,6.79-.87v24.72c1.94,0,3.88,0,5.82,0V18c2.27,.06,4.53,.27,6.79,.66v-5.31c-6.47-1.11-12.94-.74-19.41,.37Z"/>
    </g>
  </g>
</svg>