<?xml version="1.0" encoding="UTF-8"?>
<svg id="Layer_2" data-name="Layer 2" xmlns="http://www.w3.org/2000/svg" viewBox="0 0 279.38 74.85">
  <defs>
    <style>
      .cls-1 {
        fill: #24272a;
      }
    </style>
  </defs>
  <g id="Layer_1-2" data-name="Layer 1">
    <path class="cls-1" d="M195.34,20.11h-1.1c-3.07,0-5.55-2.48-5.56-5.55v-3.74c0-3.07,2.49-5.56,5.56-5.56h1.17c2.47,.01,4.65,1.64,5.36,4,.21,.67-.16,1.39-.83,1.61-.12,.04-.25,.06-.38,.06h-.14c-.58,.01-1.11-.35-1.3-.9-.37-1.19-1.47-1.99-2.71-2h-1.17c-1.55,0-2.8,1.25-2.8,2.8v3.77c0,1.54,1.25,2.79,2.79,2.79h1.15c.43,0,.85-.09,1.24-.28,.7-.34,1.24-.95,1.49-1.69,.16-.53,.65-.9,1.21-.9h.2c.71,0,1.29,.56,1.3,1.26,0,.13-.02,.27-.06,.4-.71,2.4-2.93,4.04-5.43,4v-.07Zm45.29-9.26c-.02-3.1-2.55-5.61-5.65-5.59h-1.1c-3.1,0-5.62,2.52-5.62,5.62v3.63c0,3.1,2.52,5.6,5.62,5.6h1c1.25,.03,2.48-.35,3.5-1.08,1.42-1.06,2.25-2.73,2.25-4.5v-3.68m-2.83,3.65c0,1-.53,1.93-1.39,2.45-.46,.27-.99,.41-1.53,.4h-1c-1.58,0-2.86-1.28-2.86-2.86v-3.64c0-1.58,1.28-2.86,2.86-2.86l1.06,.03c1.58,0,2.86,1.28,2.86,2.86v3.62Zm-66.17-7.85v4.24h-5.83V6.65c0-.76-.62-1.38-1.38-1.38s-1.38,.62-1.38,1.38v12.11c.02,.75,.63,1.35,1.38,1.35s1.38-.62,1.38-1.38v-5.1h5.83v5.1c0,.74,.59,1.35,1.33,1.38,.76,0,1.38-.62,1.38-1.38V6.65c0-.76-.62-1.38-1.38-1.38-.74,.03-1.33,.64-1.33,1.38m52.68,4.28c.38-.6,.59-1.29,.58-2,0-2.04-1.65-3.69-3.69-3.69h-3.8c-1.07,0-1.93,.86-1.93,1.93h0v12.94h5.9c2.75-.1,4.93-2.36,4.94-5.11,0-1.59-.74-3.1-2-4.07m-6.11-2.9h3.1v-.03c.52,.05,.89,.51,.84,1.02-.05,.44-.39,.78-.83,.83h-3.11v-1.82Zm5.3,7.35c-.2,1.17-1.22,2.02-2.41,2h-2.89v-.05s0-4.69,0-4.69h3.07c1.3,.06,2.31,1.16,2.25,2.47,0,.09-.01,.18-.03,.27m-37.24-10.12h-8.81c-.76,0-1.38,.62-1.38,1.38s.62,1.38,1.38,1.38h3v10.74c.02,.76,.65,1.37,1.41,1.35h0c.76,0,1.37-.61,1.37-1.37h0V8.02h3c.76,.01,1.39-.6,1.4-1.36v-.02c0-.76-.61-1.38-1.37-1.38m25.58,0h-8.82c-.76,0-1.38,.61-1.39,1.37h0c0,.77,.62,1.39,1.38,1.39h3v10.74c.02,.76,.65,1.37,1.41,1.35h.01c.76,0,1.38-.62,1.38-1.38V8.02h3c.76,0,1.38-.62,1.38-1.38s-.6-1.36-1.35-1.38m-53.4,8.38c1.03,0,1.86-.83,1.87-1.86v-.9c0-3.1-2.52-5.62-5.62-5.62h-1.06c-3.1,0-5.62,2.52-5.62,5.62v3.64c.02,3.09,2.53,5.59,5.62,5.59h1c1.27,.02,2.51-.39,3.53-1.16,.9-.69,1.57-1.63,1.92-2.71,.23-.7-.16-1.45-.86-1.67-.13-.04-.27-.07-.41-.07h-.08c-.59,0-1.11,.39-1.29,.95-.4,1.2-1.55,1.99-2.81,1.93h-1c-1.58,0-2.86-1.28-2.86-2.86v-.88h7.67Zm-7.71-2.76c0-1.58,1.28-2.86,2.86-2.86,.01,0,.03,0,.04,0h1.1c1.58,0,2.86,1.28,2.86,2.86h-6.86ZM133.11,0h-6.87c-3.1,0-5.61,2.51-5.62,5.61v13.15c.02,.75,.63,1.35,1.38,1.35s1.38-.62,1.38-1.38V10.31h8.4v8.45c.01,.75,.62,1.35,1.37,1.35s1.38-.62,1.38-1.38V1.44c0-.79-.63-1.43-1.42-1.44m-1.33,7.55h-8.4v-1.94c0-1.58,1.28-2.85,2.86-2.86h5.54V7.55Zm11.52-2.29c-3.1,0-5.61,2.51-5.62,5.61v7.89c.02,.75,.63,1.35,1.38,1.35s1.38-.62,1.38-1.38v-7.86c0-1.58,1.28-2.86,2.86-2.86h2.09c.76,0,1.38-.62,1.38-1.38s-.61-1.37-1.37-1.37h-2.1Zm58.02,23.58h-8.82c-.76,0-1.38,.62-1.38,1.38s.61,1.37,1.37,1.37h3.01v10.75c0,.76,.62,1.38,1.38,1.38s1.38-.62,1.38-1.38v-10.74h3c.76,0,1.37-.61,1.37-1.37,.01-.74-.57-1.36-1.31-1.39m29.62,0s-.03,0-.05,0h-6.69c-2.13,.02-3.83,1.76-3.81,3.89,.02,1.83,1.32,3.39,3.12,3.74l-3,5.27c-.37,.63-.16,1.45,.48,1.82,.21,.12,.44,.18,.68,.18h.09c.48,0,.92-.25,1.16-.67l3.7-6.54h3.47v5.8c0,.76,.62,1.38,1.38,1.38s1.38-.62,1.38-1.38v-11.56c0-1.06-.85-1.92-1.91-1.93m-.88,4.93h-5.86c-.6,0-1.09-.49-1.09-1.09s.49-1.09,1.09-1.09h5.86v2.18Zm-72.31,.75c.47-.72,.67-1.57,.57-2.42-.24-1.9-1.87-3.31-3.78-3.29h-3.58c-.75,.02-1.34,.62-1.34,1.37s.61,1.37,1.37,1.37h3.63c.47-.01,.89,.31,1,.77,.08,.55-.3,1.05-.85,1.13-.05,0-.1,0-.15,0h-1.36c-.76,0-1.38,.62-1.38,1.38s.62,1.38,1.38,1.38h1.27c1.19-.03,2.23,.82,2.43,2,.2,1.29-.69,2.5-1.98,2.7-.12,.02-.24,.03-.36,.03h-2.14c-.98,0-1.86-.6-2.21-1.52-.21-.52-.72-.86-1.28-.85-.76,0-1.37,.61-1.37,1.36,0,.17,.03,.34,.09,.51,.77,1.96,2.66,3.26,4.77,3.26h2.14c2.83,0,5.12-2.29,5.12-5.12,0-1.6-.74-3.1-2.01-4.07h.02Zm13.75-.02c.38-.6,.59-1.29,.58-2,0-2.04-1.65-3.69-3.69-3.69h-3.83c-1.07,0-1.93,.85-1.94,1.92v12.98h5.9c2.78-.09,4.98-2.36,4.98-5.14,0-1.59-.74-3.1-2-4.07m-6.11-2.91l3.11-.02c.47,.06,.82,.46,.81,.93,.02,.49-.36,.9-.85,.93h-3.07v-1.84Zm2.97,9.35l-2.96-.02v-4.71h3.06c1.27,.04,2.28,1.09,2.26,2.36,0,1.31-1.05,2.36-2.36,2.37m-40.2-17.37c-.08,0-.16,0-.25,0h-5.36c-1.07,0-1.93,.87-1.93,1.94v16.83c0,.76,.62,1.38,1.38,1.38s1.38-.62,1.38-1.38v-8.46h4.38c2.78,.03,5.1-2.11,5.29-4.89,.14-2.85-2.05-5.27-4.89-5.41m-.25,7.56h0s-4.53-.01-4.53-.01v-4.79h4.53c1.33,0,2.4,1.07,2.4,2.4s-1.07,2.4-2.4,2.4m12.32-2.31h-1c-1.43-.02-2.82,.5-3.9,1.45-.23,.21-.45,.44-.64,.69-.46,.58-.38,1.42,.2,1.88,.11,.09,.24,.16,.38,.22,.57,.21,1.22,.03,1.61-.43,.09-.11,.19-.22,.3-.31,.55-.49,1.26-.75,2-.74h1c1.58,0,2.86,1.27,2.86,2.85v.45h-3.37c-4.15,0-6.16,1.12-6.16,4.75s3.52,4.07,6.16,4.07c1.18,.03,2.35-.21,3.42-.7,0,.39,.3,.7,.69,.71h2.01v-9.28c0-3.08-2.48-5.58-5.56-5.61m2.86,9.28c0,2-1,2.86-3.42,2.86-2.14,0-3.41,0-3.41-1.65s1.32-1.66,3.41-1.66h3.42v.45Zm44.31,5.61c.76,0,1.38-.62,1.38-1.38v-12.34h0c0-.65-.52-1.16-1.16-1.15-.79,0-1.53,.37-2,1l-6.62,8.8v-8.43c0-.76-.62-1.38-1.38-1.38-.74,.04-1.31,.64-1.31,1.38v12.32h0c0,.65,.53,1.16,1.16,1.15,.79,0,1.53-.37,2-1l6.54-8.79v8.44c0,.76,.62,1.38,1.38,1.38h0m28.76,0c.76,0,1.38-.62,1.38-1.38v-12.34c0-.64-.52-1.15-1.15-1.15-.79,0-1.53,.37-2,1l-6.55,8.8v-8.43h0c0-.77-.61-1.38-1.37-1.38s-1.38,.62-1.38,1.38v12.34c0,.63,.52,1.14,1.15,1.13,.78,0,1.52-.38,2-1l6.53-8.79v8.44c0,.76,.62,1.38,1.38,1.38h.01m31.75,22.8c1.19-.72,2.07-1.84,2.49-3.16,.04-.13,.06-.26,.06-.4,0-.71-.6-1.28-1.31-1.27h-.19c-.56,0-1.04,.37-1.21,.9-.25,.74-.78,1.35-1.49,1.69-.39,.18-.82,.28-1.25,.27h-1.14c-1.55,0-2.8-1.25-2.8-2.8v-3.76c0-1.55,1.25-2.8,2.8-2.8h1.17c1.24,0,2.34,.82,2.71,2,.19,.55,.72,.91,1.3,.9h.14c.12,0,.25-.02,.37-.06,.68-.21,1.05-.93,.84-1.6-.72-2.36-2.89-3.99-5.36-4h-1.17c-3.07,0-5.56,2.49-5.56,5.56v3.76c0,3.07,2.49,5.56,5.56,5.56h1.1c1.03,.01,2.05-.26,2.94-.79m-84.06-12.7v4.29h-5.79v-4.29c0-.76-.62-1.38-1.38-1.38s-1.38,.62-1.38,1.38v12.11c0,.76,.62,1.38,1.38,1.38s1.38-.62,1.38-1.38v-5.11h5.79v5.11c0,.76,.6,1.37,1.36,1.38h0c.76,.01,1.39-.6,1.4-1.36v-12.13c0-.76-.6-1.38-1.36-1.38h-.02c-.76-.01-1.38,.59-1.39,1.35v.03m109.91-1.4h-1.01c-1.44-.02-2.83,.5-3.9,1.46-.23,.21-.45,.43-.64,.68-.46,.57-.38,1.42,.2,1.88,.11,.09,.24,.17,.38,.22,.57,.21,1.22,.04,1.61-.43,.09-.11,.19-.21,.3-.31,.55-.49,1.26-.75,2-.74h1c1.58-.03,2.89,1.22,2.92,2.8,0,.02,0,.04,0,.06v.44h-3.41c-4.15,0-6.17,1.12-6.17,4.76s3.52,4.06,6.17,4.06c1.18,.03,2.34-.21,3.41-.7,0,.39,.32,.71,.71,.71h2.05v-9.27c0-3.1-2.52-5.62-5.62-5.62m2.84,9.26c0,2-1,2.86-3.41,2.86-2.14,0-3.41,0-3.41-1.65s1.31-1.66,3.41-1.66h3.43l-.02,.45Zm-140.57,5.63c.76,0,1.38-.62,1.38-1.38v-17c0-1-.81-1.8-1.81-1.8-.6,0-1.18,.25-1.59,.69l-5,5.29-5-5.3c-.41-.43-.98-.68-1.58-.69-1,0-1.81,.81-1.81,1.81v17c0,.76,.62,1.38,1.38,1.38s1.38-.62,1.38-1.38v-14.72l3.86,4.18s.06,.06,.09,.09c.93,.89,2.41,.85,3.29-.09l3.94-4.18v14.72c0,.76,.62,1.38,1.38,1.38,.03,0,.06,0,.09,0m10.82-14.88h-1.11c-3.1,0-5.62,2.52-5.62,5.62v3.65c0,3.1,2.52,5.61,5.62,5.61h1.11c3.1,0,5.61-2.51,5.61-5.61v-3.65c0-3.1-2.51-5.61-5.61-5.62m2.85,9.27c0,1.57-1.28,2.85-2.85,2.85h-1.11c-1.58,0-2.85-1.27-2.86-2.85v-3.65c0-1.58,1.28-2.86,2.86-2.86h1.11c1.58,0,2.85,1.28,2.85,2.86v3.65Zm27.02-7.88v3.16h-3.29c-.62,0-1.12-.5-1.13-1.12v-2c0-.76-.62-1.38-1.38-1.38s-1.37,.61-1.37,1.37h0v2.01c0,2.14,1.74,3.88,3.88,3.88h3.29v6.19c0,.76,.62,1.38,1.38,1.38s1.38-.62,1.38-1.38v-12.11c0-.76-.62-1.38-1.38-1.38s-1.38,.62-1.38,1.38m37.9-1.39h-1.07c-3.1,0-5.61,2.52-5.61,5.62v3.65c0,3.1,2.51,5.6,5.61,5.61h1.07c3.1,0,5.61-2.51,5.62-5.61v-3.65c0-3.1-2.52-5.62-5.62-5.62m2.86,9.27c0,1.58-1.28,2.85-2.86,2.85h-1.07c-1.57,0-2.85-1.28-2.85-2.85v-3.65c0-1.58,1.27-2.85,2.85-2.86h1.07c1.58,0,2.86,1.28,2.86,2.86v3.65Zm-13.99-9.28c-3.1,0-5.61,2.52-5.61,5.62v7.94c0,.73,.6,1.32,1.33,1.33h.09c.73-.01,1.32-.6,1.32-1.33v-7.94c0-1.58,1.27-2.85,2.85-2.86h2.15c.74,0,1.33-.6,1.33-1.33v-.09c0-.73-.58-1.33-1.32-1.34h-2.14Zm26.31,.01h-1.11c-1,0-1.99,.27-2.85,.79,0-.44-.35-.79-.79-.79h-2v21.05c0,.76,.61,1.37,1.37,1.37h.01c.76,0,1.37-.6,1.38-1.36h0v-7.01c.86,.51,1.85,.78,2.85,.78h1.11c3.1,0,5.61-2.51,5.61-5.61v-3.6c0-3.09-2.49-5.6-5.58-5.62m0,12.12h-1.11c-1.57,0-2.85-1.28-2.85-2.85v-3.59c-.01-.64,.18-1.27,.56-1.79,.54-.73,1.39-1.15,2.29-1.15h1.11c1.57,.02,2.83,1.31,2.82,2.88l.04,3.65c0,1.58-1.28,2.85-2.86,2.85m34.45-2.44c0-1.59-.74-3.09-2-4.06,.38-.6,.58-1.29,.58-2v-2.28c0-.76-.62-1.38-1.38-1.38s-1.38,.62-1.38,1.38v2.34c0,.48-.37,.87-.85,.89h-3.06v-3.17c0-.79-.63-1.42-1.42-1.43-.74,0-1.34,.59-1.34,1.33v12.17c0,.76,.62,1.38,1.38,1.38s1.38-.62,1.38-1.38v-6.12h3.07c1.28,.03,2.29,1.08,2.28,2.36v3.76c0,.76,.62,1.38,1.38,1.38s1.38-.62,1.38-1.38v-3.79h-.02Zm-71.27-1.3c1.03,0,1.87-.84,1.87-1.87v-.89c0-3.1-2.52-5.62-5.62-5.62h-1.1c-3.1,0-5.62,2.52-5.62,5.62v3.64c0,3.1,2.52,5.62,5.62,5.62h1c1.26,0,2.49-.43,3.49-1.2,.89-.68,1.56-1.62,1.91-2.69,.23-.71-.15-1.47-.86-1.7-.14-.05-.28-.07-.43-.07h-.02c-.6,.02-1.12,.42-1.29,1-.41,1.16-1.52,1.92-2.75,1.9h-1c-1.58,0-2.86-1.28-2.86-2.86v-.88h7.66Zm-7.71-2.76c0-1.58,1.28-2.86,2.86-2.86h1.1c1.58,0,2.86,1.28,2.86,2.86h-6.82ZM6.12,28.94h0c-.97,0-1.75,.78-1.75,1.75v2.68H1.75c-.96,0-1.75,.78-1.75,1.75s.78,1.75,1.75,1.75h2.62v2.62c0,.97,.78,1.75,1.75,1.75h0c.96,0,1.75-.78,1.75-1.75v-2.62h2.68c.96,0,1.75-.78,1.75-1.75s-.78-1.75-1.75-1.75h-2.68v-2.68c0-.97-.78-1.75-1.75-1.75m29.74,13.92c2.53-.92,4.65-2.53,5.98-4.55,1.43-2.17,1.8-4.64,1.02-6.8-1.56-4.29-7.23-6.18-12.65-4.21-2.53,.92-4.65,2.53-5.98,4.55-1.43,2.17-1.8,4.64-1.02,6.79,1.14,3.14,4.48,4.99,8.31,4.99,1.41,0,2.88-.25,4.34-.78m3.31-10c.48,1.33-.17,2.63-.61,3.29-.86,1.3-2.33,2.4-4.04,3.02-3.32,1.2-6.81,.35-7.61-1.86-.48-1.33,.17-2.63,.61-3.29,.86-1.3,2.33-2.4,4.04-3.02,1.03-.37,2.07-.55,3.05-.55,2.18,0,4.01,.88,4.57,2.41m21.77,.95c-.52-1.44-2.52-2.04-4.46-1.34-1.94,.7-3.09,2.44-2.56,3.88,.52,1.44,2.52,2.04,4.46,1.33,1.94-.7,3.09-2.44,2.56-3.88m29.3,9.05c2.53-.92,4.65-2.53,5.98-4.55,1.43-2.17,1.8-4.64,1.02-6.8-.78-2.15-2.65-3.81-5.14-4.56-2.32-.69-4.98-.57-7.51,.34-2.53,.92-4.65,2.53-5.98,4.55-1.43,2.17-1.8,4.64-1.02,6.79,.78,2.15,2.65,3.81,5.14,4.56,.99,.3,2.04,.44,3.12,.44,1.45,0,2.94-.26,4.38-.79m.73-12.14c.76,.23,2.09,.8,2.58,2.13,.48,1.33-.17,2.63-.61,3.29-.86,1.3-2.33,2.4-4.04,3.02-1.71,.62-3.55,.72-5.04,.27-.75-.23-2.09-.8-2.57-2.13-.48-1.33,.17-2.63,.61-3.29,.86-1.3,2.33-2.4,4.04-3.02,1.01-.37,2.06-.55,3.05-.55,.7,0,1.37,.09,1.99,.28m1.14,17.12c8.38-3.04,13.11-11.25,10.55-18.3-1.26-3.49-4.07-6.15-7.91-7.5-3.7-1.3-7.93-1.22-11.92,.22-3.99,1.45-7.29,4.1-9.29,7.47-2.08,3.5-2.52,7.34-1.26,10.83,1.26,3.49,4.07,6.15,7.91,7.5,1.75,.61,3.61,.92,5.51,.92,2.13,0,4.3-.38,6.4-1.15m1.33-22.1c2.71,.95,4.67,2.78,5.52,5.14,1.82,5.02-1.86,10.97-8.19,13.27-3.14,1.14-6.43,1.22-9.27,.21-2.7-.95-4.67-2.78-5.52-5.14-.86-2.36-.52-5.02,.94-7.48,1.54-2.59,4.11-4.65,7.25-5.78,1.67-.61,3.39-.91,5.06-.91,1.46,0,2.88,.23,4.21,.7m-1.87,7.83c-.52-1.44-2.81-1.93-5.1-1.1-2.29,.83-3.73,2.68-3.21,4.12,.52,1.44,2.81,1.93,5.1,1.1,2.29-.83,3.73-2.68,3.21-4.12"/>
  </g>
</svg>