<svg width="340" height="436" viewBox="0 0 340 436" fill="none" xmlns="http://www.w3.org/2000/svg">
<g clip-path="url(#clip0_57_1492)">
<path d="M92.5333 408.814L102.358 425.681L89.5254 435.523L72.894 425.489L85.3181 409.623L79.7012 385.525L75.6979 367.658L76.2512 361.526L76.2976 361.034L84.9224 345.372L105.161 348.782L105.616 357.323L106.16 367.454L96.3449 390.743L92.5333 408.814Z" fill="#75353A"/>
<path d="M216.398 415.247L197.553 418.053L182.727 417.056L169.895 417.452L169.1 411.429L171.505 401.791L164.482 386.73L147.851 368.659L148.37 364.887L150.463 349.588L175.512 348.383L176.161 357.516L177.713 379.297L182.124 399.778L198.36 410.428L216.398 415.247Z" fill="#75353A"/>
<path d="M176.162 357.514L148.371 364.888L150.463 349.586L175.512 348.381L176.162 357.514Z" fill="#54262A"/>
<path d="M105.617 357.322L76.2495 361.528L76.299 361.032L84.9207 345.371L105.16 348.781L105.617 357.322Z" fill="#54262A"/>
<path d="M210.386 131.319L197.758 234.929L191.146 203.002L138.834 345.769L135.826 325.288L123.801 357.816L70.8897 269.266L70.2869 306.012L24.5908 183.727L53.4515 127.705L167.095 96.3814L210.386 131.319Z" fill="#BDA996"/>
<path d="M180.922 263.639L180.273 270.951L174.706 334.322L155.465 333.517L147.443 307.926L135.622 270.266L121.516 300.673L106.362 333.321L89.323 329.707L90.8037 271.855L91.1283 259.024L180.922 263.639Z" fill="#473C39"/>
<path d="M180.924 263.639L180.275 270.952L150.462 282.519C150.462 282.519 148.456 299.01 147.445 307.927L135.624 270.267L121.518 300.674L126.411 275.29L96.7439 268.062L90.8054 271.856L91.13 259.025L180.924 263.639Z" fill="#2B2523"/>
<path d="M106.364 333.319L110.574 354.604L75.6975 347.776L89.3272 329.704L106.364 333.319Z" fill="#8B4F54"/>
<path d="M155.47 333.52L146.051 352.394L180.924 352.998L174.71 334.323L155.47 333.52Z" fill="#8B4F54"/>
<path d="M174.514 158.824L176.919 204.207L173.312 212.04C173.312 212.04 142.838 216.255 142.238 216.255C141.635 216.255 100.149 215.05 100.149 215.05L94.1336 209.835L60.8708 149.186L65.2265 145.426L82.5194 130.511L144.643 110.439L153.11 108.885L201.764 99.9961L214.992 132.728L174.514 158.824Z" fill="#998468"/>
<path d="M119.593 212.039L142.741 182.821L163.836 127.558L175.812 123.489L201.764 99.9949L153.109 108.886L128.311 117.766L127.615 130.318L143.944 134.332L163.101 127.812L138.234 179.511L111.175 206.315L96.4452 196.377L83.5173 169.569L113.281 146.679L124.799 131.718L65.2259 145.428L60.8733 149.185L94.136 209.834L100.149 215.052C100.149 215.052 141.637 216.257 142.237 216.257C142.84 216.257 173.311 212.039 173.311 212.039L176.919 204.206L143.344 213.544L119.593 212.039Z" fill="#7F6E54"/>
<path d="M168.295 110.029L166.889 119.271L140.637 182.726L122.383 206.003L114.985 215.449L100.147 215.049L113.158 199.496L131.221 177.907L158.072 110.029H168.295Z" fill="#473C39"/>
<path d="M187.14 266.458L150.86 276.096L126.698 271.361L115.118 269.085L107.083 267.517L87.3267 263.64L99.7507 224.484L137.629 230.316L174.103 228.303L187.14 266.458Z" fill="#85785C"/>
<path d="M81.9162 148.186L80.522 149.691L52.5362 179.738L46.032 186.738L23.388 199.593L14.5715 194.57L27.5118 157.173L28.4021 154.606L69.928 149.62L81.9162 148.186Z" fill="#998468"/>
<path d="M52.537 179.739L60.3643 165.353L56.4568 159.029L27.5127 157.174L28.403 154.606L69.9258 149.62L80.5198 149.691H81.4101L52.4536 179.906L52.537 179.739Z" fill="#7F6E54"/>
<path d="M108.769 130.315C109.372 130.516 134.625 161.239 134.625 161.239L140.035 123.288L108.769 130.315Z" fill="#E28B6B"/>
<path d="M201.764 99.9949L177.522 117.862L143.644 131.522L127.615 130.318L123.983 88.4647L122.598 72.4903L141.634 63.2488L140.843 72.0815L170.702 66.0578L159.481 80.5146L198.756 86.9471L183.327 93.1628L201.764 99.9949Z" fill="#F4D8C2"/>
<path d="M124.799 131.716L112.774 144.172L70.6825 153.81L24.9864 157.016L35.0147 137.944L21.7869 138.945L44.4309 111.236L26.597 106.221L55.4608 93.5733L43.8312 87.1408L62.4688 84.1274L56.8549 79.1164L73.8944 83.5266L90.9462 99.6682L124.799 131.716Z" fill="#F4D8C2"/>
<path d="M90.9466 99.6692L124.8 131.717L112.774 144.173L70.6829 153.811L24.9868 157.017L74.6985 143.969L57.4551 142.368L89.5276 128.704L66.2808 130.717L71.8854 120.679L60.2682 125.498L69.2887 107.018L90.9466 99.6692Z" fill="#CFAA8D"/>
<path d="M201.764 99.9949L177.522 117.862L143.644 131.522L127.616 130.318L123.983 88.4647L133.217 85.3336L164.894 90.9578L153.264 98.9945L172.505 100.596L162.885 111.838L201.764 99.9949Z" fill="#CFAA8D"/>
<path d="M139.233 154.288H123.001C122.79 154.288 122.608 154.142 122.559 153.938C122.512 153.733 122.614 153.526 122.803 153.43L138.538 145.696C130.509 145.988 120.017 146.421 119.328 146.588C119.096 146.684 118.852 146.567 118.756 146.334C118.66 146.105 118.79 145.836 119.019 145.737C119.628 145.486 134.327 144.941 140.621 144.718H140.637C140.844 144.718 141.023 144.854 141.073 145.055C141.125 145.266 141.026 145.48 140.835 145.573L124.942 153.386H139.233C139.481 153.386 139.681 153.588 139.681 153.839C139.681 154.086 139.481 154.288 139.233 154.288Z" fill="#2B2523"/>
<path d="M127.611 160.485C127.484 160.485 127.361 160.435 127.271 160.33C127.107 160.141 127.126 159.856 127.314 159.695L137.822 150.574H122.198C122.003 150.574 121.83 150.447 121.771 150.262C121.71 150.076 121.778 149.871 121.935 149.757L140.372 136.375C140.567 136.223 140.854 136.269 141.003 136.474C141.148 136.675 141.102 136.96 140.901 137.106L123.589 149.673H139.033C139.222 149.673 139.389 149.788 139.454 149.964C139.519 150.141 139.469 150.339 139.327 150.463L127.908 160.373C127.821 160.451 127.716 160.485 127.611 160.485Z" fill="#2B2523"/>
<path d="M145.845 102.199L140.686 99.6219L139.833 99.1883L137.632 127.703L132.015 119.477L129.814 143.764L112.774 128.703L114.579 137.34L81.7124 115.451L82.1081 123.488L69.2884 107.018L62.8677 113.645L72.6919 73.8857L65.8755 79.1166L75.097 58.6329L111.572 43.7673L134.024 60.838L124.799 61.2375L145.845 102.199Z" fill="#AE684B"/>
<path d="M140.686 99.621L139.833 99.1874L137.632 127.705L132.015 119.476L129.814 143.763L112.774 128.705L114.579 137.343L81.7124 115.453L82.1081 123.487L69.2884 107.017L62.8677 113.644L72.6919 73.8879L77.2022 107.525L81.4126 95.1767L102.155 112.043L108.567 78.9112L140.686 99.621Z" fill="#975539"/>
<path d="M113.783 182.316L95.9367 132.919L92.7371 139.547L89.3243 107.223L83.9114 112.438L87.723 97.2817L108.565 78.9102L107.566 121.284L104.163 117.257L113.783 182.316Z" fill="#CB7957"/>
<path d="M168.297 167.462L134.422 104.007V111.236L108.566 78.9121L137.031 79.2125L150.559 93.0685L144.846 91.8638L159.072 120.078L153.663 116.86L168.297 167.462Z" fill="#CB7957"/>
<path d="M113.785 182.316L95.9383 132.919L92.7388 139.547L95.5426 108.428L98.5474 119.27L108.566 78.9102L107.568 121.284L104.164 117.257L113.785 182.316Z" fill="#AE684B"/>
<path d="M174.103 228.304C172.505 228.604 134.324 234.327 134.324 234.327L126.698 271.361L115.118 269.085L115.384 243.061L107.083 267.518L87.3267 263.64L99.7476 224.485L174.103 228.304Z" fill="#7F6E54"/>
<path d="M168.297 167.462L134.422 104.007V111.236L108.566 78.9121L130.716 96.0788L127.411 88.2496L159.072 120.078L153.663 116.86L168.297 167.462Z" fill="#AE684B"/>
<path d="M122.383 206.002L114.988 215.448L100.147 215.049L113.158 199.496L122.383 206.002Z" fill="#2B2523"/>
<path d="M174.105 228.302L166.215 228.736L137.63 230.315L131.355 229.349L99.7488 224.484L100.148 215.05L129.936 215.905L142.236 216.255L168.5 212.687L173.31 212.037L174.105 228.302Z" fill="#E9AC5A"/>
<path d="M129.933 215.905L131.352 229.349L99.7493 224.484L100.145 215.05L129.933 215.905Z" fill="#DA9C49"/>
<path d="M174.105 228.303L166.216 228.737L168.5 212.688L173.31 212.038L174.105 228.303Z" fill="#DA9C49"/>
<path d="M65.9286 219.267C65.9286 219.267 63.3721 223.334 64.7261 224.839C66.0801 226.344 70.8902 222.129 70.8902 222.129L65.9286 219.267Z" fill="#948C87"/>
<path d="M84.922 212.436L78.1026 220.677L73.9664 222.52L70.8874 223.882L23.386 199.592L36.2057 192.318L46.03 186.737L52.4538 179.908L84.922 212.436Z" fill="#473C39"/>
<path d="M73.9678 222.52L70.8889 223.882L23.3875 199.592L36.2072 192.314L73.9678 222.52Z" fill="#2B2523"/>
<path d="M101.758 229.303L97.7884 237.59L97.1392 238.941L80.7119 248.987L62.0742 243.159L63.4684 240.145L75.098 240.35L71.2833 230.916L70.8876 223.883L78.1028 220.677L84.9223 212.436L101.758 229.303Z" fill="#F4BBA4"/>
<path d="M97.789 237.592L97.1398 238.942L80.7125 248.989L62.0718 243.157L63.4691 240.147L75.0956 240.351L81.1082 245.17L97.789 237.592Z" fill="#E28B6B"/>
<path d="M77.353 215.05C77.353 216.713 76.0082 218.063 74.3451 218.063C72.6851 218.063 71.3403 216.713 71.3403 215.05C71.3403 213.387 72.6851 212.037 74.3451 212.037C76.0082 212.037 77.353 213.387 77.353 215.05Z" fill="#ABA39B"/>
<path d="M77.5022 206.918C77.5022 206.918 80.8099 203.756 82.6122 205.109C84.4175 206.465 82.1608 211.136 82.1608 211.136L77.5022 206.918Z" fill="#948C87"/>
<path d="M31.6544 202.249C31.6544 202.249 30.0006 207.369 31.0547 208.725C32.1058 210.081 38.1184 205.563 38.1184 205.563L31.6544 202.249Z" fill="#948C87"/>
<path d="M43.0793 198.033C43.0793 199.696 41.7346 201.046 40.0714 201.046C38.4114 201.046 37.0667 199.696 37.0667 198.033C37.0667 196.37 38.4114 195.02 40.0714 195.02C41.7346 195.02 43.0793 196.37 43.0793 198.033Z" fill="#ABA39B"/>
<path d="M53.9023 182.974C53.9023 182.974 57.8098 179.511 59.6151 180.412C61.4174 181.317 58.4126 187.34 58.4126 187.34L53.9023 182.974Z" fill="#948C87"/>
<path d="M54.051 189.599C54.051 191.262 52.7062 192.612 51.0431 192.612C49.3831 192.612 48.0383 191.262 48.0383 189.599C48.0383 187.936 49.3831 186.586 51.0431 186.586C52.7062 186.586 54.051 187.936 54.051 189.599Z" fill="#ABA39B"/>
<path d="M217.401 129.311C217.401 129.311 221.612 132.723 223.816 131.921C226.02 131.116 223.213 124.492 223.213 124.492L217.401 129.311Z" fill="#948C87"/>
<path d="M252.271 102.006L214.993 132.729L211.061 126.234L204.77 115.862L201.765 99.9931L245.863 87.3449L251.093 99.321L252.271 102.006Z" fill="#473C39"/>
<path d="M252.271 102.006L214.992 132.729L211.06 126.234L251.093 99.321L252.271 102.006Z" fill="#2B2523"/>
<path d="M294.364 64.0522L268.709 65.257L272.92 114.853L293.765 114.252L293.363 110.638L278.33 109.231L277.529 72.0828L293.765 71.2806L294.364 64.0522Z" fill="#473C39"/>
<path d="M339.865 122.488L290.151 124.089L290.321 118.694L290.716 106.018L291.873 69.5009L292.148 60.6837L292.364 54.0065H323.63L325.036 59.9249L327.033 68.3457L336.533 108.44L338.409 116.356L339.865 122.488Z" fill="#AE684B"/>
<path d="M299.336 123.793L301.139 123.735L300.322 54.0084H298.517L299.336 123.793Z" fill="#7A4C41"/>
<path d="M320.187 54.0071H317.872L326.367 122.922L328.184 122.863L320.187 54.0071Z" fill="#7A4C41"/>
<path d="M311.496 54.0088H310.024L316.046 123.255L319.521 123.143L311.496 54.0088Z" fill="#7A4C41"/>
<path d="M216.79 122.448C215.164 122.107 214.125 120.509 214.465 118.88C214.805 117.254 216.4 116.211 218.026 116.551C219.649 116.895 220.691 118.49 220.351 120.119C220.008 121.748 218.416 122.789 216.79 122.448Z" fill="#ABA39B"/>
<path d="M338.41 116.355L290.318 118.693L290.717 106.017L336.534 108.439L338.41 116.355Z" fill="#BAB1AA"/>
<path d="M292.365 54.0078L288.554 52.004V46.9837L292.962 44.9769L297.571 45.779L298.975 40.5574L302.582 39.554L306.994 41.1614L311.201 37.1445L316.815 36.1411L321.625 40.3592L323.025 44.373L327.436 42.7687L332.648 46.1816L333.65 52.2053L331.446 56.6217L335.854 62.0445V69.8738L334.049 81.3203L334.652 89.7535L339.261 96.3811L340.065 99.9953L338.259 102.603L334.853 102.405L323.226 54.6148H313.006L313.807 62.0445L315.81 66.2596L315.009 71.0785L311.402 72.4846L308.397 69.0717L310.199 62.2458L309.399 54.4135L305.59 54.6148L304.388 58.229L301.581 58.4303L299.778 54.4135L292.365 54.0078Z" fill="#F4D8C2"/>
<path d="M329.841 112.444C329.841 113.775 328.765 114.853 327.436 114.853C326.106 114.853 325.031 113.775 325.031 112.444C325.031 111.112 326.106 110.034 327.436 110.034C328.765 110.034 329.841 111.112 329.841 112.444Z" fill="#7D7672"/>
<path d="M317.013 112.243C317.013 113.575 315.937 114.653 314.607 114.653C313.278 114.653 312.202 113.575 312.202 112.243C312.202 110.912 313.278 109.834 314.607 109.834C315.937 109.834 317.013 110.912 317.013 112.243Z" fill="#7D7672"/>
<path d="M302.582 112.243C302.582 113.575 301.506 114.653 300.177 114.653C298.848 114.653 297.772 113.575 297.772 112.243C297.772 110.912 298.848 109.834 300.177 109.834C301.506 109.834 302.582 110.912 302.582 112.243Z" fill="#7D7672"/>
<path d="M210.807 109.956C209.181 109.616 208.142 108.018 208.482 106.389C208.822 104.763 210.418 103.719 212.044 104.06C213.667 104.403 214.708 105.998 214.368 107.627C214.025 109.256 212.433 110.297 210.807 109.956Z" fill="#ABA39B"/>
<path d="M243.456 107.022C243.456 107.022 247.264 110.837 249.468 109.834C251.673 108.827 249.067 102.804 249.067 102.804L243.456 107.022Z" fill="#948C87"/>
<path d="M273.922 73.489L285.746 77.7072L285.348 91.7614L277.73 106.218L268.71 105.416L265.705 103.406L264.503 85.939L266.707 76.7006L273.922 73.489Z" fill="#E28B6B"/>
<path d="M245.862 87.345L263.9 68.4718L278.933 72.4855L277.932 77.1031L266.707 76.7036L264.503 85.9389L265.705 103.409L252.277 102.003L245.862 87.345Z" fill="#F4BBA4"/>
<path d="M285.746 77.7055C284.642 78.3063 271.115 80.115 271.115 80.115L269.009 91.2581L268.709 105.415L277.73 106.22L285.344 91.7598L285.746 77.7055Z" fill="#F4BBA4"/>
<path d="M245.611 96.781C245.611 98.4441 244.266 99.7944 242.603 99.7944C240.943 99.7944 239.598 98.4441 239.598 96.781C239.598 95.1179 240.943 93.7676 242.603 93.7676C244.266 93.7676 245.611 95.1179 245.611 96.781Z" fill="#ABA39B"/>
<path d="M205.975 99.7935C205.975 99.7935 205.175 94.1724 207.178 93.5685C209.181 92.9676 212.591 98.1861 212.591 98.1861L205.975 99.7935Z" fill="#948C87"/>
<path d="M97.7459 53.4093L86.7222 69.2723L90.1288 95.5752L108.569 78.9102L130.214 79.3128L116.986 58.6309L97.7459 53.4093Z" fill="#F4BBA4"/>
<path d="M237.644 91.9629C237.644 91.9629 236.642 85.9392 238.645 85.1371C240.652 84.3318 243.455 89.3521 243.455 89.3521L237.644 91.9629Z" fill="#948C87"/>
<path d="M327.034 68.3458L291.87 69.501L292.148 60.6838C301.552 60.467 318.112 60.0799 325.037 59.925L327.034 68.3458Z" fill="#BAB1AA"/>
<path d="M302.783 65.0554C302.783 66.3871 301.707 67.4648 300.378 67.4648C299.048 67.4648 297.973 66.3871 297.973 65.0554C297.973 63.7237 299.048 62.6459 300.378 62.6459C301.707 62.6459 302.783 63.7237 302.783 65.0554Z" fill="#7D7672"/>
<path d="M322.624 64.4538C322.624 65.7855 321.549 66.8633 320.219 66.8633C318.89 66.8633 317.814 65.7855 317.814 64.4538C317.814 63.1221 318.89 62.0443 320.219 62.0443C321.549 62.0443 322.624 63.1221 322.624 64.4538Z" fill="#7D7672"/>
<path d="M94.9399 28.7124L107.367 23.0913L95.3418 1.14441e-05L117.989 19.8766L119.191 25.699L113.779 33.934L102.356 37.7495L94.9399 28.7124Z" fill="#615B58"/>
<path d="M109.167 35.334L72.2969 54.6099L73.8951 27.3097L74.0651 27.1424L81.509 19.8768L103.72 32.299L109.167 35.334Z" fill="#473C39"/>
<path d="M109.167 35.334L72.2969 54.6099L73.8951 27.3097L74.0651 27.1424L82.6157 35.238L103.72 32.299L109.167 35.334Z" fill="#2B2523"/>
<path d="M73.6944 34.5351L79.1074 39.5553L72.8938 49.3945L57.8606 48.3911L53.4524 43.1695L58.4634 11.4437L62.6707 37.1458L73.6944 34.5351Z" fill="#7D7672"/>
<path d="M115.588 31.7199L114.781 44.3712L108.71 46.7806L104.091 48.611L96.0474 51.7916L85.4504 55.9726L71.0942 61.6463C71.0942 62.2502 67.8823 55.0187 67.8823 55.0187L78.8256 47.3938L89.3362 40.0694L93.5342 37.1427L108.264 33.5161L115.588 31.7199Z" fill="#BCB3AB"/>
<path d="M104.159 82.5245L109.97 83.3267L114.181 78.9103H108.564L104.159 82.5245Z" fill="#E28B6B"/>
<path d="M90.1294 77.5054L92.7354 73.089L102.356 69.4748V63.2498L90.93 69.8743L90.1294 77.5054Z" fill="#AE684B"/>
<path d="M92.0833 81.3198L96.7419 77.8574L104.711 76.2005L102.306 72.8867L95.2395 75.1444L92.0833 81.3198Z" fill="#2B2523"/>
<path d="M109.821 74.6938L115.083 72.4361L122.598 72.4888L116.585 68.9706L110.121 70.4757L109.821 74.6938Z" fill="#2B2523"/>
<path d="M107.166 62.2445L107.367 68.0669L115.383 65.6574L120.344 66.41L115.683 61.7428L107.166 62.2445Z" fill="#AE684B"/>
<path d="M78.8256 47.3943L85.4535 55.9731L71.0942 61.6468C71.0942 62.2507 67.8823 55.0192 67.8823 55.0192L78.8256 47.3943Z" fill="#ABA39B"/>
<path d="M104.092 48.6099L96.0451 51.7905L89.3369 40.0683L93.5319 37.1417L101.953 35.0697L104.092 48.6099Z" fill="#DDD3C9"/>
<path d="M53.4514 43.1695L58.5614 46.3811L79.1064 39.5553L72.8928 49.3945L57.8597 48.3911L53.4514 43.1695Z" fill="#615B58"/>
<path d="M115.588 31.719L114.781 44.3703L108.71 46.7798L108.265 33.5153L115.588 31.719Z" fill="#ABA39B"/>
</g>
<defs>
<clipPath id="clip0_57_1492">
<rect width="340" height="436" fill="white"/>
</clipPath>
</defs>
</svg>
