<?xml version="1.0" encoding="utf-8"?><svg viewBox="0 0 32 33" xmlns="http://www.w3.org/2000/svg" xmlns:xlink="http://www.w3.org/1999/xlink"><style>:root>svg{display:none}:root>svg:target{display:block}</style><svg viewBox="0 0 32 33" id="icon-tg" xmlns="http://www.w3.org/2000/svg"><path fill-rule="evenodd" clip-rule="evenodd" d="M32 16.52c0 8.835-7.164 16-16 16s-16-7.165-16-16c0-8.836 7.164-16 16-16s16 7.164 16 16Zm-15.427-4.188c-1.556.646-4.666 1.986-9.33 4.018-.758.301-1.155.596-1.191.884-.061.488.55.68 1.379.94.113.036.23.072.35.112.818.265 1.916.576 2.487.588.519.01 1.097-.202 1.736-.64 4.357-2.943 6.607-4.43 6.748-4.461.1-.023.239-.052.332.032.093.082.084.24.075.283-.062.257-2.454 2.482-3.694 3.634-.386.359-.66.613-.716.672-.125.13-.253.254-.376.372-.76.73-1.328 1.28.032 2.176.654.43 1.176.787 1.698 1.142.569.387 1.137.774 1.873 1.257.187.122.365.25.54.373.663.474 1.259.898 1.995.83.426-.04.869-.44 1.093-1.64.53-2.834 1.572-8.973 1.813-11.503.015-.21.006-.421-.026-.63a.675.675 0 0 0-.23-.433c-.19-.156-.486-.19-.62-.186-.601.01-1.524.332-5.968 2.18Z"/></svg><svg viewBox="0 0 32 33" id="icon-vk" xmlns="http://www.w3.org/2000/svg"><path d="M20.911.52h-9.823C2.124.52-.001 2.645-.001 11.608v9.823c0 8.964 2.125 11.09 11.089 11.09h9.823C29.875 32.52 32 30.394 32 21.43v-9.823C32 2.646 29.854.52 20.911.52Zm4.922 22.828H23.51c-.88 0-1.151-.698-2.734-2.302-1.375-1.334-1.984-1.51-2.323-1.51-.479 0-.615.134-.615.791v2.1c0 .563-.177.9-1.667.9-2.464 0-5.198-1.49-7.115-4.266-2.891-4.068-3.682-7.114-3.682-7.745 0-.339.135-.655.786-.655h2.328c.589 0 .813.27 1.042.9 1.151 3.323 3.068 6.235 3.859 6.235.292 0 .427-.136.427-.88v-3.433c-.089-1.583-.922-1.719-.922-2.28 0-.271.224-.542.583-.542h3.661c.495 0 .677.27.677.854v4.63c0 .5.224.677.359.677.292 0 .542-.177 1.083-.72 1.672-1.875 2.87-4.766 2.87-4.766.156-.338.427-.655 1.016-.655h2.328c.698 0 .854.359.698.859-.292 1.354-3.141 5.375-3.141 5.375-.245.405-.339.582 0 1.036.25.338 1.063 1.041 1.604 1.671.995 1.13 1.76 2.079 1.964 2.735.229.65-.109.99-.766.99h.003Z"/></svg></svg>