<?xml version="1.0" encoding="utf-8"?><svg viewBox="0 0 80 60" xmlns="http://www.w3.org/2000/svg" xmlns:xlink="http://www.w3.org/1999/xlink"><style>:root>svg{display:none}:root>svg:target{display:block}</style><svg fill="none" viewBox="0 0 80 33" id="icon-arrow" xmlns="http://www.w3.org/2000/svg"><path fill-rule="evenodd" clip-rule="evenodd" d="m15.966.645 3.473 3.343L9.192 14.257H80v4.776H9.192L19.44 29.302l-3.473 3.343L0 16.645l15.966-16Z" fill="currentColor"/></svg><svg fill="none" viewBox="0 0 18 31" id="icon-chernobog" xmlns="http://www.w3.org/2000/svg"><path fill-rule="evenodd" clip-rule="evenodd" d="M7.528 6.992 2.298.546 0 2.359l7.528 9.28v18.362h2.944V11.64L18 2.36 15.701.546l-5.229 6.446V.002H7.528v6.99Z" fill="#C43A2C"/></svg><svg viewBox="0 0 30 30" id="icon-close" xmlns="http://www.w3.org/2000/svg"><path fill-rule="evenodd" clip-rule="evenodd" d="M13.605 15 0 1.395 1.395 0 15 13.605 28.605 0 30 1.395 16.395 15 30 28.605 28.605 30 15 16.395 1.395 30 0 28.605 13.605 15Z"/></svg><svg viewBox="0 0 24 32" id="icon-odal" xmlns="http://www.w3.org/2000/svg"><path fill-rule="evenodd" clip-rule="evenodd" d="m12 0 12 11.647-9.97 9.676 8.938 8.675L20.971 32 12 23.294 3.03 32 1.03 29.998l8.939-8.675L0 11.647 12 0Zm0 19.352 7.94-7.705L12 3.94l-7.94 7.706L12 19.352Z"/></svg><svg viewBox="0 0 65 60" id="icon-ship" xmlns="http://www.w3.org/2000/svg"><path d="M28.628 1.479c.977 4.211 2.167 8.367 3.437 12.5-1.32 5.635-2.546 11.296-3.39 17.024l-4.476-1.012c1.66-5.377 2.964-10.852 4.174-16.346l.038.955c-1.28-3.953-2.62-7.886-4.165-11.743l4.376-1.372.006-.006Z"/><path d="M35.908 1.3c1.42 4.361 3.054 8.654 4.768 12.908-1.755 5.598-3.417 11.23-4.699 16.955l-4.388-1.34c2.057-5.267 3.768-10.658 5.383-16.073l.055 1.227C35.342 10.948 33.6 6.94 31.66 3.027l4.249-1.73v.002ZM18.515 58.489c2.207-3.959 4.066-8.164 5.748-12.372a64.965 64.965 0 0 0 1.543-4.287l3.454 1.511c-1.482 2.605-2.784 5.432-4.002 8.173-1.2 2.787-2.36 5.589-3.289 8.486l-3.454-1.511ZM29.71 58.489c2.207-3.959 4.066-8.164 5.748-12.372a64.908 64.908 0 0 0 1.543-4.287l3.454 1.511c-1.482 2.605-2.784 5.432-4.002 8.173-1.2 2.787-2.36 5.589-3.289 8.486l-3.454-1.511ZM8.12 24.687c2.338 3.32 5.041 6.424 7.825 9.374.937.98 1.897 1.943 2.915 2.856l-2.833 2.489c-1.523-2.21-3.318-4.342-5.079-6.372-1.806-2.03-3.642-4.028-5.66-5.859l2.833-2.488Z"/><path d="M44.35 36.195c.867-3.472 2.608-10.47 3.46-13.945l.142-.577.436-.353c.829-.673 6.273-5.122 6.995-5.708.533.64 6.296 7.09 6.998 7.912l1.937 2.19-2.868.472-5.713.94 1.299-1.372c-.542 4.452-1.047 8.906-1.572 13.361l-1.557 13.362-.157 1.34c-3.805-.012-7.622-.02-11.427-.006-9.501.014-22.042.043-31.534.098A5842.074 5842.074 0 0 0 4.84 27.065l1.958 1.415-6.395.777-.406-3.747c1.34-.122 6.877-.664 8.051-.771 1.447 7.166 4.092 20.07 5.586 27.233l-1.56-1.264c8.985.052 21.267.075 30.252.09 3.361.011 6.723.005 10.084 0l-1.5 1.336c.853-7.897 2.17-18.956 2.997-26.737l.124-1.166c.824-.153 5.955-1.05 6.877-1.218l-.928 2.663-6.027-6.645 2.303.171-5.67 4.78.577-.931c-.798 3.495-2.367 10.522-3.15 14.02l-3.669-.867.006-.01Z"/><path d="M20.951 29.817c7.057-.588 13.748-.884 20.859-.835l-1.52 1.224a3180.072 3180.072 0 0 0 4.18-16.285l.11 1.036-6.268-12.73 1.343.836c-5.105.011-15.377.034-20.479.063l1.497-2c1.331 4.469 2.694 8.93 4.046 13.393-.952 5.31-2.175 10.168-3.77 15.295l.002.003Zm-3.547 2.91c1.018-6.112 2.367-12.533 3.994-18.484l.026.841c-1.244-4.359-2.477-8.724-3.741-13.077L17.1 0l2.08.009c5.576.035 15.837.049 21.409.064L41 .905l6.29 12.717.244.493-.133.543a2841.566 2841.566 0 0 0-3.974 16.334l-.278 1.151c-8.443.548-17.254.731-25.743.583h-.003ZM18.02 40.65c.388.986.736 1.975 1.06 2.996l-.95-.972c.904.389 2.731 1.163 3.642 1.54l-1.227.03c1.317-.558 2.625-1.14 3.936-1.706l-.812.89 1.415-4.09.081 1.164-1.644-3.188.992.786c-1.244-.284-2.486-.58-3.73-.855l1.056-.11c-.8.409-2.407 1.244-3.202 1.667l.757-.716c-.43.9-.888 1.737-1.375 2.567v-.003Zm-3.762-.27a76.964 76.964 0 0 1 2.47-4.443c.285-.119 1.784-.772 2.1-.908.395-.174 1.83-.815 2.202-.977 1.397.383 2.807.736 4.205 1.102l.687.18 2.196 4.379-1.787 5.304-.606.285c-1.485.693-2.981 1.377-4.458 2.088l-.655-.244c-1.224-.464-3.141-1.157-4.365-1.606a116.336 116.336 0 0 1-1.99-5.16Z"/><path d="M29.411 39.45a46.842 46.842 0 0 1-.16 3.175l-.51-1.262c.69.702 2.086 2.112 2.785 2.805l-1.143-.438c1.43-.015 2.86-.052 4.29-.078l-1.094.516 2.862-3.246-.365 1.105-.307-3.573.617 1.105c-1.04-.736-2.076-1.482-3.123-2.21l1.018.3c-.896.075-2.7.234-3.594.327l.972-.377c-.74.67-1.485 1.27-2.248 1.85Zm-3.376-1.683a77.985 77.985 0 0 1 3.977-3.17c.307-.003 1.943-.038 2.288-.04l2.407-.07c1.146.884 2.315 1.749 3.472 2.619l.568.426.363 4.881c-.592.682-3.078 3.55-3.666 4.232l-.67.031c-1.636.076-3.28.137-4.916.232l-.514-.472c-.954-.894-2.468-2.262-3.43-3.141.002-1.836.031-3.69.121-5.53v.002Z"/><path d="M42.918 37.393a46.63 46.63 0 0 1-2.72 1.641l.76-1.128c-.198.966-.584 2.909-.77 3.878l-.275-1.192c.812 1.177 1.642 2.343 2.462 3.515l-1.038-.618 4.292.56-1.119.316 2.79-2.254-.571 1.129c.029-1.276.07-2.55.087-3.826l.319 1.012a302.706 302.706 0 0 0-2.28-2.798l.856.594a33.645 33.645 0 0 1-2.79-.83h-.003Zm-.493-3.739a78.02 78.02 0 0 1 4.849 1.526c.174.252 1.117 1.592 1.314 1.873l1.403 1.958c-.092 1.444-.156 2.897-.232 4.342l-.037.71c-.72.566-3.124 2.462-3.846 3.031-.896-.11-4.664-.566-5.557-.676l-.4-.54c-.977-1.313-1.946-2.641-2.938-3.946l.104-.688c.21-1.293.496-3.309.688-4.6a118.911 118.911 0 0 1 4.655-2.99h-.003Z"/></svg><svg viewBox="0 0 32 33" id="icon-tg" xmlns="http://www.w3.org/2000/svg"><path fill-rule="evenodd" clip-rule="evenodd" d="M32 16.52c0 8.835-7.164 16-16 16s-16-7.165-16-16c0-8.836 7.164-16 16-16s16 7.164 16 16Zm-15.427-4.188c-1.556.646-4.666 1.986-9.33 4.018-.758.301-1.155.596-1.191.884-.061.488.55.68 1.379.94.113.036.23.072.35.112.818.265 1.916.576 2.487.588.519.01 1.097-.202 1.736-.64 4.357-2.943 6.607-4.43 6.748-4.461.1-.023.239-.052.332.032.093.082.084.24.075.283-.062.257-2.454 2.482-3.694 3.634-.386.359-.66.613-.716.672-.125.13-.253.254-.376.372-.76.73-1.328 1.28.032 2.176.654.43 1.176.787 1.698 1.142.569.387 1.137.774 1.873 1.257.187.122.365.25.54.373.663.474 1.259.898 1.995.83.426-.04.869-.44 1.093-1.64.53-2.834 1.572-8.973 1.813-11.503.015-.21.006-.421-.026-.63a.675.675 0 0 0-.23-.433c-.19-.156-.486-.19-.62-.186-.601.01-1.524.332-5.968 2.18Z"/></svg><svg viewBox="0 0 12 32" id="icon-viking" xmlns="http://www.w3.org/2000/svg"><path fill-rule="evenodd" clip-rule="evenodd" d="m0 .931 12 11.853-2.41 2.38L3.409 9.06v4.217L12 21.762l-2.41 2.381-6.181-6.105v13.893H0v-31Z"/></svg><svg viewBox="0 0 32 33" id="icon-vk" xmlns="http://www.w3.org/2000/svg"><path d="M20.911.52h-9.823C2.124.52-.001 2.645-.001 11.608v9.823c0 8.964 2.125 11.09 11.089 11.09h9.823C29.875 32.52 32 30.394 32 21.43v-9.823C32 2.646 29.854.52 20.911.52Zm4.922 22.828H23.51c-.88 0-1.151-.698-2.734-2.302-1.375-1.334-1.984-1.51-2.323-1.51-.479 0-.615.134-.615.791v2.1c0 .563-.177.9-1.667.9-2.464 0-5.198-1.49-7.115-4.266-2.891-4.068-3.682-7.114-3.682-7.745 0-.339.135-.655.786-.655h2.328c.589 0 .813.27 1.042.9 1.151 3.323 3.068 6.235 3.859 6.235.292 0 .427-.136.427-.88v-3.433c-.089-1.583-.922-1.719-.922-2.28 0-.271.224-.542.583-.542h3.661c.495 0 .677.27.677.854v4.63c0 .5.224.677.359.677.292 0 .542-.177 1.083-.72 1.672-1.875 2.87-4.766 2.87-4.766.156-.338.427-.655 1.016-.655h2.328c.698 0 .854.359.698.859-.292 1.354-3.141 5.375-3.141 5.375-.245.405-.339.582 0 1.036.25.338 1.063 1.041 1.604 1.671.995 1.13 1.76 2.079 1.964 2.735.229.65-.109.99-.766.99h.003Z"/></svg></svg>