<svg width="515" height="473" viewBox="0 0 515 473" fill="none" xmlns="http://www.w3.org/2000/svg">
<path d="M135.508 322.553L103.816 392.731L107.693 418.281L117.721 423.455L130.983 426.688L149.737 415.372L169.14 367.83L185.959 412.783L206.983 425.395L217.98 423.455L228.003 416.989L237.383 389.822C237.383 389.822 206.335 317.055 205.362 316.73C204.394 316.406 171.405 323.845 171.405 323.845L135.508 322.553Z" fill="#473C39"/>
<path d="M258.725 468.41L242.561 472.621L222.498 467.112L210.077 433.714L206.972 425.392L217.979 423.452L228.007 416.986L228.571 419.182L238.679 458.068L258.725 468.41Z" fill="#F4BBA4"/>
<path d="M125.222 435.209L109.951 457.738L112.551 467.108L99.9383 470.989L72.4424 469.048L94.7593 456.765L106.771 421.044L107.702 418.289L117.714 423.447L130.986 426.691L125.222 435.209Z" fill="#F4BBA4"/>
<path d="M117.721 423.455L130.983 426.688L149.737 415.367L169.145 367.83L185.959 412.783L206.983 425.395L217.98 423.455L228.003 416.989L236.574 392.157L225.094 402.754L211.508 409.874L188.548 407.933L175.611 367.181L185.315 346.805L170.113 360.391L149.094 351.66L164.615 364.597L147.796 412.783L121.603 413.431L112.547 405.992L103.816 392.731L107.698 418.281L117.721 423.455Z" fill="#2B2523"/>
<path d="M130.984 426.691L125.22 435.209L106.769 421.044L107.699 418.289L117.712 423.452L130.984 426.691Z" fill="#E28B6B"/>
<path d="M228.571 419.18C223.663 422.865 215.027 429.756 210.077 433.712L206.972 425.391L217.979 423.45L228.007 416.989L228.571 419.18Z" fill="#E28B6B"/>
<path d="M205.365 316.725L192.114 319.501L171.409 323.845L155.632 323.287L135.511 322.548L134.538 307.994L146.608 306.537L195.119 300.64L203.754 299.593L205.365 316.725Z" fill="#CB5849"/>
<path d="M146.608 306.539L155.632 323.283L135.511 322.549L134.538 307.996L146.608 306.539Z" fill="#A63F32"/>
<path d="M205.365 316.724L192.114 319.5L195.119 300.639L203.754 299.591L205.365 316.724Z" fill="#A63F32"/>
<path d="M213.124 301.859L171.733 312.531L127.105 311.872L126.132 274.363L135.001 220.031L136.474 210.97L176.896 204.839L181.087 210.561L198.24 233.946L213.124 301.859Z" fill="#DDC6B0"/>
<path d="M213.124 301.859L198.24 233.946L181.087 210.561L176.902 204.85L187.249 275.012L156.201 268.541L182.4 291.182L153.942 286.008L135.996 213.916L135.001 220.031L126.132 274.363L127.105 311.872L171.733 312.531L213.124 301.859Z" fill="#C7AC92"/>
<path d="M149.422 299.591C149.422 299.591 115.773 305.084 115.773 304.111C115.773 303.143 116.433 252.692 116.433 252.692L120.958 236.198L115.773 218.731L121.809 216.46L136.479 210.973L143.136 256.494L149.422 299.591Z" fill="#7A4C41"/>
<path d="M143.915 320.614L127.421 356.511L136.152 359.101L144.883 324.82L144.24 370.097L155.236 369.124L147.473 321.257L143.915 320.614Z" fill="#A63F32"/>
<path d="M118.055 246.758L116.428 252.697C116.428 252.697 115.779 303.148 115.779 304.116C115.779 304.733 129.206 302.76 139.096 301.229L118.055 246.758Z" fill="#57342C"/>
<path d="M125.475 233.946L116.43 252.69L95.4004 260.145L55.9883 259.619L45.2791 259.48L42.3652 238.466L45.9172 223.275L56.2594 224.226L91.8484 227.465L115.771 218.734L125.475 233.946Z" fill="#DDC6B0"/>
<path d="M52.7075 239.108L55.9883 259.617L45.2738 259.484L42.3652 238.47L45.9172 223.273L56.2594 224.225L52.7075 239.108Z" fill="#998468"/>
<path d="M115.779 219.71L117.395 239.113L94.7595 256.905L42.373 238.539L45.2763 259.484L55.9854 259.617L95.3976 260.143L116.433 252.693L125.228 234.46L115.779 219.71Z" fill="#C7AC92"/>
<path d="M42.375 238.537L45.2783 259.482L55.9874 259.62L53.2224 242.339L42.375 238.537Z" fill="#6B5A3F"/>
<path d="M47.5382 225.529L26.5188 222.296L21.6641 237.818L48.187 246.873L47.5382 225.529Z" fill="#E28B6B"/>
<path d="M17.7865 204.833L0 263.372L6.14153 268.87L16.17 266.929L26.1932 208.066L17.7865 204.833Z" fill="#57342C"/>
<path d="M4.20215 220.355C5.1699 219.706 11.6411 210.975 11.6411 210.975L30.7197 217.447L28.7789 229.086L20.6965 245.581L5.81862 242.348L4.20215 220.355Z" fill="#F4BBA4"/>
<path d="M181.089 210.563L172.704 225.855L149.733 228.121L135.004 220.033L136.477 210.972L176.899 204.836L181.089 210.563Z" fill="#998468"/>
<path d="M286.531 112.669L275.551 123.984L259.944 142.744L259.694 143.057L249.602 161.626L247.72 165.061L235.437 156.329L238.292 150.874L245.779 136.597L245.396 135.002L239.318 109.76L242.562 112.977L248.693 123.649L264.544 94.877L266.814 95.5151L260.997 114.918L276.827 96.4881L280.4 100.364L271.977 119.773L284.92 110.728L286.531 112.669Z" fill="#F4BBA4"/>
<path d="M261.966 162.789L254.707 173.073L213.126 232.005L197.27 220.674L199.54 200.627L230.104 144.045L236.74 131.741L250.634 143.716L261.966 162.789Z" fill="#DDC6B0"/>
<path d="M213.126 232.005L254.707 173.073L261.966 162.789L260.126 159.689L207.952 215.181L204.395 212.591L199.54 200.627L197.27 220.674L213.126 232.005Z" fill="#C7AC92"/>
<path d="M232.53 278.885L198.904 292.471L188.694 251.857L176.9 204.836L190.055 202.395L199.542 200.624L201.153 217.762L213.127 232.002L232.53 278.885Z" fill="#7A4C41"/>
<path d="M348.875 -0.00012207L251.238 19.6315L191.721 88.5814L170.191 235.43L228.565 348.169L338.044 382.04L448.065 358.394L513.234 255.36L515 132.035L446.9 28.5114L348.875 -0.00012207Z" fill="#DDD3C9"/>
<path d="M349.489 14.5107L259.578 32.5897L204.773 96.084L184.944 231.309L238.697 335.13L339.514 366.322L440.831 344.547L500.842 249.665L502.469 136.097L439.762 40.7624L349.489 14.5107Z" fill="#BFB6AE"/>
<path d="M268.817 44.6984L262.989 56.354L205.2 244.37L210.097 255.143L219.057 255.27L225.161 286.159L232.42 284.904L265.951 332.446L277.367 328.878L313.791 348.377L326.76 338.029L360.557 349.047L370 324.582L409.386 340.757L421.084 333.191L461.677 299.67L459.975 289.53L467.223 292.002L481.994 236.995L481.67 118.572L468.345 117.876L446.389 63.2878L431.65 67.4513L403.048 38.6526L391.217 42.1141L352.437 22.2911L337.852 35.3611L312.307 32.6918L300.482 41.375L268.817 44.6984Z" fill="#6E443A"/>
<path d="M467.224 292.005L495.831 246.983L497.373 139.397L481.666 118.575L467.224 292.005ZM430.146 195.825L437.112 198.25L430.093 199.483L427.54 214.457L440.579 212.644L427.482 218.461L413.056 340.813L438.76 339.116L461.678 299.672L478.72 111.385L446.39 63.2902L430.146 195.825ZM364.232 349.102L409.387 340.76L442.817 56.569L437.287 46.8542L403.043 38.6549L364.232 349.102ZM316.924 348.422L341.261 354.26L360.553 349.049L370.879 248.594L364.089 248.493L371.443 245.989L398.231 36.2302L352.438 22.2935L316.924 348.422ZM302.939 102.851L308.958 102.155L302.615 107.286L286.62 220.237L293.82 228.409L286.041 224.336L270.36 333.905L313.792 348.379L317.227 327.525L331.004 186.61L323.22 182.808L331.057 182.92L347.738 22.2243L312.308 32.6942L302.939 102.851ZM229.236 289.224L245.108 326.7L265.947 332.449L281.133 212.596L273.715 210.479L283.254 209.028L308.586 33.7311L268.818 44.7007L229.236 289.224ZM198.544 229.733L219.218 97.9326L264.234 48.7845L225.163 286.161L214.613 262.052L214.948 238.528L210.099 255.145L198.544 229.733Z" fill="#C43A2C"/>
<mask id="mask0_195_5121" style="mask-type:luminance" maskUnits="userSpaceOnUse" x="198" y="22" width="300" height="333">
<path d="M312.309 32.6916L302.935 102.848L308.96 102.157L302.61 107.289L286.621 220.234L293.821 228.407L286.042 224.339L270.356 333.903L313.788 348.382L317.223 327.522L331.005 186.613L323.221 182.805L331.058 182.917L347.734 22.227L312.309 32.6916ZM316.925 348.425L341.262 354.263L360.554 349.052L370.88 248.592L364.09 248.496L371.438 245.986L398.227 36.2278L352.439 22.2912L316.925 348.425ZM268.814 44.6984L229.237 289.221L245.109 326.703L265.942 332.451L281.134 212.593L273.711 210.482L283.25 209.025L308.582 33.7282L268.814 44.6984ZM364.233 349.1L409.383 340.762L442.818 56.5664L437.283 46.8515L403.044 38.6522L364.233 349.1ZM219.219 97.9302L198.545 229.736L210.094 255.142L214.949 238.526L214.609 262.055L225.163 286.164L264.235 48.7819L219.219 97.9302ZM430.142 195.822L437.113 198.252L430.088 199.486L427.542 214.459L440.574 212.646L427.483 218.458L413.052 340.816L438.761 339.114L461.673 299.67L478.721 111.383L446.386 63.2929L430.142 195.822ZM467.219 292.008L495.827 246.981L497.374 139.395L481.667 118.572L467.219 292.008Z" fill="white"/>
</mask>
<g mask="url(#mask0_195_5121)">
<path d="M329.859 169.226L323.872 171.087L326.637 181.993L332.3 182.306L338.335 171.56L329.859 169.226ZM384.974 176.176L378.938 186.922L373.27 186.608L370.505 175.702L376.498 173.841L384.974 176.176Z" stroke="white" stroke-width="4.736"/>
<path d="M430.043 222.372C428.283 216.699 427.416 210.786 427.799 204.033L449.398 196.785L438.508 172.793L442.618 169.8C449.084 181.737 455.258 189.655 464.239 199.226C454.322 211.509 443.219 218.177 430.043 222.372ZM404.084 200.39L404.849 201.438C402.297 206.686 398.729 210.536 394.071 213.636C388.833 213.764 383.729 212.61 378.683 210.818L378.842 209.217C387.908 208.494 396.873 205.825 404.084 200.39ZM397.32 256.988L392.625 248.762C386.983 261.79 381.214 273.19 375.668 282.352L375.439 272.945C369.92 281.783 364.055 288.318 357.801 292.875C363.124 280.14 367.899 267.022 372.392 253.878C373.131 258.153 372.908 263.31 371.51 268.67C377.63 262.486 382.447 254.872 386.526 245.891L386.563 251.394C391.439 243.142 395.262 230.901 396.209 218.379C399.314 228.067 399.766 241.052 397.32 256.988ZM340.515 309.284C341.148 302.877 342.227 294.895 344.205 289.589C341.169 287.994 338.617 284.505 336.984 280.464L342.094 281.618C340.01 273.323 337.356 264.969 333.235 256.797L341.956 265.427L344.758 257.61L348.113 267.649C351.75 263.156 356.217 259.073 359.886 257.169L354.18 270.84L362.156 266.453C358.748 274.53 353.899 279.55 348.698 285.181L356.169 283.011C350.107 291.471 344.912 300.016 340.515 309.284ZM321.665 282.83L314.412 262.375L311.381 269.516C307.037 260.673 303.586 251.596 301.661 241.701L297.742 251.99C295.339 235.251 297.471 222.516 303.176 211.759L301.783 234.592L305.452 229.779C306.798 236.708 308.143 246.55 310.381 253.239L312.232 246.306C315.332 253.085 318.49 259.221 323.505 264.246L325.509 255.707C330.593 268.83 333.857 282.74 335.336 297.123L322.202 271.558L321.665 282.83ZM299.268 189.692C305.271 196.434 312.934 201.076 321.681 203.56L321.521 205.16C316.225 205.931 310.993 206.059 305.883 204.91C301.922 200.959 299.178 196.477 297.705 190.835L299.268 189.692ZM294.679 98.3188L309.19 83.5791L309.988 84.3023L300.996 98.9462C306.622 109.533 311.796 115.866 319.235 122.752L311.328 132.323C302.927 123.401 296.828 114.712 294.679 98.3188ZM347.917 161.18L355.861 154.204L362.603 162.313C373.769 163.738 382.485 163.632 392.853 161.42L394.581 170.331L364.491 169.614L356.775 183.088L360.838 203.554L350.15 208.967L341.849 201.996L348.73 182.296L343.87 166.928L313.2 163.243L317.15 152.635C325.674 157.363 336.144 160.016 347.917 161.18ZM364.943 182.604L368.452 176.478C377.321 174.766 382.777 175.309 388.844 178.499L389.711 184.406L377.359 186.097L364.943 182.604ZM365.076 192.973C373.695 193.824 387.961 193.292 394.948 193.015L395.464 196.626C386.978 200.316 377.465 202.608 367.575 202.927L365.076 192.973ZM316.778 176.867L318.756 171.56C327.498 171.134 335.862 171.634 340.206 174.654L341.068 180.562L326.546 180.748L316.778 176.867ZM341.137 188.66L333.9 200.242C325.35 198.747 312.992 191.697 306.67 185.247L307.117 183.678C316.496 185.576 332.204 188.102 341.137 188.66ZM324.69 220.038C320.229 227.036 318.57 232.05 316.98 239.335C313.816 233.198 312.503 228.859 311.19 221.612C315.848 215.603 320.538 212.184 329.024 208.494C335.984 211.445 342.461 213.381 346.933 218.028L351.532 218.485L364.193 210.679C372.334 213.429 378.656 216.965 385.266 223.441C382.942 232.273 381.671 239.265 378.39 246.056C377.747 240.818 377.359 233.012 375.503 225.387L324.69 220.038ZM343.253 252.288L339.483 246.412L334.985 250.82L335.235 239.521C331.949 240.488 327.067 242.918 321.899 245.322C325.658 236.633 331.624 232.045 338.898 228.881C340.143 230.949 343.594 234.203 347.55 235.24C352.245 234.735 355.659 232.481 359.099 229.912L367.787 235.947L370.505 246.572L361.598 242.78L359.274 251.607L356.111 242.557L351.49 251.16L345.322 240.196C344.014 244.599 343.349 248.411 343.253 252.288ZM421.259 114.728L415.346 95.3783L416.271 94.82C421.923 102.174 425.438 110.612 428.634 119.344C422.864 127.83 414.766 136.412 405.45 142.607L399.473 132.632L421.259 114.728ZM271.74 190.851L267.284 206.59C253.268 198.731 242.857 186.698 236.337 170.523C244.516 165.881 255.842 156.969 263.132 149.168L267.71 153.906L251.784 172.698C256.799 180.636 265.131 187.288 271.74 190.851ZM452.413 166.343L456.523 162.871L446.112 145.016L428.373 157.171L426.719 162.185L420.971 161.616L402.02 174.304L400.457 172.528L407.402 155.097C419.557 146.595 429.16 137.513 436.456 122.38C432.904 102.615 417.409 83.2867 403.972 75.4861L402.313 77.5865C408.449 88.8699 410.273 96.814 412.097 110.586C405.115 116.69 398.032 120.843 390.12 124.592L360.168 104.801L327.689 116.472C321.016 110.634 315.013 103.891 309.866 97.234L326.509 69.7593L324.116 67.5846C310.685 74.3429 298.497 83.1644 287.496 94.6977C285.496 114.882 293.488 133.791 303.293 143.176L305.729 162.504L303.559 163.908L285.374 146.903L281.354 146.505L281.54 141.671L267.518 127.99L255.943 136.55L258.399 141.001C250.556 149.929 237.667 159.979 225.479 165.892C235.875 195.716 251.136 211.461 270.039 219.804C276.095 208.43 280.2 196.222 281.758 183.433C274.702 181.439 269.151 178.946 263.084 172.847L273.639 159.979L296.264 181.955L289.697 192.627L293.276 203.336C289.681 219.161 287.522 235.123 287.373 251.288C291.749 256.898 297.88 262.359 302.762 265.751L304.82 286.016C315.13 293.183 328.577 306.812 339.084 317.882C353.149 304.711 368.271 295.534 382.851 288.887L386.223 272.392L402.43 261.056C405.291 243.865 406.939 230.114 406.008 216.114L411.873 206.66L404.365 191.681L429.341 176.68L439.12 192.207L420.259 198.109C419.217 208.68 420.434 222.718 423.859 232.114C448.398 227.424 461.952 216.47 474.996 198.997C465.829 189.027 458.512 177.951 452.413 166.343Z" stroke="white" stroke-width="4.736"/>
<path d="M329.859 169.226L323.872 171.087L326.637 181.993L332.3 182.306L338.335 171.56L329.859 169.226ZM384.974 176.176L378.938 186.922L373.27 186.608L370.505 175.702L376.498 173.841L384.974 176.176Z" fill="#C43A2C"/>
<path d="M430.043 222.372C428.283 216.699 427.416 210.786 427.799 204.033L449.398 196.785L438.508 172.793L442.618 169.8C449.084 181.737 455.258 189.655 464.239 199.226C454.322 211.509 443.219 218.177 430.043 222.372ZM404.084 200.39L404.849 201.438C402.297 206.686 398.729 210.536 394.071 213.636C388.833 213.764 383.729 212.61 378.683 210.818L378.842 209.217C387.908 208.494 396.873 205.825 404.084 200.39ZM397.32 256.988L392.625 248.762C386.983 261.79 381.214 273.19 375.668 282.352L375.439 272.945C369.92 281.783 364.055 288.318 357.801 292.875C363.124 280.14 367.899 267.022 372.392 253.878C373.131 258.153 372.908 263.31 371.51 268.67C377.63 262.486 382.447 254.872 386.526 245.891L386.563 251.394C391.439 243.142 395.262 230.901 396.209 218.379C399.314 228.067 399.766 241.052 397.32 256.988ZM340.515 309.284C341.148 302.877 342.227 294.895 344.205 289.589C341.169 287.994 338.617 284.505 336.984 280.464L342.094 281.618C340.01 273.323 337.356 264.969 333.235 256.797L341.956 265.427L344.758 257.61L348.113 267.649C351.75 263.156 356.217 259.073 359.886 257.169L354.18 270.84L362.156 266.453C358.748 274.53 353.899 279.55 348.698 285.181L356.169 283.011C350.107 291.471 344.912 300.016 340.515 309.284ZM321.665 282.83L314.412 262.375L311.381 269.516C307.037 260.673 303.586 251.596 301.661 241.701L297.742 251.99C295.339 235.251 297.471 222.516 303.176 211.759L301.783 234.592L305.452 229.779C306.798 236.708 308.143 246.55 310.381 253.239L312.232 246.306C315.332 253.085 318.49 259.221 323.505 264.246L325.509 255.707C330.593 268.83 333.857 282.74 335.336 297.123L322.202 271.558L321.665 282.83ZM299.268 189.692C305.271 196.434 312.934 201.076 321.681 203.56L321.521 205.16C316.225 205.931 310.993 206.059 305.883 204.91C301.922 200.959 299.178 196.477 297.705 190.835L299.268 189.692ZM294.679 98.3188L309.19 83.5791L309.988 84.3023L300.996 98.9462C306.622 109.533 311.796 115.866 319.235 122.752L311.328 132.323C302.927 123.401 296.828 114.712 294.679 98.3188ZM347.917 161.18L355.861 154.204L362.603 162.313C373.769 163.738 382.485 163.632 392.853 161.42L394.581 170.331L364.491 169.614L356.775 183.088L360.838 203.554L350.15 208.967L341.849 201.996L348.73 182.296L343.87 166.928L313.2 163.243L317.15 152.635C325.674 157.363 336.144 160.016 347.917 161.18ZM364.943 182.604L368.452 176.478C377.321 174.766 382.777 175.309 388.844 178.499L389.711 184.406L377.359 186.097L364.943 182.604ZM365.076 192.973C373.695 193.824 387.961 193.292 394.948 193.015L395.464 196.626C386.978 200.316 377.465 202.608 367.575 202.927L365.076 192.973ZM316.778 176.867L318.756 171.56C327.498 171.134 335.862 171.634 340.206 174.654L341.068 180.562L326.546 180.748L316.778 176.867ZM341.137 188.66L333.9 200.242C325.35 198.747 312.992 191.697 306.67 185.247L307.117 183.678C316.496 185.576 332.204 188.102 341.137 188.66ZM324.69 220.038C320.229 227.036 318.57 232.05 316.98 239.335C313.816 233.198 312.503 228.859 311.19 221.612C315.848 215.603 320.538 212.184 329.024 208.494C335.984 211.445 342.461 213.381 346.933 218.028L351.532 218.485L364.193 210.679C372.334 213.429 378.656 216.965 385.266 223.441C382.942 232.273 381.671 239.265 378.39 246.056C377.747 240.818 377.359 233.012 375.503 225.387L324.69 220.038ZM343.253 252.288L339.483 246.412L334.985 250.82L335.235 239.521C331.949 240.488 327.067 242.918 321.899 245.322C325.658 236.633 331.624 232.045 338.898 228.881C340.143 230.949 343.594 234.203 347.55 235.24C352.245 234.735 355.659 232.481 359.099 229.912L367.787 235.947L370.505 246.572L361.598 242.78L359.274 251.607L356.111 242.557L351.49 251.16L345.322 240.196C344.014 244.599 343.349 248.411 343.253 252.288ZM421.259 114.728L415.346 95.3783L416.271 94.82C421.923 102.174 425.438 110.612 428.634 119.344C422.864 127.83 414.766 136.412 405.45 142.607L399.473 132.632L421.259 114.728ZM271.74 190.851L267.284 206.59C253.268 198.731 242.857 186.698 236.337 170.523C244.516 165.881 255.842 156.969 263.132 149.168L267.71 153.906L251.784 172.698C256.799 180.636 265.131 187.288 271.74 190.851ZM452.413 166.343L456.523 162.871L446.112 145.016L428.373 157.171L426.719 162.185L420.971 161.616L402.02 174.304L400.457 172.528L407.402 155.097C419.557 146.595 429.16 137.513 436.456 122.38C432.904 102.615 417.409 83.2867 403.972 75.4861L402.313 77.5865C408.449 88.8699 410.273 96.814 412.097 110.586C405.115 116.69 398.032 120.843 390.12 124.592L360.168 104.801L327.689 116.472C321.016 110.634 315.013 103.891 309.866 97.234L326.509 69.7594L324.116 67.5846C310.685 74.3429 298.497 83.1644 287.496 94.6977C285.496 114.882 293.488 133.791 303.293 143.176L305.729 162.504L303.559 163.908L285.374 146.903L281.354 146.505L281.54 141.671L267.518 127.99L255.943 136.55L258.399 141.001C250.556 149.929 237.667 159.979 225.479 165.892C235.875 195.716 251.136 211.461 270.039 219.804C276.095 208.43 280.2 196.222 281.758 183.433C274.702 181.439 269.151 178.946 263.084 172.847L273.639 159.979L296.264 181.955L289.697 192.627L293.276 203.336C289.681 219.161 287.522 235.123 287.373 251.288C291.749 256.898 297.88 262.359 302.762 265.751L304.82 286.016C315.13 293.183 328.577 306.812 339.084 317.882C353.149 304.711 368.271 295.534 382.851 288.887L386.223 272.392L402.43 261.056C405.291 243.865 406.939 230.114 406.008 216.114L411.873 206.66L404.365 191.681L429.341 176.68L439.12 192.207L420.259 198.109C419.217 208.68 420.434 222.718 423.859 232.114C448.398 227.424 461.952 216.47 474.996 198.997C465.829 189.027 458.512 177.951 452.413 166.343Z" fill="#C43A2C"/>
</g>
<path d="M207.404 225.195L214.104 286.333L232.529 278.895L213.126 231.996L207.404 225.195Z" fill="#57342C"/>
<path d="M2.2627 198.041L21.3466 209.361L45.2747 210.329L24.8986 201.274L2.2627 198.041Z" fill="#99594A"/>
<path d="M18.1104 202.245L27.4901 204.51L61.771 123.979L53.6833 90.9957L30.3987 113.956L18.1104 202.245Z" fill="#B56957"/>
<path d="M132.597 191.896L123.222 200.298L112.55 197.389L108.669 188.658L98.3104 185.436L95.3965 176.04C95.3965 176.024 95.3965 176.003 95.4178 176.003L102.192 158.27L123.222 144.684L125.514 153.67L131.953 178.954L132.597 191.896Z" fill="#D19470"/>
<path d="M132.597 191.896L123.222 200.298L112.55 197.389L108.669 188.658L98.3104 185.436L95.3965 176.04C95.3965 176.024 95.3965 176.003 95.4178 176.003C95.7262 176.003 99.2781 182.522 99.2781 182.522L107.371 182.836L116.746 175.402L121.925 149.4L125.514 153.67L131.953 178.954L132.597 191.896Z" fill="#B58061"/>
<path d="M193.718 171.521L191.447 179.284L184.014 182.836L177.223 182.522L163.058 137.835L162.67 136.591H177.553L191.777 147.906L193.388 156.637L189.198 164.73L193.718 171.521Z" fill="#D19470"/>
<path d="M193.719 171.521L191.449 179.284L184.015 182.836L177.225 182.522L163.06 137.835L163.198 136.591L163.315 135.294L164.517 136.591L178.528 151.788L187.259 154.388L191.779 147.906L193.39 156.637L189.2 164.73L193.719 171.521Z" fill="#B58061"/>
<path d="M131.304 185.105C131.628 186.072 136.477 210.979 136.477 210.979C136.477 210.979 152.004 221.651 153.296 221.326C154.588 221.002 167.201 219.385 167.201 219.385L176.905 204.832L170.115 183.488L131.304 185.105Z" fill="#E28B6B"/>
<path d="M177.229 159.548V182.525L167.525 194.808L158.156 198.046L139.391 195.446L122.567 177.34L121.014 153.322L120.626 147.265L140.359 137.891L164.616 134.323L167.663 140.395L177.229 159.548Z" fill="#F4BBA4"/>
<path d="M125.474 247.528L132.264 235.223L121.805 216.458L136.475 210.971L143.133 256.493L125.474 247.528Z" fill="#57342C"/>
<path d="M200.841 224.554L188.697 251.859L176.897 204.838L190.053 202.397L188.867 220.035L200.841 224.554Z" fill="#57342C"/>
<path d="M21.6689 203.214L48.5109 109.103L24.5775 203.863L21.6689 203.214Z" fill="#57342C"/>
<path d="M259.95 142.744L259.7 143.053L249.607 161.626L238.292 150.874L245.784 136.592L245.396 135.002L259.95 142.744Z" fill="#E28B6B"/>
<path d="M261.966 162.789L254.708 173.072L244.174 153.728L230.104 144.045L236.741 131.741L250.635 143.715L261.966 162.789Z" fill="#998468"/>
<path d="M260.122 159.69L252.077 168.246L254.709 173.074L261.962 162.79L260.122 159.69Z" fill="#6B5A3F"/>
<path d="M113.52 111.038L105.756 133.37L105.427 134.322L104.964 134.189L86.0236 128.829L76.9629 112.34L83.7531 78.3785L91.8461 108.129L99.7796 109.193L113.52 111.038Z" fill="#ABA39C"/>
<path d="M113.52 111.039L105.756 133.372L104.964 134.19L86.0236 128.831L76.9629 112.341L89.2619 124.619L100.248 124.949L99.7796 109.194L113.52 111.039Z" fill="#948C87"/>
<path d="M248.701 123.655L258.405 133.359L256.464 125.92L248.701 123.655Z" fill="#E28B6B"/>
<path d="M277.807 98.7551L265.519 116.542L267.784 118.482L277.807 98.7551Z" fill="#E28B6B"/>
<path d="M174.958 102.306L163.004 114.61L141.969 104.577L146.026 100.19L158.463 86.7847L151.029 58.975L173.346 84.2005L174.958 102.306Z" fill="#ABA39C"/>
<path d="M169.794 124.952L102.849 148.236L100.249 132.072L110.921 109.101L111.134 109.021L138.747 100.364L162.829 109.585L163.313 109.76L169.794 124.952Z" fill="#A16758"/>
<path d="M169.794 124.952L102.849 148.236L100.249 132.072L110.921 109.101L111.134 109.021L116.743 117.188L145.851 120.432L157.495 118.161L162.829 109.585L163.313 109.76L169.794 124.952Z" fill="#7A4C41"/>
<path d="M155.242 141.446L147.479 143.716L154.912 168.282L148.122 170.553L132.925 149.209L121.014 153.319L120.626 147.268L140.359 137.894L164.616 134.326L167.663 140.398L155.242 141.446Z" fill="#E28B6B"/>
<path d="M135.185 142.091L148.446 167.965L155.885 165.375L149.089 136.593L135.185 142.091Z" fill="#ABA39B"/>
<path d="M177.554 136.594L163.543 137.349L153.61 137.897L128.071 146.628L121.924 149.398L102.186 158.268L98.3047 147.266C98.9853 147.5 110.184 140.55 116.798 136.381C119.611 134.616 121.595 133.356 121.595 133.356C121.595 133.356 147.479 123.008 148.756 123.008C149.319 123.008 154.754 122.897 160.656 122.758C168.222 122.562 176.587 122.37 176.587 122.37L177.554 136.594Z" fill="#ABA39B"/>
<path d="M141.812 181.95L151.272 179.281L159.764 175.889L168.734 169.822L165.097 181.467L153.941 186.8L141.812 181.95Z" fill="white"/>
<path d="M135.042 162.221C135.861 164.768 135.287 167.235 133.761 167.73C132.229 168.224 130.32 166.555 129.501 164.002C128.677 161.455 129.257 158.988 130.783 158.493C132.314 158.004 134.223 159.669 135.042 162.221Z" fill="#2B2523"/>
<path d="M123.863 158.586L135.827 150.823L133.243 146.622L123.539 155.353L123.863 158.586Z" fill="#B58061"/>
<path d="M164.834 152.967C165.541 155.551 164.855 157.992 163.308 158.412C161.755 158.837 159.926 157.088 159.219 154.504C158.512 151.919 159.198 149.479 160.745 149.059C162.298 148.633 164.127 150.383 164.834 152.967Z" fill="#2B2523"/>
<path d="M121.924 149.4L102.191 158.27L98.3096 147.268C98.9902 147.497 110.183 140.552 116.803 136.378C118.489 140.456 120.664 145.869 121.924 149.4Z" fill="#948C87"/>
<path d="M174.958 102.306L163.004 114.61L141.969 104.577L146.026 100.19L162.036 102.636L169.135 97.1429L173.346 84.2005L174.958 102.306Z" fill="#948C87"/>
<path d="M177.556 136.593L163.545 137.348L160.657 122.757C168.224 122.56 176.588 122.369 176.588 122.369L177.556 136.593Z" fill="#948C87"/>
<path d="M152.322 140.15L154.263 144.675L167.035 143.707L166.392 141.118L152.322 140.15Z" fill="#B58061"/>
</svg>
